<svg xmlns="http://www.w3.org/2000/svg" viewBox="0 0 497.7 497.7"><defs><style>      .cls-1 {        fill: #fff;      }      .cls-2 {        fill: #a57ca0;      }      .cls-3 {        isolation: isolate;      }      .cls-4 {        fill: #864c82;      }      .cls-5 {        fill: #cab4c8;      }    </style></defs><g><g id="Calque_1"><g><circle class="cls-5" cx="248.8" cy="248.8" r="248.8"></circle><circle class="cls-2" cx="248.8" cy="248.8" r="211.9"></circle><circle class="cls-4" cx="248.8" cy="248.8" r="166.1"></circle></g><g class="cls-3"><path class="cls-1" d="M235.1,261.1c6.2-5.5,11.4-11.2,15.6-17,4.2-5.9,6.3-11.4,6.3-16.7s-.7-5.7-2.2-7.5c-1.5-1.8-3.6-2.7-6.4-2.7s-5.2,1.2-6.8,3.7c-1.6,2.5-2.4,6-2.2,10.7h-28.5c.3-8.9,2.2-16.3,5.9-22.1s8.3-10.1,14.1-12.9c5.8-2.7,12.2-4.1,19.3-4.1,12.3,0,21.5,3.1,27.5,9.2,6,6.1,9,14,9,23.7s-3.5,20.2-10.4,29.2c-7,9.1-15.6,17.2-26,24.5h37.5v23.8h-76.5v-22c9.7-7.6,17.6-14.1,23.8-19.7Z"></path></g></g></g></svg>