<svg xmlns="http://www.w3.org/2000/svg" viewBox="0 0 497.7 497.7"><defs><style>      .cls-1 {        fill: #fff;      }      .cls-2 {        fill: #a57ca0;      }      .cls-3 {        isolation: isolate;      }      .cls-4 {        fill: #864c82;      }      .cls-5 {        fill: #cab4c8;      }    </style></defs><g><g id="Calque_1"><g><circle class="cls-5" cx="248.8" cy="248.8" r="248.8"></circle><circle class="cls-2" cx="248.8" cy="248.8" r="211.9"></circle><circle class="cls-4" cx="248.8" cy="248.8" r="166.1"></circle></g><g class="cls-3"><path class="cls-1" d="M220.4,201.3c6.6-6,15.8-9.1,27.6-9.1s14.3,1.3,19.7,4c5.4,2.7,9.6,6.3,12.4,10.8,2.8,4.6,4.2,9.7,4.2,15.4s-1.7,12.2-5,16.3-7,6.8-11.2,8.2v.6c12.1,4.5,18.1,13.1,18.1,25.8s-1.5,11.8-4.3,16.6c-2.9,4.8-7.1,8.6-12.6,11.2-5.5,2.7-12.1,4.1-19.6,4.1-12.5,0-22.4-3-29.6-9.1-7.3-6-11-15.3-11.3-27.8h28.6c-.2,4,.6,7.1,2.6,9.3,1.9,2.2,4.7,3.3,8.5,3.3s5.2-.9,6.8-2.7c1.7-1.8,2.5-4.2,2.5-7.2s-1.2-6.6-3.7-8.4c-2.5-1.8-6.4-2.7-11.9-2.7h-5.2v-23.8h5.1c3.8.1,7-.5,9.7-1.9,2.6-1.3,4-4.1,4-8.2s-.8-5.4-2.2-7c-1.5-1.5-3.6-2.3-6.1-2.3s-5,1-6.4,3.1c-1.3,2.1-2.1,4.6-2.3,7.6h-28.6c.4-11.3,3.9-20,10.5-26Z"></path></g></g></g></svg>