<svg xmlns="http://www.w3.org/2000/svg" xmlns:xlink="http://www.w3.org/1999/xlink" id="Logos" x="0px" y="0px" viewBox="0 0 354.2 61.8" style="enable-background:new 0 0 354.2 61.8;" xml:space="preserve"><style type="text/css">	.st0{fill:url(#SVGID_1_);}	.st1{fill:#315397;}	.st2{fill:url(#SVGID_00000111169260348253573740000013324326437525496510_);}	.st3{fill:url(#SVGID_00000142156090226510842810000010776586324720204711_);}	.st4{fill:#FFFFFF;}	.st5{fill:url(#SVGID_00000066508571938336566500000012204725720089298347_);}	.st6{fill:url(#SVGID_00000153678548591041007810000000624644135768067740_);}	.st7{fill:url(#SVGID_00000002352489118290043670000006143371833537539746_);}	.st8{fill:url(#SVGID_00000045617876786545594440000001699821465690894482_);}</style><path class="st4" d="M47.5,44.8c-0.4,0-0.9-0.2-1.1-0.6L39,30.7c-0.2-0.4-0.2-0.9,0-1.2c0.2-0.4,0.6-0.6,1.1-0.6 c3.8,0,6.8-3.1,6.8-6.8c0-3.8-3.1-6.8-6.8-6.8H29.4l-4.7,8.2c-0.2,0.4-0.6,0.6-1.1,0.6c0,0,0,0,0,0c-0.4,0-0.9-0.2-1.1-0.6l-5.2-9.2 c-0.3-0.6-0.1-1.4,0.5-1.7c0.6-0.3,1.4-0.1,1.7,0.5l4.2,7.3l3.9-6.9c0.2-0.4,0.6-0.6,1.1-0.6h11.4c5.1,0,9.3,4.2,9.3,9.3 c0,4.4-3.1,8.2-7.3,9.1l6.6,11.8c0.3,0.6,0.1,1.4-0.5,1.7C48,44.7,47.7,44.8,47.5,44.8z M34.5,52.9c0.6-0.3,0.8-1.1,0.5-1.7 L24.7,33.1c-0.2-0.4-0.6-0.6-1.1-0.6c0,0,0,0,0,0c-0.4,0-0.9,0.2-1.1,0.6L15.3,46c-0.3,0.6-0.1,1.4,0.5,1.7c0.6,0.3,1.4,0.1,1.7-0.5 l6.2-10.9l9.2,16.2c0.2,0.4,0.7,0.6,1.1,0.6C34.1,53,34.3,53,34.5,52.9z M5.4,15.8c-0.6-0.4-1.4-0.1-1.7,0.5C1.2,20.8,0,25.8,0,31 c0,16.4,13.4,30,29.7,30.4c0.3,0,0.5,0,0.8,0c5.1,0,10.1-1.3,14.6-3.7c1.3-0.7,2.1-1.9,2.4-3.3c0.2-1.2,0-2.4-0.6-3.5L36.5,32.2 c-0.7-1.2-0.8-2.7-0.2-3.9c0.7-1.4,2.1-2.3,3.7-2.4c2,0,3.8-1.6,4-3.6c0.2-2.3-1.6-4.2-3.9-4.2h-8.2c-0.4,0-0.9,0.2-1.1,0.6 l-2.6,4.6c-1.7,3-1.7,6.7,0,9.7l10,17.7c0.3,0.5,1,0.8,1.5,0.6c0.7-0.3,1-1.1,0.7-1.8l-10-17.7c-1.3-2.2-1.3-5,0-7.3l2.3-4l7.4,0 c0.7,0,1.4,0.5,1.5,1.2c0.1,0.9-0.5,1.6-1.4,1.6c-1.1,0-2.3,0.1-3.3,0.8c-3.4,2.2-4.2,6.1-2.5,9.1l10.5,18.9c0.2,0.4,0.4,1,0.3,1.5 c-0.1,0.8-0.5,1.5-1.2,1.9c-4.3,2.3-9.2,3.5-14.1,3.4C14.8,58.5,2.5,46,2.5,31c0-4.8,1.2-9.4,3.4-13.5C6.2,16.9,6,16.2,5.4,15.8 L5.4,15.8z M53.1,49.6c0.6,0.5,1.4,0.3,1.8-0.2C59,43.8,61.3,37,61.1,30C60.6,14,47.7,1,31.8,0.4c-7.3-0.3-14.4,2-20.1,6.5 c-1.9,1.5-2.4,4.1-1.2,6.2L17,24.6c1.3,2.3,1.3,5,0,7.3l-5.5,9.6c-0.3,0.5-0.2,1.2,0.3,1.6c0.6,0.5,1.5,0.3,1.9-0.3l5.5-9.7 c1.7-3,1.7-6.7,0-9.7l-6.5-11.5c-0.6-1-0.3-2.3,0.6-3C18.5,4.7,25,2.6,31.7,2.9c14.7,0.6,26.5,12.5,26.9,27.2 c0.2,6.5-1.9,12.7-5.7,17.8C52.5,48.4,52.6,49.1,53.1,49.6L53.1,49.6z M74.2,55.6c0,0.1,0,0.2-0.1,0.3C73.9,56,73.8,56,73.7,56 c-0.2,0-0.3-0.1-0.4-0.2l-1.3-2c-0.1-0.2-0.3-0.4-0.5-0.5c-0.2-0.1-0.4-0.1-0.6-0.1h-1.1v2.3c0,0.2,0,0.3-0.1,0.4 c-0.1,0.1-0.2,0.1-0.4,0.1c-0.1,0-0.3,0-0.4-0.1c-0.1-0.1-0.1-0.2-0.1-0.4v-5.8c0-0.1,0-0.3,0.1-0.3c0.1-0.1,0.2-0.1,0.4-0.1h2.4 c0.7,0,1.3,0.2,1.7,0.5c0.4,0.3,0.6,0.8,0.6,1.4c0,0.5-0.1,0.9-0.4,1.3c-0.3,0.3-0.7,0.5-1.3,0.6c0.2,0,0.3,0.1,0.4,0.2 c0.1,0.1,0.3,0.3,0.4,0.5l1,1.5C74.2,55.4,74.2,55.5,74.2,55.6z M71.6,52.4c0.5,0,0.9-0.1,1.1-0.3s0.4-0.5,0.4-0.9 c0-0.4-0.1-0.7-0.3-0.9c-0.2-0.2-0.6-0.3-1.1-0.3h-1.8v2.3H71.6z M79.1,54.9c0.1,0.1,0.1,0.2,0.1,0.3c0,0.2-0.1,0.3-0.3,0.5 c-0.2,0.1-0.5,0.2-0.7,0.3S77.6,56,77.4,56c-0.7,0-1.3-0.2-1.7-0.6c-0.4-0.4-0.6-1-0.6-1.7c0-0.5,0.1-0.9,0.3-1.3 c0.2-0.4,0.4-0.6,0.8-0.9c0.3-0.2,0.7-0.3,1.1-0.3c0.6,0,1.1,0.2,1.5,0.6s0.5,0.9,0.5,1.6c0,0.3-0.1,0.4-0.3,0.4H76 c0.1,1,0.5,1.5,1.4,1.5c0.2,0,0.4,0,0.6-0.1c0.2-0.1,0.3-0.1,0.5-0.2c0,0,0.1,0,0.2-0.1c0.1,0,0.2-0.1,0.2-0.1 C79,54.8,79.1,54.8,79.1,54.9z M76.4,52.2c-0.2,0.2-0.4,0.6-0.4,1h2.4c0-0.4-0.1-0.8-0.3-1c-0.2-0.2-0.5-0.3-0.8-0.3 C76.9,51.9,76.6,52,76.4,52.2z M83.6,51.7c0.3,0.3,0.4,0.8,0.4,1.4v2.4c0,0.1,0,0.3-0.1,0.3c-0.1,0.1-0.2,0.1-0.3,0.1 c-0.1,0-0.2,0-0.3-0.1c-0.1-0.1-0.1-0.2-0.1-0.3v-0.3c-0.1,0.3-0.3,0.5-0.5,0.6S82.1,56,81.8,56c-0.3,0-0.6-0.1-0.8-0.2 s-0.4-0.3-0.6-0.5c-0.1-0.2-0.2-0.5-0.2-0.7c0-0.3,0.1-0.6,0.3-0.8s0.5-0.3,0.9-0.4c0.4-0.1,0.9-0.1,1.7-0.1h0.2V53 c0-0.4-0.1-0.6-0.2-0.8C82.8,52,82.5,52,82.2,52c-0.2,0-0.4,0-0.6,0.1c-0.2,0.1-0.4,0.1-0.6,0.2c-0.2,0.1-0.3,0.1-0.4,0.1 c-0.1,0-0.2,0-0.2-0.1s-0.1-0.2-0.1-0.3c0-0.1,0-0.2,0.1-0.3c0.1-0.1,0.1-0.1,0.3-0.2c0.2-0.1,0.5-0.2,0.8-0.3 c0.3-0.1,0.6-0.1,0.9-0.1C82.9,51.2,83.3,51.4,83.6,51.7z M82.8,54.9c0.2-0.2,0.3-0.5,0.3-0.9v-0.2H83c-0.5,0-0.9,0-1.1,0.1 s-0.5,0.1-0.6,0.2c-0.1,0.1-0.2,0.3-0.2,0.4c0,0.2,0.1,0.4,0.2,0.6c0.2,0.1,0.4,0.2,0.6,0.2C82.3,55.3,82.6,55.2,82.8,54.9z  M85.5,55.9c-0.1-0.1-0.1-0.2-0.1-0.3v-5.8c0-0.2,0-0.3,0.1-0.3c0.1-0.1,0.2-0.1,0.3-0.1c0.1,0,0.3,0,0.3,0.1 c0.1,0.1,0.1,0.2,0.1,0.3v5.8c0,0.2,0,0.3-0.1,0.3C86.1,55.9,86,56,85.8,56C85.7,56,85.6,55.9,85.5,55.9z M87.7,50.1 c-0.1-0.1-0.2-0.2-0.2-0.4s0.1-0.3,0.2-0.4c0.1-0.1,0.3-0.1,0.4-0.1c0.2,0,0.3,0,0.4,0.1s0.2,0.2,0.2,0.4s-0.1,0.3-0.2,0.4 c-0.1,0.1-0.3,0.2-0.4,0.2C88,50.3,87.8,50.2,87.7,50.1z M87.8,55.9c-0.1-0.1-0.1-0.2-0.1-0.3v-3.8c0-0.2,0-0.3,0.1-0.3 c0.1-0.1,0.2-0.1,0.3-0.1c0.1,0,0.3,0,0.3,0.1s0.1,0.2,0.1,0.3v3.8c0,0.2,0,0.3-0.1,0.3c-0.1,0.1-0.2,0.1-0.3,0.1 C88,56,87.9,55.9,87.8,55.9z M92.6,55.4c0.1,0.1,0.1,0.1,0.1,0.3c0,0.1-0.1,0.2-0.1,0.3S92.3,56,92.2,56l-0.3,0 c-0.5,0-0.9-0.2-1.1-0.5c-0.3-0.3-0.4-0.7-0.4-1.2V52h-0.6c-0.3,0-0.4-0.1-0.4-0.4c0-0.1,0-0.2,0.1-0.3c0.1-0.1,0.2-0.1,0.3-0.1h0.6 v-1c0-0.1,0-0.3,0.1-0.3s0.2-0.1,0.3-0.1s0.3,0,0.3,0.1s0.1,0.2,0.1,0.3v1h0.9c0.1,0,0.2,0,0.3,0.1c0.1,0.1,0.1,0.2,0.1,0.3 c0,0.1,0,0.2-0.1,0.3C92.5,52,92.4,52,92.3,52h-0.9v2.3c0,0.3,0.1,0.5,0.2,0.7c0.1,0.1,0.3,0.2,0.6,0.2l0.3,0 C92.5,55.3,92.6,55.3,92.6,55.4z M96.9,51.3c0.1,0,0.1-0.1,0.2-0.1c0.1,0,0.2,0,0.3,0.1c0.1,0.1,0.1,0.2,0.1,0.3c0,0.1,0,0.1,0,0.2 L95,57.4c0,0.1-0.1,0.2-0.2,0.2c-0.1,0-0.1,0.1-0.2,0.1c-0.1,0-0.2,0-0.3-0.1c-0.1-0.1-0.1-0.2-0.1-0.3c0-0.1,0-0.1,0-0.2l0.7-1.4 L93,51.8c0-0.1,0-0.1,0-0.2c0-0.1,0.1-0.2,0.2-0.3c0.1-0.1,0.2-0.1,0.3-0.1c0.2,0,0.3,0.1,0.4,0.3l1.5,3.3l1.5-3.2 C96.8,51.4,96.9,51.3,96.9,51.3z M100.9,50.1c-0.1-0.1-0.2-0.2-0.2-0.4s0.1-0.3,0.2-0.4c0.1-0.1,0.3-0.1,0.4-0.1 c0.2,0,0.3,0,0.4,0.1s0.2,0.2,0.2,0.4s-0.1,0.3-0.2,0.4c-0.1,0.1-0.3,0.2-0.4,0.2C101.2,50.3,101.1,50.2,100.9,50.1z M101,55.9 c-0.1-0.1-0.1-0.2-0.1-0.3v-3.8c0-0.2,0-0.3,0.1-0.3c0.1-0.1,0.2-0.1,0.3-0.1c0.1,0,0.3,0,0.3,0.1s0.1,0.2,0.1,0.3v3.8 c0,0.2,0,0.3-0.1,0.3c-0.1,0.1-0.2,0.1-0.3,0.1C101.2,56,101.1,55.9,101,55.9z M103.2,55.6c-0.1-0.1-0.2-0.1-0.2-0.2 c0-0.1-0.1-0.2-0.1-0.3c0-0.1,0-0.2,0.1-0.3s0.1-0.1,0.2-0.1c0.1,0,0.2,0.1,0.4,0.2c0.2,0.1,0.4,0.2,0.6,0.2 c0.2,0.1,0.4,0.1,0.7,0.1c0.3,0,0.5-0.1,0.7-0.2c0.2-0.1,0.3-0.3,0.3-0.5c0-0.1,0-0.2-0.1-0.3c-0.1-0.1-0.2-0.1-0.3-0.2 c-0.2-0.1-0.4-0.1-0.7-0.2c-0.6-0.1-1-0.3-1.2-0.5s-0.4-0.5-0.4-0.8c0-0.3,0.1-0.5,0.2-0.7s0.4-0.4,0.7-0.5c0.3-0.1,0.6-0.2,0.9-0.2 c0.2,0,0.5,0,0.7,0.1s0.5,0.2,0.6,0.3c0.2,0.1,0.3,0.3,0.3,0.5c0,0.1,0,0.2-0.1,0.3c-0.1,0.1-0.1,0.1-0.2,0.1c-0.1,0-0.1,0-0.2,0 c-0.1,0-0.1-0.1-0.2-0.1c-0.2-0.1-0.3-0.2-0.5-0.2s-0.3-0.1-0.6-0.1c-0.3,0-0.5,0.1-0.6,0.2s-0.2,0.3-0.2,0.5c0,0.2,0.1,0.3,0.2,0.4 s0.4,0.2,0.8,0.3c0.4,0.1,0.8,0.2,1,0.3c0.2,0.1,0.4,0.3,0.5,0.4c0.1,0.2,0.2,0.4,0.2,0.6c0,0.4-0.2,0.7-0.5,1s-0.8,0.4-1.4,0.4 C104.2,56,103.6,55.9,103.2,55.6z M114.4,53.1v2.5c0,0.1,0,0.3-0.1,0.3c-0.1,0.1-0.2,0.1-0.4,0.1c-0.1,0-0.3,0-0.3-0.1 c-0.1-0.1-0.1-0.2-0.1-0.3v-2.4c0-0.4-0.1-0.7-0.2-0.9s-0.4-0.3-0.7-0.3c-0.4,0-0.7,0.1-0.9,0.4s-0.3,0.6-0.3,1v2.2 c0,0.1,0,0.2-0.1,0.3c-0.1,0.1-0.2,0.1-0.3,0.1c-0.1,0-0.3,0-0.4-0.1c-0.1-0.1-0.1-0.2-0.1-0.3v-3.8c0-0.1,0-0.2,0.1-0.3 c0.1-0.1,0.2-0.1,0.3-0.1c0.1,0,0.2,0,0.3,0.1s0.1,0.2,0.1,0.3V52c0.2-0.3,0.4-0.5,0.6-0.6c0.3-0.1,0.6-0.2,0.9-0.2 C113.8,51.2,114.4,51.8,114.4,53.1z M116.5,55.7c-0.3-0.2-0.6-0.5-0.8-0.8c-0.2-0.4-0.3-0.8-0.3-1.3c0-0.5,0.1-0.9,0.3-1.3 c0.2-0.4,0.4-0.6,0.8-0.8s0.7-0.3,1.2-0.3c0.5,0,0.9,0.1,1.2,0.3s0.6,0.5,0.8,0.8c0.2,0.4,0.3,0.8,0.3,1.3c0,0.5-0.1,0.9-0.3,1.3 c-0.2,0.4-0.5,0.6-0.8,0.8c-0.3,0.2-0.7,0.3-1.2,0.3C117.2,56,116.8,55.9,116.5,55.7z M118.7,54.8c0.2-0.3,0.3-0.7,0.3-1.2 c0-0.5-0.1-0.9-0.3-1.2c-0.2-0.3-0.6-0.4-1-0.4c-0.4,0-0.7,0.1-1,0.4c-0.2,0.3-0.3,0.7-0.3,1.2c0,0.5,0.1,0.9,0.3,1.2s0.5,0.4,1,0.4 C118.1,55.2,118.4,55.1,118.7,54.8z M123.6,55.4c0.1,0.1,0.1,0.1,0.1,0.3c0,0.1,0,0.2-0.1,0.3s-0.2,0.1-0.4,0.1l-0.3,0 c-0.5,0-0.9-0.2-1.1-0.5c-0.2-0.3-0.4-0.7-0.4-1.2V52h-0.6c-0.3,0-0.4-0.1-0.4-0.4c0-0.1,0-0.2,0.1-0.3c0.1-0.1,0.2-0.1,0.3-0.1h0.6 v-1c0-0.1,0-0.3,0.1-0.3s0.2-0.1,0.3-0.1c0.1,0,0.3,0,0.3,0.1c0.1,0.1,0.1,0.2,0.1,0.3v1h0.9c0.1,0,0.2,0,0.3,0.1 c0.1,0.1,0.1,0.2,0.1,0.3c0,0.1,0,0.2-0.1,0.3c-0.1,0.1-0.2,0.1-0.3,0.1h-0.9v2.3c0,0.3,0.1,0.5,0.2,0.7c0.1,0.1,0.3,0.2,0.6,0.2 l0.3,0C123.4,55.3,123.5,55.3,123.6,55.4z M129.4,55.4c0.1,0.1,0.1,0.1,0.1,0.3c0,0.1,0,0.2-0.1,0.3s-0.2,0.1-0.4,0.1l-0.3,0 c-0.5,0-0.9-0.2-1.1-0.5c-0.2-0.3-0.4-0.7-0.4-1.2V52h-0.6c-0.3,0-0.4-0.1-0.4-0.4c0-0.1,0-0.2,0.1-0.3c0.1-0.1,0.2-0.1,0.3-0.1h0.6 v-1c0-0.1,0-0.3,0.1-0.3s0.2-0.1,0.3-0.1c0.1,0,0.3,0,0.3,0.1c0.1,0.1,0.1,0.2,0.1,0.3v1h0.9c0.1,0,0.2,0,0.3,0.1 c0.1,0.1,0.1,0.2,0.1,0.3c0,0.1,0,0.2-0.1,0.3c-0.1,0.1-0.2,0.1-0.3,0.1h-0.9v2.3c0,0.3,0.1,0.5,0.2,0.7c0.1,0.1,0.3,0.2,0.6,0.2 l0.3,0C129.2,55.3,129.3,55.3,129.4,55.4z M134.3,53.1v2.5c0,0.1,0,0.2-0.1,0.3c-0.1,0.1-0.2,0.1-0.4,0.1s-0.3,0-0.3-0.1 c-0.1-0.1-0.1-0.2-0.1-0.3v-2.4c0-0.4-0.1-0.7-0.2-0.8c-0.2-0.2-0.4-0.3-0.7-0.3c-0.4,0-0.7,0.1-0.9,0.4c-0.2,0.2-0.3,0.6-0.3,1v2.2 c0,0.1,0,0.2-0.1,0.3c-0.1,0.1-0.2,0.1-0.3,0.1s-0.3,0-0.3-0.1c-0.1-0.1-0.1-0.2-0.1-0.3v-5.9c0-0.1,0-0.2,0.1-0.3 c0.1-0.1,0.2-0.1,0.4-0.1c0.1,0,0.2,0,0.3,0.1c0.1,0.1,0.1,0.2,0.1,0.3V52c0.2-0.3,0.4-0.5,0.6-0.6s0.6-0.2,0.9-0.2 C133.8,51.2,134.3,51.8,134.3,53.1z M139.5,54.9c0.1,0.1,0.1,0.2,0.1,0.3c0,0.2-0.1,0.3-0.3,0.5c-0.2,0.1-0.5,0.2-0.7,0.3 S138,56,137.7,56c-0.7,0-1.3-0.2-1.7-0.6c-0.4-0.4-0.6-1-0.6-1.7c0-0.5,0.1-0.9,0.3-1.3c0.2-0.4,0.4-0.6,0.8-0.9 c0.3-0.2,0.7-0.3,1.1-0.3c0.6,0,1.1,0.2,1.5,0.6s0.5,0.9,0.5,1.6c0,0.3-0.1,0.4-0.3,0.4h-2.9c0.1,1,0.5,1.5,1.4,1.5 c0.2,0,0.4,0,0.6-0.1c0.2-0.1,0.3-0.1,0.5-0.2c0,0,0.1,0,0.2-0.1c0.1,0,0.2-0.1,0.2-0.1C139.3,54.8,139.4,54.8,139.5,54.9z  M136.7,52.2c-0.2,0.2-0.4,0.6-0.4,1h2.4c0-0.4-0.1-0.8-0.3-1s-0.5-0.3-0.8-0.3C137.2,51.9,136.9,52,136.7,52.2z M143.3,55.9 c-0.1-0.1-0.1-0.2-0.1-0.3v-5.8c0-0.2,0-0.3,0.1-0.3c0.1-0.1,0.2-0.1,0.3-0.1c0.1,0,0.2,0,0.3,0.1c0.1,0.1,0.1,0.2,0.1,0.3v5.8 c0,0.2,0,0.3-0.1,0.3c-0.1,0.1-0.2,0.1-0.3,0.1C143.5,56,143.4,55.9,143.3,55.9z M145.5,50.1c-0.1-0.1-0.2-0.2-0.2-0.4 s0.1-0.3,0.2-0.4s0.3-0.1,0.4-0.1c0.2,0,0.3,0,0.4,0.1s0.2,0.2,0.2,0.4s-0.1,0.3-0.2,0.4c-0.1,0.1-0.3,0.2-0.4,0.2 C145.7,50.3,145.6,50.2,145.5,50.1z M145.6,55.9c-0.1-0.1-0.1-0.2-0.1-0.3v-3.8c0-0.2,0-0.3,0.1-0.3s0.2-0.1,0.3-0.1 c0.1,0,0.2,0,0.3,0.1c0.1,0.1,0.1,0.2,0.1,0.3v3.8c0,0.2,0,0.3-0.1,0.3c-0.1,0.1-0.2,0.1-0.3,0.1C145.8,56,145.7,55.9,145.6,55.9z  M154.6,53.1v2.5c0,0.1,0,0.3-0.1,0.3c-0.1,0.1-0.2,0.1-0.4,0.1c-0.1,0-0.3,0-0.3-0.1c-0.1-0.1-0.1-0.2-0.1-0.3v-2.4 c0-0.4-0.1-0.7-0.2-0.8c-0.1-0.2-0.4-0.3-0.7-0.3c-0.3,0-0.6,0.1-0.8,0.4c-0.2,0.2-0.3,0.6-0.3,1v2.2c0,0.1,0,0.3-0.1,0.3 c-0.1,0.1-0.2,0.1-0.3,0.1c-0.1,0-0.3,0-0.3-0.1c-0.1-0.1-0.1-0.2-0.1-0.3v-2.4c0-0.4-0.1-0.7-0.2-0.8c-0.1-0.2-0.4-0.3-0.7-0.3 c-0.3,0-0.6,0.1-0.8,0.4s-0.3,0.6-0.3,1v2.2c0,0.1,0,0.3-0.1,0.3c-0.1,0.1-0.2,0.1-0.3,0.1c-0.1,0-0.3,0-0.3-0.1 c-0.1-0.1-0.1-0.2-0.1-0.3v-3.8c0-0.1,0-0.2,0.1-0.3c0.1-0.1,0.2-0.1,0.3-0.1s0.2,0,0.3,0.1c0.1,0.1,0.1,0.2,0.1,0.3V52 c0.1-0.3,0.3-0.5,0.6-0.6s0.5-0.2,0.9-0.2c0.4,0,0.6,0.1,0.9,0.2c0.2,0.1,0.4,0.4,0.5,0.7c0.1-0.3,0.3-0.5,0.6-0.6 c0.3-0.2,0.6-0.2,0.9-0.2C154,51.2,154.6,51.8,154.6,53.1z M155.9,50.1c-0.1-0.1-0.2-0.2-0.2-0.4s0.1-0.3,0.2-0.4 c0.1-0.1,0.3-0.1,0.4-0.1c0.2,0,0.3,0,0.4,0.1s0.2,0.2,0.2,0.4s-0.1,0.3-0.2,0.4c-0.1,0.1-0.3,0.2-0.4,0.2 C156.2,50.3,156,50.2,155.9,50.1z M156,55.9c-0.1-0.1-0.1-0.2-0.1-0.3v-3.8c0-0.2,0-0.3,0.1-0.3c0.1-0.1,0.2-0.1,0.3-0.1 c0.1,0,0.3,0,0.3,0.1s0.1,0.2,0.1,0.3v3.8c0,0.2,0,0.3-0.1,0.3c-0.1,0.1-0.2,0.1-0.3,0.1C156.2,56,156.1,55.9,156,55.9z M160.8,55.4 c0.1,0.1,0.1,0.1,0.1,0.3c0,0.1,0,0.2-0.1,0.3s-0.2,0.1-0.4,0.1l-0.3,0c-0.5,0-0.9-0.2-1.1-0.5c-0.3-0.3-0.4-0.7-0.4-1.2V52H158 c-0.3,0-0.4-0.1-0.4-0.4c0-0.1,0-0.2,0.1-0.3c0.1-0.1,0.2-0.1,0.3-0.1h0.6v-1c0-0.1,0-0.3,0.1-0.3c0.1-0.1,0.2-0.1,0.3-0.1 c0.1,0,0.3,0,0.3,0.1c0.1,0.1,0.1,0.2,0.1,0.3v1h0.9c0.1,0,0.2,0,0.3,0.1c0.1,0.1,0.1,0.2,0.1,0.3c0,0.1,0,0.2-0.1,0.3 c-0.1,0.1-0.2,0.1-0.3,0.1h-0.9v2.3c0,0.3,0.1,0.5,0.2,0.7s0.3,0.2,0.6,0.2l0.3,0C160.7,55.3,160.8,55.3,160.8,55.4z M302.1,24.3 c0.1,0.1,0.1,0.2,0.1,0.3v2.7c0,0.3,0,0.4-0.1,0.6s-0.2,0.2-0.4,0.3c-0.3,0.1-0.7,0.2-1.1,0.3s-0.8,0.1-1.2,0.1 c-0.8,0-1.5-0.2-2.1-0.5c-0.6-0.3-1-0.8-1.4-1.4s-0.5-1.4-0.5-2.2c0-0.8,0.2-1.6,0.5-2.2s0.8-1.1,1.3-1.4s1.3-0.5,2-0.5 c0.5,0,1,0.1,1.5,0.2c0.5,0.2,0.8,0.4,1.2,0.7c0.2,0.1,0.2,0.3,0.2,0.5c0,0.1,0,0.3-0.1,0.3c-0.1,0.1-0.2,0.1-0.3,0.1 c-0.1,0-0.1,0-0.2,0s-0.1-0.1-0.2-0.1c-0.4-0.3-0.7-0.5-1-0.6c-0.3-0.1-0.7-0.2-1-0.2c-0.9,0-1.5,0.3-2,0.8 c-0.5,0.5-0.7,1.3-0.7,2.3c0,1,0.2,1.8,0.7,2.4c0.5,0.5,1.2,0.8,2.1,0.8c0.6,0,1.2-0.1,1.8-0.3v-2.2h-1.5c-0.2,0-0.3,0-0.4-0.1 c-0.1-0.1-0.1-0.2-0.1-0.3s0-0.2,0.1-0.3c0.1-0.1,0.2-0.1,0.4-0.1h2.1C301.9,24.2,302.1,24.2,302.1,24.3z M310.4,28 c0,0.1-0.1,0.3-0.2,0.3c-0.1,0.1-0.2,0.1-0.4,0.1c-0.2,0-0.4-0.1-0.5-0.3l-1.5-2.4c-0.2-0.3-0.4-0.5-0.6-0.6 c-0.2-0.1-0.5-0.2-0.8-0.2h-1.3v2.8c0,0.2-0.1,0.3-0.2,0.4c-0.1,0.1-0.2,0.2-0.4,0.2c-0.2,0-0.3-0.1-0.4-0.2 c-0.1-0.1-0.2-0.2-0.2-0.4V21c0-0.2,0.1-0.3,0.2-0.4c0.1-0.1,0.2-0.2,0.4-0.2h2.8c0.9,0,1.6,0.2,2,0.6c0.5,0.4,0.7,1,0.7,1.7 c0,0.6-0.2,1.1-0.5,1.5c-0.4,0.4-0.9,0.6-1.5,0.7c0.2,0.1,0.4,0.1,0.5,0.3c0.2,0.1,0.3,0.3,0.5,0.6l1.2,1.8 C310.4,27.8,310.4,27.9,310.4,28z M307.3,24.2c0.6,0,1-0.1,1.3-0.3s0.4-0.6,0.4-1.1s-0.1-0.8-0.4-1.1c-0.3-0.2-0.7-0.3-1.3-0.3h-2.1 v2.8H307.3z M313.3,28c-0.6-0.3-1-0.8-1.3-1.4c-0.3-0.6-0.5-1.3-0.5-2.2c0-0.8,0.2-1.6,0.5-2.2s0.7-1.1,1.3-1.4s1.2-0.5,2-0.5 c0.8,0,1.4,0.2,2,0.5s1,0.8,1.3,1.4s0.4,1.3,0.4,2.2s-0.1,1.6-0.4,2.2s-0.7,1.1-1.3,1.4c-0.6,0.3-1.2,0.5-2,0.5 C314.6,28.5,313.9,28.4,313.3,28z M317.2,26.7c0.4-0.5,0.7-1.3,0.7-2.3c0-1-0.2-1.8-0.7-2.3s-1.1-0.8-1.9-0.8 c-0.8,0-1.4,0.3-1.9,0.8c-0.4,0.5-0.7,1.3-0.7,2.3c0,1,0.2,1.8,0.7,2.3c0.4,0.5,1.1,0.8,1.9,0.8C316.1,27.6,316.8,27.3,317.2,26.7z  M321.4,27.7c-0.6-0.6-0.8-1.4-0.8-2.5v-4.3c0-0.2,0.1-0.3,0.2-0.4c0.1-0.1,0.2-0.2,0.4-0.2c0.2,0,0.3,0.1,0.4,0.2 c0.1,0.1,0.2,0.3,0.2,0.4v4.4c0,0.7,0.2,1.3,0.5,1.7c0.4,0.4,0.9,0.6,1.6,0.6c0.7,0,1.2-0.2,1.6-0.6c0.4-0.4,0.5-0.9,0.5-1.7v-4.4 c0-0.2,0.1-0.3,0.2-0.4c0.1-0.1,0.2-0.2,0.4-0.2c0.2,0,0.3,0.1,0.4,0.2c0.1,0.1,0.2,0.3,0.2,0.4v4.3c0,1.1-0.3,1.9-0.8,2.4 c-0.6,0.6-1.4,0.8-2.4,0.8C322.8,28.5,322,28.2,321.4,27.7z M329.1,28.3c-0.1-0.1-0.2-0.2-0.2-0.4V21c0-0.2,0.1-0.3,0.2-0.4 c0.1-0.1,0.2-0.2,0.4-0.2h2.7c0.8,0,1.5,0.2,2,0.6c0.5,0.4,0.7,1,0.7,1.8c0,0.8-0.2,1.4-0.7,1.8c-0.5,0.4-1.1,0.6-2,0.6h-2.2v2.7 c0,0.2-0.1,0.3-0.2,0.4c-0.1,0.1-0.2,0.2-0.4,0.2C329.4,28.5,329.2,28.4,329.1,28.3z M333.8,22.8c0-1-0.6-1.5-1.7-1.5h-2v2.9h2 C333.3,24.3,333.8,23.8,333.8,22.8z M336.5,28.3c-0.1-0.1-0.2-0.2-0.2-0.4V21c0-0.2,0.1-0.3,0.2-0.4c0.1-0.1,0.2-0.2,0.4-0.2h4.2 c0.2,0,0.3,0,0.4,0.1c0.1,0.1,0.1,0.2,0.1,0.4s0,0.3-0.1,0.3c-0.1,0.1-0.2,0.1-0.4,0.1h-3.6v2.5h3.4c0.2,0,0.3,0,0.4,0.1 s0.1,0.2,0.1,0.4s0,0.3-0.1,0.4s-0.2,0.1-0.4,0.1h-3.4v2.7h3.6c0.4,0,0.5,0.2,0.5,0.5c0,0.2,0,0.3-0.1,0.4c-0.1,0.1-0.2,0.1-0.4,0.1 H337C336.8,28.4,336.6,28.4,336.5,28.3z M295.9,41.3c-0.1-0.1-0.2-0.2-0.2-0.4v-7c0-0.2,0.1-0.3,0.2-0.4c0.1-0.1,0.2-0.2,0.4-0.2 c0.2,0,0.3,0.1,0.4,0.2c0.1,0.1,0.2,0.3,0.2,0.4v7c0,0.2-0.1,0.3-0.2,0.4c-0.1,0.1-0.2,0.2-0.4,0.2C296.2,41.5,296,41.4,295.9,41.3z  M298.7,38.7c-0.1-0.1-0.1-0.2-0.1-0.3s0-0.3,0.1-0.3s0.2-0.1,0.4-0.1h2.4c0.2,0,0.3,0,0.4,0.1c0.1,0.1,0.1,0.2,0.1,0.3 s0,0.3-0.1,0.3c-0.1,0.1-0.2,0.1-0.4,0.1h-2.4C298.9,38.9,298.8,38.8,298.7,38.7z M311.2,33.5c0.1,0.1,0.2,0.3,0.2,0.4v7 c0,0.2,0,0.3-0.1,0.4c-0.1,0.1-0.2,0.1-0.4,0.1c-0.2,0-0.3,0-0.4-0.1c-0.1-0.1-0.1-0.2-0.1-0.4v-5.3l-2.2,4.3 c-0.1,0.3-0.3,0.4-0.6,0.4s-0.4-0.1-0.6-0.4l-2.2-4.2v5.3c0,0.2,0,0.3-0.1,0.4c-0.1,0.1-0.2,0.1-0.4,0.1c-0.2,0-0.3-0.1-0.4-0.2 c-0.1-0.1-0.1-0.2-0.1-0.4v-7c0-0.2,0.1-0.3,0.2-0.4c0.1-0.1,0.2-0.2,0.4-0.2c0.2,0,0.4,0.1,0.6,0.4l2.7,5.2l2.7-5.2 c0.1-0.3,0.3-0.4,0.6-0.4C311,33.3,311.1,33.4,311.2,33.5z M320.4,41c0,0.1-0.1,0.3-0.2,0.4c-0.1,0.1-0.2,0.1-0.4,0.1 c-0.1,0-0.2,0-0.3-0.1c-0.1-0.1-0.2-0.1-0.2-0.2l-0.8-1.7h-4.2l-0.8,1.7c0,0.1-0.1,0.2-0.2,0.2c-0.1,0.1-0.2,0.1-0.3,0.1 c-0.2,0-0.3,0-0.4-0.1c-0.1-0.1-0.2-0.2-0.2-0.4c0-0.1,0-0.1,0.1-0.2l3.2-7c0.1-0.1,0.1-0.2,0.3-0.3c0.1-0.1,0.2-0.1,0.4-0.1 s0.3,0,0.4,0.1s0.2,0.2,0.3,0.3l3.2,7C320.4,40.8,320.4,40.9,320.4,41z M314.9,38.5h3.3l-1.7-3.8L314.9,38.5z M327.8,37.3 c0.1,0.1,0.1,0.2,0.1,0.3v2.7c0,0.3,0,0.4-0.1,0.6s-0.2,0.2-0.4,0.3c-0.3,0.1-0.7,0.2-1.1,0.3s-0.8,0.1-1.2,0.1 c-0.8,0-1.5-0.2-2.1-0.5c-0.6-0.3-1-0.8-1.4-1.4s-0.5-1.4-0.5-2.2c0-0.8,0.2-1.6,0.5-2.2s0.8-1.1,1.3-1.4s1.3-0.5,2-0.5 c0.5,0,1,0.1,1.5,0.2c0.5,0.2,0.8,0.4,1.2,0.7c0.2,0.1,0.2,0.3,0.2,0.5c0,0.1,0,0.3-0.1,0.3c-0.1,0.1-0.2,0.1-0.3,0.1 c-0.1,0-0.1,0-0.2,0s-0.1-0.1-0.2-0.1c-0.4-0.3-0.7-0.5-1-0.6c-0.3-0.1-0.7-0.2-1-0.2c-0.9,0-1.5,0.3-2,0.8 c-0.5,0.5-0.7,1.3-0.7,2.3c0,1,0.2,1.8,0.7,2.4c0.5,0.5,1.2,0.8,2.1,0.8c0.6,0,1.2-0.1,1.8-0.3v-2.2h-1.5c-0.2,0-0.3,0-0.4-0.1 c-0.1-0.1-0.1-0.2-0.1-0.3s0-0.2,0.1-0.3c0.1-0.1,0.2-0.1,0.4-0.1h2.1C327.6,37.2,327.7,37.2,327.8,37.3z M329.8,41.3 c-0.1-0.1-0.2-0.2-0.2-0.4v-7c0-0.2,0.1-0.3,0.2-0.4c0.1-0.1,0.2-0.2,0.4-0.2c0.2,0,0.3,0.1,0.4,0.2c0.1,0.1,0.2,0.3,0.2,0.4v7 c0,0.2-0.1,0.3-0.2,0.4c-0.1,0.1-0.2,0.2-0.4,0.2C330.1,41.5,329.9,41.4,329.8,41.3z M339.2,33.5c0.1,0.1,0.2,0.3,0.2,0.4v7 c0,0.2-0.1,0.3-0.2,0.4c-0.1,0.1-0.2,0.2-0.4,0.2c-0.2,0-0.3-0.1-0.5-0.2l-4.5-5.9v5.5c0,0.2-0.1,0.3-0.2,0.4 c-0.1,0.1-0.2,0.2-0.4,0.2c-0.2,0-0.3-0.1-0.4-0.2c-0.1-0.1-0.1-0.2-0.1-0.4v-7c0-0.2,0.1-0.3,0.2-0.4c0.1-0.1,0.2-0.2,0.4-0.2 c0.2,0,0.3,0.1,0.5,0.2l4.5,5.9v-5.5c0-0.2,0-0.3,0.1-0.4c0.1-0.1,0.2-0.2,0.4-0.2C338.9,33.3,339.1,33.4,339.2,33.5z M341.3,41.3 c-0.1-0.1-0.2-0.2-0.2-0.4V34c0-0.2,0.1-0.3,0.2-0.4c0.1-0.1,0.2-0.2,0.4-0.2h4.2c0.2,0,0.3,0,0.4,0.1c0.1,0.1,0.1,0.2,0.1,0.4 s0,0.3-0.1,0.3c-0.1,0.1-0.2,0.1-0.4,0.1h-3.6v2.5h3.4c0.2,0,0.3,0,0.4,0.1s0.1,0.2,0.1,0.4s0,0.3-0.1,0.4s-0.2,0.1-0.4,0.1h-3.4 v2.7h3.6c0.4,0,0.5,0.2,0.5,0.5c0,0.2,0,0.3-0.1,0.4c-0.1,0.1-0.2,0.1-0.4,0.1h-4.2C341.6,41.4,341.5,41.4,341.3,41.3z M354.2,41 c0,0.1-0.1,0.3-0.2,0.3c-0.1,0.1-0.2,0.1-0.4,0.1c-0.2,0-0.4-0.1-0.5-0.3l-1.5-2.4c-0.2-0.3-0.4-0.5-0.6-0.6s-0.5-0.2-0.8-0.2H349 v2.8c0,0.2-0.1,0.3-0.2,0.4c-0.1,0.1-0.2,0.2-0.4,0.2c-0.2,0-0.3-0.1-0.4-0.2c-0.1-0.1-0.2-0.2-0.2-0.4V34c0-0.2,0.1-0.3,0.2-0.4 c0.1-0.1,0.2-0.2,0.4-0.2h2.8c0.9,0,1.6,0.2,2,0.6c0.5,0.4,0.7,1,0.7,1.7c0,0.6-0.2,1.1-0.5,1.5c-0.4,0.4-0.9,0.6-1.5,0.7 c0.2,0.1,0.4,0.1,0.5,0.3s0.3,0.3,0.5,0.6l1.2,1.8C354.2,40.8,354.2,40.9,354.2,41z M351.1,37.2c0.6,0,1-0.1,1.3-0.3 c0.3-0.2,0.4-0.6,0.4-1.1s-0.1-0.8-0.4-1.1c-0.3-0.2-0.7-0.3-1.3-0.3H349v2.8H351.1z M68.4,10.8c-0.6-0.6-0.8-1.3-0.8-2.2 s0.3-1.6,0.8-2.2c0.6-0.6,1.3-0.9,2.2-0.9c0.9,0,1.7,0.3,2.2,0.9c0.6,0.6,0.8,1.3,0.8,2.2c0,0.9-0.3,1.6-0.9,2.2 c-0.6,0.6-1.3,0.9-2.2,0.9C69.7,11.6,69,11.4,68.4,10.8z M68.3,36.8c-0.1-0.1-0.2-0.2-0.2-0.4V15.2c0-0.1,0.1-0.3,0.2-0.4 c0.1-0.1,0.2-0.2,0.4-0.2h4c0.1,0,0.3,0.1,0.4,0.2s0.2,0.2,0.2,0.4v21.3c0,0.1-0.1,0.3-0.2,0.4c-0.1,0.1-0.2,0.2-0.4,0.2h-4 C68.5,37,68.4,36.9,68.3,36.8z M77.3,25.9c-0.1-0.1-0.2-0.2-0.2-0.4v-3.3c0-0.1,0.1-0.3,0.2-0.4c0.1-0.1,0.2-0.2,0.4-0.2h8.8 c0.1,0,0.3,0.1,0.4,0.2c0.1,0.1,0.2,0.2,0.2,0.4v3.3c0,0.1-0.1,0.3-0.2,0.4C86.7,26,86.6,26,86.5,26h-8.8C77.5,26,77.4,26,77.3,25.9 z M117,16.4c1.1,1.3,1.7,3.2,1.7,5.6v14.5c0,0.1-0.1,0.3-0.2,0.4c-0.1,0.1-0.2,0.2-0.4,0.2h-4c-0.1,0-0.3-0.1-0.4-0.2 c-0.1-0.1-0.2-0.2-0.2-0.4V22.6c0-1.2-0.3-2.2-0.9-2.9c-0.6-0.7-1.4-1-2.3-1c-1,0-1.8,0.3-2.4,1c-0.6,0.7-0.9,1.6-0.9,2.8v13.9 c0,0.1-0.1,0.3-0.2,0.4c-0.1,0.1-0.2,0.2-0.4,0.2h-4c-0.1,0-0.3-0.1-0.4-0.2c-0.1-0.1-0.2-0.2-0.2-0.4V22.6c0-1.2-0.3-2.2-0.9-2.9 c-0.6-0.7-1.4-1-2.3-1c-1,0-1.8,0.3-2.4,1c-0.6,0.7-0.9,1.6-0.9,2.8v13.9c0,0.1-0.1,0.3-0.2,0.4c-0.1,0.1-0.2,0.2-0.4,0.2h-4 c-0.1,0-0.3-0.1-0.4-0.2c-0.1-0.1-0.2-0.2-0.2-0.4V15.2c0-0.1,0-0.3,0.2-0.4c0.1-0.1,0.2-0.2,0.4-0.2h4c0.1,0,0.3,0.1,0.4,0.2 c0.1,0.1,0.2,0.2,0.2,0.4v1.1c0,0.1,0,0.1,0.1,0.2c0.1,0,0.1,0,0.2-0.1c1.2-1.4,2.8-2.1,4.8-2.1c1.3,0,2.4,0.3,3.3,0.8 c0.9,0.5,1.7,1.3,2.2,2.3c0.1,0.1,0.1,0.1,0.2,0.1c0.1,0,0.1-0.1,0.1-0.2c0.7-1,1.5-1.8,2.5-2.3c1-0.5,2.1-0.7,3.2-0.7 C114.3,14.4,115.9,15,117,16.4z M135.6,15.3c1.3,0.6,2.3,1.5,3,2.6s1.1,2.4,1.1,3.8v14.8c0,0.1-0.1,0.3-0.2,0.4 c-0.1,0.1-0.2,0.2-0.4,0.2h-4c-0.1,0-0.3-0.1-0.4-0.2c-0.1-0.1-0.2-0.2-0.2-0.4v-1.1c0-0.1,0-0.1-0.1-0.2c-0.1,0-0.1,0-0.2,0 c-1.2,1.4-3,2.1-5.3,2.1c-1.9,0-3.5-0.5-4.9-1.5c-1.3-1-2-2.7-2-5c0-2.4,0.8-4.3,2.3-5.5c1.6-1.2,3.7-1.8,6.4-1.8h3.4 c0.1,0,0.2-0.1,0.2-0.2v-1.1c0-1.1-0.3-1.9-0.9-2.6c-0.6-0.6-1.4-0.9-2.5-0.9c-0.8,0-1.5,0.2-2.1,0.6c-0.5,0.4-0.9,0.9-1,1.6 c-0.1,0.3-0.3,0.5-0.6,0.5l-4.2-0.3c-0.1,0-0.3-0.1-0.4-0.2c-0.1-0.1-0.1-0.2-0.1-0.3c0.2-1.9,1-3.4,2.6-4.5 c1.6-1.2,3.5-1.7,5.8-1.7C132.9,14.4,134.3,14.7,135.6,15.3z M133.4,32.3c0.8-0.7,1.3-1.5,1.3-2.6v-2.3c0-0.1-0.1-0.2-0.2-0.2h-2.9 c-1.3,0-2.3,0.3-3,0.8c-0.7,0.6-1.1,1.4-1.1,2.4c0,0.9,0.3,1.6,0.8,2.1c0.6,0.5,1.3,0.7,2.2,0.7C131.5,33.2,132.5,32.9,133.4,32.3z  M156,14.9c0.1-0.1,0.2-0.2,0.4-0.2h4c0.1,0,0.3,0.1,0.4,0.2c0.1,0.1,0.2,0.2,0.2,0.4v20.6c0,3.4-0.9,5.9-2.7,7.5 c-1.8,1.6-4.5,2.5-7.9,2.5c-0.4,0-1,0-1.9-0.1c-0.3,0-0.5-0.2-0.5-0.6l0.1-3.5c0-0.3,0.2-0.5,0.6-0.5c0.3,0,0.7,0,1.3,0 c2.2,0,3.7-0.5,4.7-1.4c0.9-0.9,1.4-2.4,1.4-4.4v-0.4c0-0.1,0-0.1-0.1-0.2c-0.1,0-0.1,0-0.2,0.1c-1.1,1.3-2.6,1.9-4.6,1.9 c-1.9,0-3.5-0.6-4.8-1.7c-1.3-1.1-2.1-2.7-2.4-4.8c-0.2-0.9-0.3-2.4-0.3-4.7c0-2.4,0.1-4.1,0.3-5c0.3-2,1-3.5,2.3-4.7 c1.2-1.2,2.8-1.7,4.7-1.7c2,0,3.6,0.7,4.8,2c0.1,0.1,0.1,0.1,0.2,0.1c0.1,0,0.1-0.1,0.1-0.2v-1C155.9,15.1,155.9,15,156,14.9z  M155.9,25.8c0-1.7-0.1-3-0.2-3.9c-0.1-0.9-0.5-1.7-1.1-2.3c-0.6-0.6-1.4-0.9-2.3-0.9c-0.9,0-1.7,0.3-2.3,0.9s-1,1.3-1.1,2.3 c-0.2,1.1-0.3,2.4-0.3,3.9c0,1.4,0.1,2.7,0.2,3.8c0.1,0.9,0.5,1.7,1.2,2.3c0.6,0.6,1.4,0.9,2.4,0.9c1,0,1.7-0.3,2.3-0.9 c0.6-0.6,1-1.3,1.1-2.3C155.8,28.5,155.9,27.2,155.9,25.8z M166,10.8c-0.6-0.6-0.8-1.3-0.8-2.2s0.3-1.6,0.8-2.2 c0.6-0.6,1.3-0.9,2.2-0.9c0.9,0,1.7,0.3,2.2,0.9c0.6,0.6,0.8,1.3,0.8,2.2c0,0.9-0.3,1.6-0.9,2.2c-0.6,0.6-1.3,0.9-2.2,0.9 C167.3,11.6,166.6,11.4,166,10.8z M165.9,36.8c-0.1-0.1-0.2-0.2-0.2-0.4V15.2c0-0.1,0.1-0.3,0.2-0.4c0.1-0.1,0.2-0.2,0.4-0.2h4 c0.1,0,0.3,0.1,0.4,0.2c0.1,0.1,0.2,0.2,0.2,0.4v21.3c0,0.1-0.1,0.3-0.2,0.4c-0.1,0.1-0.2,0.2-0.4,0.2h-4 C166.1,37,166,36.9,165.9,36.8z M190.8,16.4c1.2,1.3,1.8,3.2,1.8,5.5v14.6c0,0.1-0.1,0.3-0.2,0.4c-0.1,0.1-0.2,0.2-0.4,0.2h-4 c-0.1,0-0.3-0.1-0.4-0.2c-0.1-0.1-0.2-0.2-0.2-0.4V22.6c0-1.2-0.3-2.1-0.9-2.8c-0.6-0.7-1.4-1-2.4-1c-1,0-1.9,0.4-2.5,1.1 c-0.6,0.7-0.9,1.7-0.9,2.9v13.8c0,0.1-0.1,0.3-0.2,0.4c-0.1,0.1-0.2,0.2-0.4,0.2h-4c-0.1,0-0.3-0.1-0.4-0.2 c-0.1-0.1-0.2-0.2-0.2-0.4V15.2c0-0.1,0-0.3,0.2-0.4c0.1-0.1,0.2-0.2,0.4-0.2h4c0.1,0,0.3,0.1,0.4,0.2c0.1,0.1,0.2,0.2,0.2,0.4v1.1 c0,0.1,0,0.1,0.1,0.2c0.1,0,0.1,0,0.2-0.1c1.2-1.4,2.8-2.1,4.8-2.1C188,14.4,189.7,15,190.8,16.4z M214.2,25.4l0,1.9 c0,0.3-0.2,0.5-0.5,0.5h-11.7c-0.1,0-0.2,0.1-0.2,0.2c0.1,0.8,0.1,1.4,0.2,1.8c0.1,1,0.6,1.7,1.2,2.3c0.7,0.6,1.5,0.9,2.5,0.9 c0.9,0,1.6-0.2,2.2-0.7c0.6-0.4,1.1-1,1.4-1.7c0.1-0.3,0.4-0.4,0.7-0.3l3.6,0.7c0.3,0.1,0.5,0.3,0.3,0.7c-0.6,1.8-1.6,3.2-3,4.2 c-1.4,1-3.1,1.5-5.2,1.5c-2.4,0-4.3-0.6-5.8-1.7s-2.4-2.8-2.8-4.8c-0.1-0.8-0.2-1.6-0.3-2.5s-0.1-2-0.1-3.5c0-1.5,0.1-2.7,0.2-3.4 c0.3-2.1,1.2-3.8,2.7-5.1c1.5-1.3,3.4-1.9,5.8-1.9c2.5,0,4.6,0.7,6.1,2.1c1.6,1.4,2.4,3.3,2.6,5.6C214.1,23.1,214.2,24.2,214.2,25.4 z M203,19.6c-0.6,0.6-1,1.3-1.2,2.3c-0.1,0.6-0.1,1.4-0.1,2.2c0,0.1,0.1,0.2,0.2,0.2h6.9c0.1,0,0.2-0.1,0.2-0.2 c-0.1-1-0.1-1.7-0.2-2.1c-0.1-1-0.5-1.7-1.1-2.3c-0.6-0.6-1.4-0.9-2.4-0.9S203.6,19,203,19.6z M221.3,36.8c-0.1-0.1-0.1-0.3,0-0.5 l7.2-14.5c0-0.1,0-0.2,0-0.3l-7.2-14.5c-0.1-0.1-0.1-0.2-0.1-0.3c0-0.2,0.2-0.3,0.5-0.3h5.4c0.3,0,0.5,0.1,0.6,0.4l4.3,9.2 c0.1,0.2,0.2,0.2,0.3,0l4.3-9.2c0.1-0.3,0.3-0.4,0.6-0.4h5.4c0.2,0,0.3,0.1,0.4,0.2c0.1,0.1,0.1,0.3,0,0.5l-7.2,14.5 c0,0.1,0,0.2,0,0.3l7.2,14.5c0.1,0.1,0.1,0.2,0.1,0.3c0,0.2-0.2,0.3-0.5,0.3h-5.3c-0.3,0-0.5-0.1-0.6-0.4l-4.3-9.2 c-0.1-0.2-0.2-0.2-0.3,0l-4.3,9.2c-0.1,0.3-0.3,0.4-0.6,0.4h-5.4C221.5,37,221.3,36.9,221.3,36.8z M260.2,36.6l-4.4-12 c-0.1-0.1-0.1-0.2-0.2-0.2h-2.7c-0.1,0-0.2,0.1-0.2,0.2v11.9c0,0.1-0.1,0.3-0.2,0.4c-0.1,0.1-0.2,0.2-0.4,0.2H247 c-0.1,0-0.3-0.1-0.4-0.2c-0.1-0.1-0.2-0.2-0.2-0.4V7c0-0.1,0.1-0.3,0.2-0.4c0.1-0.1,0.2-0.2,0.4-0.2h10.6c1.7,0,3.2,0.4,4.6,1.2 c1.3,0.8,2.4,1.9,3.1,3.3s1.1,3,1.1,4.8c0,1.9-0.4,3.5-1.2,4.8c-0.8,1.4-2,2.4-3.4,3.1c-0.1,0.1-0.2,0.2-0.1,0.3l5,12.5 c0,0.1,0,0.1,0,0.2c0,0.3-0.2,0.4-0.5,0.4h-5.3C260.5,37,260.3,36.8,260.2,36.6z M252.6,12v7.5c0,0.1,0.1,0.2,0.2,0.2h3.8 c1.1,0,1.9-0.4,2.6-1.1c0.7-0.7,1-1.7,1-2.9c0-1.2-0.3-2.2-1-2.9c-0.7-0.7-1.5-1.1-2.6-1.1h-3.8C252.7,11.7,252.6,11.8,252.6,12z  M281.1,61.5V0.3c0-0.2-0.2-0.3-0.3-0.3s-0.3,0.2-0.3,0.3v61.1c0,0.2,0.2,0.3,0.3,0.3S281.1,61.7,281.1,61.5z"></path></svg>