<svg xmlns="http://www.w3.org/2000/svg" id="Logos" viewBox="0 0 151.77 30.54"><path d="m34.52,27.73s-.06-.1-.06-.17v-2.89c0-.07.02-.13.07-.18.04-.05.1-.07.17-.07s.14.02.18.07c.04.04.07.1.07.18v2.71h1.44c.07,0,.13.02.17.05.04.04.06.09.06.15s-.02.12-.06.15c-.04.04-.1.05-.17.05h-1.69c-.07,0-.13-.02-.17-.06Z" style="fill:#305296; stroke-width:0px;"></path><path d="m38.64,25.65c.15.15.22.39.22.71v1.22c0,.07-.02.13-.06.17-.04.04-.1.06-.17.06s-.12-.02-.17-.06c-.04-.04-.06-.1-.06-.17v-.17c-.06.13-.15.23-.27.31s-.26.11-.41.11-.29-.03-.41-.09c-.12-.06-.22-.15-.3-.25-.07-.11-.11-.23-.11-.36,0-.17.04-.3.13-.4s.23-.17.43-.21c.2-.04.47-.06.83-.06h.11v-.14c0-.18-.04-.3-.11-.38-.07-.08-.19-.12-.35-.12-.11,0-.21.01-.31.04-.1.03-.21.07-.32.12-.09.05-.15.07-.18.07-.05,0-.09-.02-.12-.05-.03-.03-.04-.08-.04-.13,0-.05.01-.09.04-.13.03-.04.07-.07.13-.11.11-.06.24-.11.39-.14.15-.04.29-.05.43-.05.31,0,.53.08.68.23Zm-.4,1.63c.11-.12.17-.27.17-.46v-.12h-.09c-.25,0-.44.01-.57.03-.13.02-.23.06-.28.11-.06.05-.08.13-.08.22,0,.11.04.21.12.28.08.07.18.11.31.11.17,0,.31-.06.43-.18Z" style="fill:#305296; stroke-width:0px;"></path><path d="m42.2,25.63c0,.07-.02.12-.05.16s-.09.06-.18.06h-.14c-.2.03-.35.1-.44.22s-.14.26-.14.44v1.08c0,.08-.02.13-.07.17-.04.04-.1.06-.17.06s-.13-.02-.17-.06c-.05-.04-.07-.09-.07-.17v-1.92c0-.07.02-.13.07-.17.05-.04.1-.06.17-.06.06,0,.12.02.16.06.04.04.06.09.06.16v.23c.06-.14.15-.24.27-.32.12-.07.26-.12.41-.13h.07c.15-.01.23.05.23.19Z" style="fill:#305296; stroke-width:0px;"></path><path d="m44.36,27.26s.04.08.04.13c0,.09-.06.17-.17.23-.11.06-.23.11-.36.15s-.26.05-.38.05c-.37,0-.65-.11-.87-.32-.21-.21-.32-.5-.32-.87,0-.24.05-.45.14-.63.09-.18.22-.32.39-.43.17-.1.36-.15.57-.15.31,0,.55.1.73.3s.27.47.27.8c0,.13-.06.19-.17.19h-1.46c.03.49.27.73.71.73.12,0,.22-.02.3-.05.08-.03.17-.07.27-.12,0,0,.04-.02.08-.04.04-.02.08-.03.11-.03.04,0,.08.02.11.05Zm-1.37-1.31c-.11.12-.18.28-.2.49h1.22c0-.21-.06-.38-.16-.49-.1-.12-.24-.17-.42-.17s-.33.06-.44.18Zm.44-.75s-.07-.01-.09-.04c-.03-.03-.04-.06-.04-.09,0-.03.01-.06.03-.09l.51-.67c.06-.08.14-.13.22-.13.06,0,.11.02.15.06s.06.09.06.15c0,.07-.04.14-.11.2l-.64.56s-.06.03-.09.03Z" style="fill:#305296; stroke-width:0px;"></path><path d="m46.6,25.65c.15.15.22.39.22.71v1.22c0,.07-.02.13-.06.17-.04.04-.1.06-.17.06s-.12-.02-.17-.06c-.04-.04-.06-.1-.06-.17v-.17c-.06.13-.15.23-.27.31s-.26.11-.41.11-.29-.03-.41-.09c-.12-.06-.22-.15-.3-.25-.07-.11-.11-.23-.11-.36,0-.17.04-.3.13-.4s.23-.17.43-.21c.2-.04.47-.06.83-.06h.11v-.14c0-.18-.04-.3-.11-.38-.07-.08-.19-.12-.35-.12-.11,0-.21.01-.31.04-.1.03-.21.07-.32.12-.09.05-.15.07-.18.07-.05,0-.09-.02-.12-.05-.03-.03-.04-.08-.04-.13,0-.05.01-.09.04-.13.03-.04.07-.07.13-.11.11-.06.24-.11.39-.14.15-.04.29-.05.43-.05.31,0,.53.08.68.23Zm-.4,1.63c.11-.12.17-.27.17-.46v-.12h-.09c-.25,0-.44.01-.57.03-.13.02-.23.06-.28.11-.06.05-.08.13-.08.22,0,.11.04.21.12.28.08.07.18.11.31.11.17,0,.31-.06.43-.18Z" style="fill:#305296; stroke-width:0px;"></path><path d="m47.55,27.75s-.07-.09-.07-.17v-2.92c0-.08.02-.13.07-.17.05-.04.1-.06.17-.06s.13.02.17.06c.04.04.07.1.07.17v2.92c0,.08-.02.13-.07.17-.04.04-.1.06-.17.06s-.13-.02-.17-.06Z" style="fill:#305296; stroke-width:0px;"></path><path d="m48.65,24.89c-.05-.05-.08-.12-.08-.2s.03-.15.08-.2c.05-.05.13-.07.22-.07s.16.02.22.07.08.11.08.2-.03.15-.08.2c-.05.05-.13.08-.22.08s-.16-.03-.22-.08Zm.04,2.86s-.07-.09-.07-.17v-1.92c0-.08.02-.13.07-.17.05-.04.1-.06.17-.06s.13.02.17.06c.04.04.07.1.07.17v1.92c0,.08-.02.13-.07.17-.04.04-.1.06-.17.06s-.13-.02-.17-.06Z" style="fill:#305296; stroke-width:0px;"></path><path d="m51.11,27.5s.04.07.04.13c0,.06-.02.11-.07.14s-.12.05-.21.04h-.13c-.26-.03-.45-.11-.57-.24-.13-.14-.19-.34-.19-.61v-1.11h-.28c-.14,0-.21-.06-.21-.18,0-.06.02-.1.05-.14.04-.03.09-.05.15-.05h.28v-.49c0-.07.02-.13.06-.17s.1-.06.17-.06.13.02.17.06c.04.04.07.1.07.17v.49h.47c.07,0,.12.02.15.05.04.03.05.08.05.14s-.02.11-.05.14c-.04.03-.09.05-.15.05h-.47v1.15c0,.15.03.26.09.33s.16.11.28.12h.13c.07.02.12.03.15.06Z" style="fill:#305296; stroke-width:0px;"></path><path d="m53.42,27.26s.04.08.04.13c0,.09-.06.17-.17.23-.11.06-.23.11-.36.15s-.26.05-.38.05c-.37,0-.65-.11-.87-.32-.21-.21-.32-.5-.32-.87,0-.24.05-.45.14-.63.09-.18.22-.32.39-.43.17-.1.36-.15.57-.15.31,0,.55.1.73.3s.27.47.27.8c0,.13-.06.19-.17.19h-1.46c.03.49.27.73.71.73.12,0,.22-.02.3-.05.08-.03.17-.07.27-.12,0,0,.04-.02.08-.04.04-.02.08-.03.11-.03.04,0,.08.02.11.05Zm-1.37-1.31c-.11.12-.18.28-.2.49h1.22c0-.21-.06-.38-.16-.49-.1-.12-.24-.17-.42-.17s-.33.06-.44.18Zm.44-.75s-.07-.01-.09-.04c-.03-.03-.04-.06-.04-.09,0-.03.01-.06.03-.09l.51-.67c.06-.08.14-.13.22-.13.06,0,.11.02.15.06s.06.09.06.15c0,.07-.04.14-.11.2l-.64.56s-.06.03-.09.03Z" style="fill:#305296; stroke-width:0px;"></path><path d="m56.98,25.47s.07-.03.12-.03c.06,0,.11.02.16.06.05.04.07.09.07.15,0,.03,0,.06-.02.09l-.9,1.92c-.02.05-.06.09-.1.12-.05.03-.09.04-.14.04s-.1-.01-.14-.04c-.05-.03-.08-.07-.1-.12l-.9-1.92s-.02-.06-.02-.09c0-.06.03-.11.08-.15.05-.04.11-.06.17-.06.09,0,.16.04.2.13l.73,1.63.73-1.62s.05-.08.08-.1Z" style="fill:#305296; stroke-width:0px;"></path><path d="m57.81,24.89c-.05-.05-.08-.12-.08-.2s.03-.15.08-.2c.05-.05.13-.07.22-.07s.16.02.22.07.08.11.08.2-.03.15-.08.2c-.05.05-.13.08-.22.08s-.16-.03-.22-.08Zm.04,2.86s-.07-.09-.07-.17v-1.92c0-.08.02-.13.07-.17.05-.04.1-.06.17-.06s.13.02.17.06c.04.04.07.1.07.17v1.92c0,.08-.02.13-.07.17-.04.04-.1.06-.17.06s-.13-.02-.17-.06Z" style="fill:#305296; stroke-width:0px;"></path><path d="m60.36,25.63c0,.07-.02.12-.05.16s-.09.06-.18.06h-.14c-.2.03-.35.1-.44.22s-.14.26-.14.44v1.08c0,.08-.02.13-.07.17-.04.04-.1.06-.17.06s-.13-.02-.17-.06c-.05-.04-.07-.09-.07-.17v-1.92c0-.07.02-.13.07-.17.05-.04.1-.06.17-.06.06,0,.12.02.16.06.04.04.06.09.06.16v.23c.06-.14.15-.24.27-.32.12-.07.26-.12.41-.13h.07c.15-.01.23.05.23.19Z" style="fill:#305296; stroke-width:0px;"></path><path d="m62.14,27.5s.04.07.04.13c0,.06-.02.11-.07.14s-.12.05-.21.04h-.13c-.26-.03-.45-.11-.57-.24-.13-.14-.19-.34-.19-.61v-1.11h-.28c-.14,0-.21-.06-.21-.18,0-.06.02-.1.05-.14.04-.03.09-.05.15-.05h.28v-.49c0-.07.02-.13.06-.17s.1-.06.17-.06.13.02.17.06c.04.04.07.1.07.17v.49h.47c.07,0,.12.02.15.05.04.03.05.08.05.14s-.02.11-.05.14c-.04.03-.09.05-.15.05h-.47v1.15c0,.15.03.26.09.33s.16.11.28.12h.13c.07.02.12.03.15.06Z" style="fill:#305296; stroke-width:0px;"></path><path d="m64.49,25.49s.06.1.06.17v1.92c0,.07-.02.12-.07.16-.04.04-.1.06-.18.06-.07,0-.12-.02-.16-.06-.04-.04-.06-.09-.06-.16v-.18c-.07.13-.17.23-.3.3-.13.07-.27.1-.43.1-.56,0-.84-.31-.84-.93v-1.23c0-.07.02-.13.06-.17.04-.04.1-.06.18-.06s.13.02.17.06c.04.04.06.1.06.17v1.22c0,.19.04.32.11.41.08.09.19.13.35.13.19,0,.34-.06.45-.18.11-.12.17-.28.17-.48v-1.11c0-.07.02-.13.07-.17.04-.04.1-.06.18-.06s.13.02.17.06Z" style="fill:#305296; stroke-width:0px;"></path><path d="m67.13,27.26s.04.08.04.13c0,.09-.06.17-.17.23-.11.06-.23.11-.36.15s-.26.05-.38.05c-.37,0-.65-.11-.87-.32-.21-.21-.32-.5-.32-.87,0-.24.05-.45.14-.63.09-.18.22-.32.39-.43.17-.1.36-.15.57-.15.31,0,.55.1.73.3s.27.47.27.8c0,.13-.06.19-.17.19h-1.46c.03.49.27.73.71.73.12,0,.22-.02.3-.05.08-.03.17-.07.27-.12,0,0,.04-.02.08-.04.04-.02.08-.03.11-.03.04,0,.08.02.11.05Zm-1.37-1.31c-.11.12-.18.28-.2.49h1.22c0-.21-.06-.38-.16-.49-.1-.12-.24-.17-.42-.17s-.33.06-.44.18Z" style="fill:#305296; stroke-width:0px;"></path><path d="m67.79,27.75s-.07-.09-.07-.17v-2.92c0-.08.02-.13.07-.17.05-.04.1-.06.17-.06s.13.02.17.06c.04.04.07.1.07.17v2.92c0,.08-.02.13-.07.17-.04.04-.1.06-.17.06s-.13-.02-.17-.06Z" style="fill:#305296; stroke-width:0px;"></path><path d="m68.93,27.75s-.07-.09-.07-.17v-2.92c0-.08.02-.13.07-.17.05-.04.1-.06.17-.06s.13.02.17.06c.04.04.07.1.07.17v2.92c0,.08-.02.13-.07.17-.04.04-.1.06-.17.06s-.13-.02-.17-.06Z" style="fill:#305296; stroke-width:0px;"></path><path d="m71.92,27.26s.04.08.04.13c0,.09-.06.17-.17.23-.11.06-.23.11-.36.15s-.26.05-.38.05c-.37,0-.65-.11-.87-.32-.21-.21-.32-.5-.32-.87,0-.24.05-.45.14-.63.09-.18.22-.32.39-.43.17-.1.36-.15.57-.15.31,0,.55.1.73.3s.27.47.27.8c0,.13-.06.19-.17.19h-1.46c.03.49.27.73.71.73.12,0,.22-.02.3-.05.08-.03.17-.07.27-.12,0,0,.04-.02.08-.04.04-.02.08-.03.11-.03.04,0,.08.02.11.05Zm-1.37-1.31c-.11.12-.18.28-.2.49h1.22c0-.21-.06-.38-.16-.49-.1-.12-.24-.17-.42-.17s-.33.06-.44.18Z" style="fill:#305296; stroke-width:0px;"></path><path d="m75.53,25.57c.16.1.28.24.36.43.09.18.13.39.13.63s-.04.44-.13.62c-.09.18-.21.32-.36.42-.16.1-.34.15-.54.15-.17,0-.33-.04-.46-.11-.13-.07-.23-.18-.3-.32v1.05c0,.07-.02.12-.06.16s-.1.06-.17.06c-.07,0-.13-.02-.18-.06-.05-.04-.07-.1-.07-.17v-2.77c0-.07.02-.13.07-.17.04-.04.1-.06.17-.06s.13.02.17.06c.04.04.07.1.07.17v.19c.07-.14.17-.25.3-.32.13-.08.29-.11.46-.11.2,0,.38.05.53.15Zm-.16,1.66c.11-.14.17-.34.17-.6s-.06-.46-.17-.61-.28-.22-.48-.22-.37.07-.48.21c-.11.14-.17.34-.17.61s.06.46.17.61c.11.14.27.21.48.21s.37-.07.48-.21Z" style="fill:#305296; stroke-width:0px;"></path><path d="m76.96,27.67c-.17-.1-.3-.24-.4-.42-.09-.18-.14-.39-.14-.63s.05-.45.14-.64c.09-.18.23-.32.4-.42s.37-.15.6-.15.43.05.6.15.3.24.4.42c.09.18.14.39.14.64s-.05.45-.14.63c-.09.18-.23.32-.4.42-.17.1-.37.15-.6.15s-.43-.05-.6-.15Zm1.08-.44c.11-.14.17-.34.17-.61s-.06-.47-.17-.61c-.11-.14-.27-.21-.48-.21s-.37.07-.48.21c-.11.14-.17.34-.17.61s.06.47.17.61.27.21.48.21.37-.07.48-.21Z" style="fill:#305296; stroke-width:0px;"></path><path d="m81.18,25.49s.06.1.06.17v1.92c0,.07-.02.12-.07.16-.04.04-.1.06-.18.06-.07,0-.12-.02-.16-.06-.04-.04-.06-.09-.06-.16v-.18c-.07.13-.17.23-.3.3-.13.07-.27.1-.43.1-.56,0-.84-.31-.84-.93v-1.23c0-.07.02-.13.06-.17.04-.04.1-.06.18-.06s.13.02.17.06c.04.04.06.1.06.17v1.22c0,.19.04.32.11.41.08.09.19.13.35.13.19,0,.34-.06.45-.18.11-.12.17-.28.17-.48v-1.11c0-.07.02-.13.07-.17.04-.04.1-.06.18-.06s.13.02.17.06Z" style="fill:#305296; stroke-width:0px;"></path><path d="m83.35,25.63c0,.07-.02.12-.05.16s-.09.06-.18.06h-.14c-.2.03-.35.1-.44.22s-.14.26-.14.44v1.08c0,.08-.02.13-.07.17-.04.04-.1.06-.17.06s-.13-.02-.17-.06c-.05-.04-.07-.09-.07-.17v-1.92c0-.07.02-.13.07-.17.05-.04.1-.06.17-.06.06,0,.12.02.16.06.04.04.06.09.06.16v.23c.06-.14.15-.24.27-.32.12-.07.26-.12.41-.13h.07c.15-.01.23.05.23.19Z" style="fill:#305296; stroke-width:0px;"></path><path d="m86.17,27.5s.04.07.04.13c0,.06-.02.11-.07.14s-.12.05-.21.04h-.13c-.26-.03-.45-.11-.57-.24-.13-.14-.19-.34-.19-.61v-1.11h-.28c-.14,0-.21-.06-.21-.18,0-.06.02-.1.05-.14.04-.03.09-.05.15-.05h.28v-.49c0-.07.02-.13.06-.17s.1-.06.17-.06.13.02.17.06c.04.04.07.1.07.17v.49h.47c.07,0,.12.02.15.05.04.03.05.08.05.14s-.02.11-.05.14c-.04.03-.09.05-.15.05h-.47v1.15c0,.15.03.26.09.33s.16.11.28.12h.13c.07.02.12.03.15.06Z" style="fill:#305296; stroke-width:0px;"></path><path d="m86.97,27.67c-.17-.1-.3-.24-.4-.42-.09-.18-.14-.39-.14-.63s.05-.45.14-.64c.09-.18.23-.32.4-.42s.37-.15.6-.15.43.05.6.15.3.24.4.42c.09.18.14.39.14.64s-.05.45-.14.63c-.09.18-.23.32-.4.42-.17.1-.37.15-.6.15s-.43-.05-.6-.15Zm1.08-.44c.11-.14.17-.34.17-.61s-.06-.47-.17-.61c-.11-.14-.27-.21-.48-.21s-.37.07-.48.21c-.11.14-.17.34-.17.61s.06.47.17.61.27.21.48.21.37-.07.48-.21Z" style="fill:#305296; stroke-width:0px;"></path><path d="m91.19,25.49s.06.1.06.17v1.92c0,.07-.02.12-.07.16-.04.04-.1.06-.18.06-.07,0-.12-.02-.16-.06-.04-.04-.06-.09-.06-.16v-.18c-.07.13-.17.23-.3.3-.13.07-.27.1-.43.1-.56,0-.84-.31-.84-.93v-1.23c0-.07.02-.13.06-.17.04-.04.1-.06.18-.06s.13.02.17.06c.04.04.06.1.06.17v1.22c0,.19.04.32.11.41.08.09.19.13.35.13.19,0,.34-.06.45-.18.11-.12.17-.28.17-.48v-1.11c0-.07.02-.13.07-.17.04-.04.1-.06.18-.06s.13.02.17.06Z" style="fill:#305296; stroke-width:0px;"></path><path d="m91.94,27.62c-.06-.03-.1-.07-.12-.11-.02-.04-.04-.08-.04-.13,0-.05.01-.09.04-.13s.06-.05.11-.05c.04,0,.11.03.19.08.09.05.19.09.28.12.09.03.2.05.34.05.15,0,.27-.03.35-.08.09-.05.13-.13.13-.23,0-.06-.02-.11-.05-.15-.03-.04-.09-.07-.17-.1-.08-.03-.2-.06-.36-.1-.28-.06-.48-.14-.6-.24-.12-.1-.18-.24-.18-.42,0-.14.04-.26.12-.37.08-.11.19-.19.33-.25.14-.06.3-.09.47-.09.13,0,.25.02.37.05.12.03.23.08.32.14.1.07.16.15.16.24,0,.05-.02.09-.04.13s-.07.05-.11.05c-.03,0-.06,0-.08-.02s-.07-.03-.11-.06c-.08-.05-.16-.09-.24-.12s-.17-.04-.28-.04c-.13,0-.24.03-.32.08-.08.06-.12.13-.12.23,0,.09.04.16.11.21s.21.1.42.14c.21.04.38.09.5.15.12.06.21.13.26.21.05.08.08.19.08.32,0,.21-.09.37-.26.49s-.4.19-.69.19c-.32,0-.58-.07-.79-.2Z" style="fill:#305296; stroke-width:0px;"></path><path d="m95.52,27.75s-.07-.09-.07-.17v-2.92c0-.08.02-.13.07-.17.05-.04.1-.06.17-.06s.13.02.17.06c.04.04.07.1.07.17v2.92c0,.08-.02.13-.07.17-.04.04-.1.06-.17.06s-.13-.02-.17-.06Z" style="fill:#305296; stroke-width:0px;"></path><path d="m98.51,27.26s.04.08.04.13c0,.09-.06.17-.17.23-.11.06-.23.11-.36.15s-.26.05-.38.05c-.37,0-.65-.11-.87-.32-.21-.21-.32-.5-.32-.87,0-.24.05-.45.14-.63.09-.18.22-.32.39-.43.17-.1.36-.15.57-.15.31,0,.55.1.73.3s.27.47.27.8c0,.13-.06.19-.17.19h-1.46c.03.49.27.73.71.73.12,0,.22-.02.3-.05.08-.03.17-.07.27-.12,0,0,.04-.02.08-.04.04-.02.08-.03.11-.03.04,0,.08.02.11.05Zm-1.37-1.31c-.11.12-.18.28-.2.49h1.22c0-.21-.06-.38-.16-.49-.1-.12-.24-.17-.42-.17s-.33.06-.44.18Z" style="fill:#305296; stroke-width:0px;"></path><path d="m99.11,27.62c-.06-.03-.1-.07-.12-.11-.02-.04-.04-.08-.04-.13,0-.05.01-.09.04-.13s.06-.05.11-.05c.04,0,.11.03.19.08.09.05.19.09.28.12.09.03.2.05.34.05.15,0,.27-.03.35-.08.09-.05.13-.13.13-.23,0-.06-.02-.11-.05-.15-.03-.04-.09-.07-.17-.1-.08-.03-.2-.06-.36-.1-.28-.06-.48-.14-.6-.24-.12-.1-.18-.24-.18-.42,0-.14.04-.26.12-.37.08-.11.19-.19.33-.25.14-.06.3-.09.47-.09.13,0,.25.02.37.05.12.03.23.08.32.14.1.07.16.15.16.24,0,.05-.02.09-.04.13s-.07.05-.11.05c-.03,0-.06,0-.08-.02s-.07-.03-.11-.06c-.08-.05-.16-.09-.24-.12s-.17-.04-.28-.04c-.13,0-.24.03-.32.08-.08.06-.12.13-.12.23,0,.09.04.16.11.21s.21.1.42.14c.21.04.38.09.5.15.12.06.21.13.26.21.05.08.08.19.08.32,0,.21-.09.37-.26.49s-.4.19-.69.19c-.32,0-.58-.07-.79-.2Z" style="fill:#305296; stroke-width:0px;"></path><path d="m104.54,27.26s.04.08.04.13c0,.09-.06.17-.17.23-.11.06-.23.11-.36.15s-.26.05-.38.05c-.37,0-.65-.11-.87-.32-.21-.21-.32-.5-.32-.87,0-.24.05-.45.14-.63.09-.18.22-.32.39-.43.17-.1.36-.15.57-.15.31,0,.55.1.73.3s.27.47.27.8c0,.13-.06.19-.17.19h-1.46c.03.49.27.73.71.73.12,0,.22-.02.3-.05.08-.03.17-.07.27-.12,0,0,.04-.02.08-.04.04-.02.08-.03.11-.03.04,0,.08.02.11.05Zm-1.37-1.31c-.11.12-.18.28-.2.49h1.22c0-.21-.06-.38-.16-.49-.1-.12-.24-.17-.42-.17s-.33.06-.44.18Z" style="fill:#305296; stroke-width:0px;"></path><path d="m105.14,27.62c-.06-.03-.1-.07-.12-.11-.02-.04-.04-.08-.04-.13,0-.05.01-.09.04-.13s.06-.05.11-.05c.04,0,.11.03.19.08.09.05.19.09.28.12.09.03.2.05.34.05.15,0,.27-.03.35-.08.09-.05.13-.13.13-.23,0-.06-.02-.11-.05-.15-.03-.04-.09-.07-.17-.1-.08-.03-.2-.06-.36-.1-.28-.06-.48-.14-.6-.24-.12-.1-.18-.24-.18-.42,0-.14.04-.26.12-.37.08-.11.19-.19.33-.25.14-.06.3-.09.47-.09.13,0,.25.02.37.05.12.03.23.08.32.14.1.07.16.15.16.24,0,.05-.02.09-.04.13s-.07.05-.11.05c-.03,0-.06,0-.08-.02s-.07-.03-.11-.06c-.08-.05-.16-.09-.24-.12s-.17-.04-.28-.04c-.13,0-.24.03-.32.08-.08.06-.12.13-.12.23,0,.09.04.16.11.21s.21.1.42.14c.21.04.38.09.5.15.12.06.21.13.26.21.05.08.08.19.08.32,0,.21-.09.37-.26.49s-.4.19-.69.19c-.32,0-.58-.07-.79-.2Z" style="fill:#305296; stroke-width:0px;"></path><path d="m109.18,25.57c.16.1.28.24.36.43.09.18.13.39.13.63s-.04.44-.13.62c-.09.18-.21.32-.36.42-.16.1-.34.15-.54.15-.17,0-.33-.04-.46-.11-.13-.07-.23-.18-.3-.32v1.05c0,.07-.02.12-.06.16s-.1.06-.17.06c-.07,0-.13-.02-.18-.06-.05-.04-.07-.1-.07-.17v-2.77c0-.07.02-.13.07-.17.04-.04.1-.06.17-.06s.13.02.17.06c.04.04.07.1.07.17v.19c.07-.14.17-.25.3-.32.13-.08.29-.11.46-.11.2,0,.38.05.53.15Zm-.16,1.66c.11-.14.17-.34.17-.6s-.06-.46-.17-.61-.28-.22-.48-.22-.37.07-.48.21c-.11.14-.17.34-.17.61s.06.46.17.61c.11.14.27.21.48.21s.37-.07.48-.21Z" style="fill:#305296; stroke-width:0px;"></path><path d="m111.64,25.63c0,.07-.02.12-.05.16s-.09.06-.18.06h-.14c-.2.03-.35.1-.44.22s-.14.26-.14.44v1.08c0,.08-.02.13-.07.17-.04.04-.1.06-.17.06s-.13-.02-.17-.06c-.05-.04-.07-.09-.07-.17v-1.92c0-.07.02-.13.07-.17.05-.04.1-.06.17-.06.06,0,.12.02.16.06.04.04.06.09.06.16v.23c.06-.14.15-.24.27-.32.12-.07.26-.12.41-.13h.07c.15-.01.23.05.23.19Z" style="fill:#305296; stroke-width:0px;"></path><path d="m111.96,24.89c-.05-.05-.08-.12-.08-.2s.03-.15.08-.2c.05-.05.13-.07.22-.07s.16.02.22.07.08.11.08.2-.03.15-.08.2c-.05.05-.13.08-.22.08s-.16-.03-.22-.08Zm.04,2.86s-.07-.09-.07-.17v-1.92c0-.08.02-.13.07-.17.05-.04.1-.06.17-.06s.13.02.17.06c.04.04.07.1.07.17v1.92c0,.08-.02.13-.07.17-.04.04-.1.06-.17.06s-.13-.02-.17-.06Z" style="fill:#305296; stroke-width:0px;"></path><path d="m114.42,27.5s.04.07.04.13c0,.06-.02.11-.07.14s-.12.05-.21.04h-.13c-.26-.03-.45-.11-.57-.24-.13-.14-.19-.34-.19-.61v-1.11h-.28c-.14,0-.21-.06-.21-.18,0-.06.02-.1.05-.14.04-.03.09-.05.15-.05h.28v-.49c0-.07.02-.13.06-.17s.1-.06.17-.06.13.02.17.06c.04.04.07.1.07.17v.49h.47c.07,0,.12.02.15.05.04.03.05.08.05.14s-.02.11-.05.14c-.04.03-.09.05-.15.05h-.47v1.15c0,.15.03.26.09.33s.16.11.28.12h.13c.07.02.12.03.15.06Z" style="fill:#305296; stroke-width:0px;"></path><path d="m114.83,27.62c-.06-.03-.1-.07-.12-.11-.02-.04-.04-.08-.04-.13,0-.05.01-.09.04-.13s.06-.05.11-.05c.04,0,.11.03.19.08.09.05.19.09.28.12.09.03.2.05.34.05.15,0,.27-.03.35-.08.09-.05.13-.13.13-.23,0-.06-.02-.11-.05-.15-.03-.04-.09-.07-.17-.1-.08-.03-.2-.06-.36-.1-.28-.06-.48-.14-.6-.24-.12-.1-.18-.24-.18-.42,0-.14.04-.26.12-.37.08-.11.19-.19.33-.25.14-.06.3-.09.47-.09.13,0,.25.02.37.05.12.03.23.08.32.14.1.07.16.15.16.24,0,.05-.02.09-.04.13s-.07.05-.11.05c-.03,0-.06,0-.08-.02s-.07-.03-.11-.06c-.08-.05-.16-.09-.24-.12s-.17-.04-.28-.04c-.13,0-.24.03-.32.08-.08.06-.12.13-.12.23,0,.09.04.16.11.21s.21.1.42.14c.21.04.38.09.5.15.12.06.21.13.26.21.05.08.08.19.08.32,0,.21-.09.37-.26.49s-.4.19-.69.19c-.32,0-.58-.07-.79-.2Z" style="fill:#305296; stroke-width:0px;"></path><path d="m118.74,27.67c-.17-.1-.3-.24-.39-.42-.09-.18-.14-.39-.14-.62s.05-.45.14-.63c.1-.18.23-.32.4-.43.17-.1.37-.15.6-.15.12,0,.24.02.36.05s.23.08.32.14c.1.07.15.15.15.24,0,.05-.01.1-.04.13-.03.04-.06.05-.11.05-.03,0-.06,0-.09-.02s-.06-.04-.11-.06c-.08-.05-.15-.09-.22-.12-.07-.03-.15-.04-.24-.04-.21,0-.38.07-.5.22s-.18.35-.18.61.06.46.17.6c.12.14.28.21.5.21.09,0,.18-.01.25-.04.07-.03.15-.07.22-.11.03-.02.07-.04.1-.06.03-.02.07-.02.09-.02.04,0,.08.02.11.05.03.04.04.08.04.13,0,.04-.01.08-.04.12-.02.04-.06.07-.12.11-.09.06-.2.11-.33.15-.13.03-.25.05-.38.05-.22,0-.42-.05-.59-.15Z" style="fill:#305296; stroke-width:0px;"></path><path d="m122.06,25.63c0,.07-.02.12-.05.16s-.09.06-.18.06h-.14c-.2.03-.35.1-.44.22s-.14.26-.14.44v1.08c0,.08-.02.13-.07.17-.04.04-.1.06-.17.06s-.13-.02-.17-.06c-.05-.04-.07-.09-.07-.17v-1.92c0-.07.02-.13.07-.17.05-.04.1-.06.17-.06.06,0,.12.02.16.06.04.04.06.09.06.16v.23c.06-.14.15-.24.27-.32.12-.07.26-.12.41-.13h.07c.15-.01.23.05.23.19Z" style="fill:#305296; stroke-width:0px;"></path><path d="m124.22,27.26s.04.08.04.13c0,.09-.06.17-.17.23-.11.06-.23.11-.36.15s-.26.05-.38.05c-.37,0-.65-.11-.87-.32-.21-.21-.32-.5-.32-.87,0-.24.05-.45.14-.63.09-.18.22-.32.39-.43.17-.1.36-.15.57-.15.31,0,.55.1.73.3s.27.47.27.8c0,.13-.06.19-.17.19h-1.46c.03.49.27.73.71.73.12,0,.22-.02.3-.05.08-.03.17-.07.27-.12,0,0,.04-.02.08-.04.04-.02.08-.03.11-.03.04,0,.08.02.11.05Zm-1.37-1.31c-.11.12-.18.28-.2.49h1.22c0-.21-.06-.38-.16-.49-.1-.12-.24-.17-.42-.17s-.33.06-.44.18Zm.44-.75s-.07-.01-.09-.04c-.03-.03-.04-.06-.04-.09,0-.03.01-.06.03-.09l.51-.67c.06-.08.14-.13.22-.13.06,0,.11.02.15.06s.06.09.06.15c0,.07-.04.14-.11.2l-.64.56s-.06.03-.09.03Z" style="fill:#305296; stroke-width:0px;"></path><path d="m126.46,25.65c.15.15.22.39.22.71v1.22c0,.07-.02.13-.06.17-.04.04-.1.06-.17.06s-.12-.02-.17-.06c-.04-.04-.06-.1-.06-.17v-.17c-.06.13-.15.23-.27.31s-.26.11-.41.11-.29-.03-.41-.09c-.12-.06-.22-.15-.3-.25-.07-.11-.11-.23-.11-.36,0-.17.04-.3.13-.4s.23-.17.43-.21c.2-.04.47-.06.83-.06h.11v-.14c0-.18-.04-.3-.11-.38-.07-.08-.19-.12-.35-.12-.11,0-.21.01-.31.04-.1.03-.21.07-.32.12-.09.05-.15.07-.18.07-.05,0-.09-.02-.12-.05-.03-.03-.04-.08-.04-.13,0-.05.01-.09.04-.13.03-.04.07-.07.13-.11.11-.06.24-.11.39-.14.15-.04.29-.05.43-.05.31,0,.53.08.68.23Zm-.4,1.63c.11-.12.17-.27.17-.46v-.12h-.09c-.25,0-.44.01-.57.03-.13.02-.23.06-.28.11-.06.05-.08.13-.08.22,0,.11.04.21.12.28.08.07.18.11.31.11.17,0,.31-.06.43-.18Z" style="fill:#305296; stroke-width:0px;"></path><path d="m128.62,27.5s.04.07.04.13c0,.06-.02.11-.07.14s-.12.05-.21.04h-.13c-.26-.03-.45-.11-.57-.24-.13-.14-.19-.34-.19-.61v-1.11h-.28c-.14,0-.21-.06-.21-.18,0-.06.02-.1.05-.14.04-.03.09-.05.15-.05h.28v-.49c0-.07.02-.13.06-.17s.1-.06.17-.06.13.02.17.06c.04.04.07.1.07.17v.49h.47c.07,0,.12.02.15.05.04.03.05.08.05.14s-.02.11-.05.14c-.04.03-.09.05-.15.05h-.47v1.15c0,.15.03.26.09.33s.16.11.28.12h.13c.07.02.12.03.15.06Z" style="fill:#305296; stroke-width:0px;"></path><path d="m129.03,24.89c-.05-.05-.08-.12-.08-.2s.03-.15.08-.2c.05-.05.13-.07.22-.07s.16.02.22.07.08.11.08.2-.03.15-.08.2c-.05.05-.13.08-.22.08s-.16-.03-.22-.08Zm.04,2.86s-.07-.09-.07-.17v-1.92c0-.08.02-.13.07-.17.05-.04.1-.06.17-.06s.13.02.17.06c.04.04.07.1.07.17v1.92c0,.08-.02.13-.07.17-.04.04-.1.06-.17.06s-.13-.02-.17-.06Z" style="fill:#305296; stroke-width:0px;"></path><path d="m130.89,24.97c-.08.09-.11.21-.11.38v.13h.47c.07,0,.12.02.15.05.04.03.05.08.05.14s-.02.1-.05.13c-.04.03-.09.05-.15.05h-.47v1.73c0,.08-.02.13-.07.17-.05.04-.1.06-.17.06s-.13-.02-.17-.06c-.04-.04-.07-.1-.07-.17v-1.73h-.28c-.07,0-.12-.02-.15-.05-.04-.03-.05-.08-.05-.13s.02-.1.05-.14c.04-.03.09-.05.15-.05h.28v-.06c0-.29.07-.52.22-.68.15-.17.36-.26.63-.28h.12c.1-.02.17,0,.22.02.05.03.07.07.07.14,0,.11-.07.17-.2.19h-.12c-.16.02-.27.07-.35.16Z" style="fill:#305296; stroke-width:0px;"></path><path d="m131.76,27.62c-.06-.03-.1-.07-.12-.11-.02-.04-.04-.08-.04-.13,0-.05.01-.09.04-.13s.06-.05.11-.05c.04,0,.11.03.19.08.09.05.19.09.28.12.09.03.2.05.34.05.15,0,.27-.03.35-.08.09-.05.13-.13.13-.23,0-.06-.02-.11-.05-.15-.03-.04-.09-.07-.17-.1-.08-.03-.2-.06-.36-.1-.28-.06-.48-.14-.6-.24-.12-.1-.18-.24-.18-.42,0-.14.04-.26.12-.37.08-.11.19-.19.33-.25.14-.06.3-.09.47-.09.13,0,.25.02.37.05.12.03.23.08.32.14.1.07.16.15.16.24,0,.05-.02.09-.04.13s-.07.05-.11.05c-.03,0-.06,0-.08-.02s-.07-.03-.11-.06c-.08-.05-.16-.09-.24-.12s-.17-.04-.28-.04c-.13,0-.24.03-.32.08-.08.06-.12.13-.12.23,0,.09.04.16.11.21s.21.1.42.14c.21.04.38.09.5.15.12.06.21.13.26.21.05.08.08.19.08.32,0,.21-.09.37-.26.49s-.4.19-.69.19c-.32,0-.58-.07-.79-.2Z" style="fill:#305296; stroke-width:0px;"></path><path d="m30.41,18.84c-.76,5.66-5.31,10.26-11.29,11.67-.63.15-1.25-.28-1.25-.88v-1.87c.29.18.63.28,1,.28.15,0,.3-.02.45-.05,5.24-1.23,9.31-4.72,11.09-9.15Zm-18.74,9.2c-.15,0-.3-.02-.45-.05C5.98,26.76,1.91,23.26.13,18.84c.76,5.66,5.31,10.26,11.29,11.67.63.15,1.25-.28,1.25-.88v-1.87c-.29.18-.63.28-1,.28Zm11.73-17.68l2.63-1.37c.36-.19.53-.54.49-.89v-1.77s-.06.04-.09.06l-2.63,1.37c-.28.15-.59.22-.91.22-.44,0-.87-.15-1.19-.42-1.76-1.46-4.05-2.27-6.43-2.27s-4.67.81-6.43,2.27c-.33.27-.75.42-1.19.42-.32,0-.63-.08-.91-.22l-2.63-1.37s-.06-.05-.1-.07v1.91h0c.01.3.18.59.49.75l2.63,1.37c.37.19.84.16,1.15-.1,1.84-1.53,4.29-2.47,6.99-2.47s5.14.94,6.99,2.47c.31.26.78.29,1.15.1Z" style="fill:#305296; stroke-width:0px;"></path><path d="m4.51,5.63c-.56-.29-.67-.99-.22-1.42C7.07,1.62,10.96,0,15.27,0s8.2,1.62,10.98,4.21c.45.42.35,1.12-.22,1.42l-2.63,1.37c-.37.19-.84.16-1.15-.1-1.84-1.53-4.29-2.47-6.99-2.47s-5.14.94-6.99,2.47c-.31.26-.78.29-1.15.1l-2.63-1.37Zm21.41,5.48c-.36.19-.56.56-.48.93.12.57.19,1.16.19,1.76,0,4.12-2.96,7.61-7.05,8.86-.42.13-.71.46-.71.86v2.74c0,.59.62,1.03,1.25.88,6.57-1.54,11.42-6.93,11.42-13.34,0-1.22-.18-2.4-.52-3.52-.17-.57-.9-.84-1.47-.55l-2.64,1.38Zm-13.25,12.41c0-.4-.29-.73-.71-.86-4.09-1.25-7.05-4.75-7.05-8.86,0-.6.07-1.19.19-1.76.08-.37-.12-.74-.48-.93l-2.64-1.38c-.57-.3-1.3-.03-1.47.55-.33,1.12-.52,2.3-.52,3.52,0,6.42,4.85,11.8,11.42,13.34.63.15,1.25-.28,1.25-.88v-2.74Z" style="fill:#6777af; stroke-width:0px;"></path><path d="m139.93,13.41c0,1.03-.17,1.92-.52,2.66-.35.77-.86,1.37-1.54,1.79s-1.51.63-2.5.63c-1.18,0-2.17-.31-2.97-.92s-1.3-1.42-1.51-2.44c-.09-.39-.14-.89-.17-1.48,0-.17.09-.26.26-.26h2.57c.17,0,.26.09.26.26.03.45.07.77.13.96.07.39.23.7.48.92.25.22.56.33.94.33.35,0,.64-.1.88-.3s.41-.48.51-.84c.12-.44.17-.95.17-1.53,0-.64-.07-1.16-.22-1.55-.25-.76-.7-1.13-1.37-1.13-.26,0-.54.1-.83.31-.04.03-.1.04-.15.04-.09,0-.16-.03-.22-.09l-1.29-1.42c-.06-.09-.09-.15-.09-.2,0-.06.03-.12.09-.17l3.1-3.16s.04-.06.02-.09c-.01-.03-.04-.04-.09-.04h-4.63c-.07,0-.13-.03-.18-.08s-.08-.11-.08-.19v-2.11c0-.07.03-.13.08-.19s.11-.08.18-.08h8.31c.07,0,.13.03.19.08s.08.11.08.19v2.18c0,.1-.04.21-.13.33l-2.73,2.99c-.04.07-.03.12.04.13.57.1,1.06.32,1.47.67s.75.79.99,1.34c.29.7.44,1.52.44,2.46Zm2.04,4.83c-.05-.05-.08-.11-.08-.18V3.32c0-.07.03-.13.08-.19.05-.05.11-.08.18-.08h4.69c.97,0,1.83.18,2.58.55.75.36,1.33.88,1.73,1.55.41.67.61,1.45.61,2.33v6.41c0,.89-.2,1.67-.61,2.33-.41.67-.99,1.18-1.73,1.55-.75.36-1.61.55-2.58.55h-4.69c-.07,0-.13-.03-.18-.08Zm3.11-2.56l1.79-.02c.54,0,.97-.19,1.31-.58.33-.38.51-.9.52-1.54v-5.71c0-.65-.17-1.17-.5-1.56-.34-.38-.78-.58-1.33-.58h-1.79c-.07,0-.11.04-.11.11v9.77c0,.07.04.11.11.11Zm-109.45,1.86c-.76-.63-1.21-1.49-1.37-2.56-.12-.7-.17-1.45-.17-2.25s.06-1.59.17-2.29c.16-1.06.63-1.9,1.4-2.52.77-.62,1.74-.93,2.9-.93s2.1.31,2.86.93c.76.62,1.21,1.45,1.37,2.5.12.73.17,1.49.17,2.29,0,.87-.05,1.62-.15,2.25-.16,1.09-.62,1.95-1.37,2.58-.76.63-1.72.95-2.9.95s-2.15-.32-2.9-.95Zm4.11-1.71c.33-.32.53-.74.6-1.27.06-.76.09-1.37.09-1.83s-.03-1.1-.09-1.85c-.07-.52-.27-.94-.6-1.24-.33-.31-.73-.46-1.21-.46s-.9.15-1.22.46c-.32.31-.52.72-.59,1.24-.06.51-.09,1.13-.09,1.85s.03,1.35.09,1.83c.07.52.27.95.59,1.27.32.32.73.48,1.22.48s.88-.16,1.21-.48Zm14.1-3.05c0,.84-.07,1.64-.2,2.38-.45,2.22-1.63,3.34-3.53,3.34-1.02,0-1.78-.33-2.29-.98-.03-.04-.06-.06-.09-.05-.03,0-.04.03-.04.08v4.65c0,.07-.03.13-.08.19-.05.05-.11.08-.18.08h-2.01c-.07,0-.13-.03-.19-.08-.05-.05-.08-.11-.08-.19V7.44c0-.07.03-.13.08-.19s.11-.08.19-.08h2.01c.07,0,.13.03.18.08s.08.11.08.19v.57s.01.07.04.09c.03.01.06,0,.09-.04.55-.7,1.34-1.05,2.38-1.05.9,0,1.63.28,2.19.83s.96,1.38,1.21,2.49c.16.74.24,1.56.24,2.46Zm-2.55-.02c0-.95-.07-1.67-.22-2.18-.26-.95-.8-1.42-1.61-1.42s-1.29.47-1.53,1.4c-.14.51-.22,1.24-.22,2.2s.08,1.72.24,2.23c.23.89.73,1.33,1.48,1.33s1.29-.43,1.59-1.29c.17-.57.26-1.32.26-2.27Zm13.22-.22l-.02.94c0,.17-.09.26-.26.26h-5.85c-.07,0-.11.04-.11.11.03.41.06.71.09.89.07.48.28.87.61,1.16.34.29.76.44,1.27.44.44-.01.8-.12,1.1-.33s.53-.49.69-.85c.07-.16.18-.22.33-.17l1.79.37c.17.06.23.17.17.33-.29.9-.79,1.6-1.5,2.08-.7.49-1.57.73-2.58.73-1.21,0-2.17-.29-2.9-.87s-1.2-1.39-1.42-2.42c-.07-.39-.12-.81-.14-1.24s-.03-1.02-.03-1.75.04-1.33.11-1.72c.14-1.06.6-1.91,1.35-2.54.76-.63,1.72-.95,2.88-.95,1.27,0,2.29.36,3.06,1.07.78.71,1.21,1.65,1.3,2.81.04.48.07,1.03.07,1.66Zm-5.6-2.93c-.31.28-.51.67-.58,1.15-.04.32-.07.68-.07,1.09,0,.07.04.11.11.11h3.47c.07,0,.11-.04.11-.11-.03-.49-.06-.85-.09-1.07-.06-.48-.25-.86-.57-1.16s-.72-.44-1.2-.44-.88.14-1.19.43Zm15.15-1.6c.6.67.89,1.59.89,2.77v7.28c0,.07-.03.13-.08.19-.05.05-.11.08-.18.08h-2.01c-.07,0-.13-.03-.19-.08-.05-.05-.08-.11-.08-.19v-6.94c0-.6-.15-1.07-.45-1.42-.3-.35-.7-.52-1.21-.52s-.94.18-1.25.53c-.31.36-.47.83-.47,1.43v6.91c0,.07-.03.13-.08.19-.05.05-.11.08-.19.08h-2.01c-.07,0-.13-.03-.19-.08-.05-.05-.08-.11-.08-.19V7.44c0-.07.02-.13.08-.19s.11-.08.19-.08h2.01c.07,0,.13.03.19.08.05.05.08.11.08.19v.57s.02.07.04.09c.03.01.06,0,.09-.04.58-.7,1.38-1.05,2.4-1.05s1.89.34,2.49,1Zm3.9,9.6c-.76-.57-1.13-1.31-1.13-2.22v-.17c0-.07.02-.13.08-.19s.11-.08.19-.08h1.9c.07,0,.13.03.19.08s.08.11.08.19v.07c0,.35.17.65.5.91.33.25.75.38,1.24.38s.87-.12,1.17-.35c.3-.23.45-.52.45-.87s-.15-.62-.45-.81-.76-.39-1.38-.61l-.57-.2c-.99-.32-1.78-.72-2.38-1.21-.6-.49-.89-1.21-.89-2.17,0-1.02.36-1.82,1.09-2.41.73-.59,1.69-.88,2.88-.88s2.22.3,2.96.91,1.1,1.41,1.1,2.41v.02c0,.07-.03.13-.08.19-.05.05-.11.08-.18.08h-1.83c-.07,0-.13-.03-.18-.08-.05-.05-.08-.11-.08-.19v-.09c0-.36-.15-.67-.46-.91s-.71-.36-1.2-.36-.87.11-1.16.34c-.29.23-.44.51-.44.86,0,.28.1.51.31.69.2.18.43.32.69.43s.7.26,1.34.48c.68.23,1.26.47,1.73.72.47.25.88.59,1.21,1.03.33.44.5.99.5,1.66,0,1-.37,1.79-1.12,2.37-.75.57-1.76.86-3.02.86s-2.27-.28-3.03-.85Zm17.78-4.82c0,.84-.07,1.64-.2,2.38-.45,2.22-1.63,3.34-3.53,3.34-1.02,0-1.78-.33-2.29-.98-.03-.04-.06-.06-.09-.05-.03,0-.04.03-.04.08v4.65c0,.07-.03.13-.08.19-.05.05-.11.08-.18.08h-2.01c-.07,0-.13-.03-.19-.08-.05-.05-.08-.11-.08-.19V7.44c0-.07.03-.13.08-.19s.11-.08.19-.08h2.01c.07,0,.13.03.18.08s.08.11.08.19v.57s.01.07.04.09c.03.01.06,0,.09-.04.55-.7,1.34-1.05,2.38-1.05.9,0,1.63.28,2.19.83s.96,1.38,1.21,2.49c.16.74.24,1.56.24,2.46Zm-2.55-.02c0-.95-.07-1.67-.22-2.18-.26-.95-.8-1.42-1.61-1.42s-1.29.47-1.53,1.4c-.14.51-.22,1.24-.22,2.2s.08,1.72.24,2.23c.23.89.73,1.33,1.48,1.33s1.29-.43,1.59-1.29c.17-.57.26-1.32.26-2.27Zm10.93-5.29c.64.31,1.14.75,1.49,1.3s.53,1.19.53,1.9v7.39c0,.07-.03.13-.08.19-.05.05-.11.08-.19.08h-2.01c-.07,0-.13-.03-.19-.08-.05-.05-.08-.11-.08-.19v-.55s-.02-.07-.04-.09c-.03-.01-.06,0-.09.02-.61.7-1.49,1.05-2.64,1.05-.96,0-1.78-.26-2.44-.77s-1-1.36-1-2.52c0-1.22.39-2.13,1.17-2.73.78-.6,1.85-.89,3.22-.89h1.72c.07,0,.11-.04.11-.11v-.55c0-.54-.15-.96-.45-1.28-.3-.31-.71-.47-1.23-.47-.42,0-.77.1-1.04.29-.27.2-.44.46-.51.8-.04.16-.14.24-.31.24l-2.12-.13c-.07,0-.13-.03-.18-.08-.05-.05-.07-.11-.06-.16.09-.93.52-1.69,1.3-2.27s1.74-.87,2.89-.87c.83,0,1.56.16,2.2.47Zm-1.13,8.48c.42-.33.63-.76.63-1.3v-1.13c0-.07-.04-.11-.11-.11h-1.46c-.64,0-1.15.14-1.52.41s-.56.68-.56,1.2c0,.47.14.82.43,1.06s.65.36,1.1.36c.57,0,1.06-.16,1.48-.49Zm6.64,1.64c-.75-.6-1.2-1.43-1.36-2.48-.12-.6-.17-1.4-.17-2.4,0-.92.06-1.71.17-2.38.16-1.02.62-1.83,1.37-2.43.76-.6,1.72-.91,2.88-.91s2.06.29,2.84.86,1.24,1.33,1.4,2.26c.01.06.03.13.04.22.01.09.02.2.02.33v.04c0,.13-.08.21-.24.24l-1.98.2h-.04c-.13,0-.21-.08-.24-.24,0-.1-.01-.21-.04-.33-.07-.39-.27-.72-.58-.99s-.71-.4-1.19-.4-.88.15-1.19.44-.51.68-.58,1.16c-.07.55-.11,1.21-.11,1.96,0,.83.04,1.5.13,2.01.07.48.26.86.57,1.15.31.28.7.43,1.18.43s.9-.14,1.21-.43c.31-.28.5-.63.56-1.04l.02-.22c.02-.07.05-.13.11-.19.06-.05.12-.07.2-.05l1.96.17c.17.03.26.12.26.28l-.04.37c-.13.99-.58,1.78-1.35,2.38-.77.6-1.74.89-2.9.89s-2.14-.3-2.89-.91Zm17.59-5.05l-.02.94c0,.17-.09.26-.26.26h-5.85c-.07,0-.11.04-.11.11.03.41.06.71.09.89.07.48.28.87.61,1.16.34.29.76.44,1.27.44.44-.01.8-.12,1.1-.33s.53-.49.69-.85c.07-.16.18-.22.33-.17l1.79.37c.17.06.23.17.17.33-.29.9-.79,1.6-1.5,2.08-.7.49-1.57.73-2.58.73-1.21,0-2.17-.29-2.9-.87s-1.2-1.39-1.42-2.42c-.07-.39-.12-.81-.14-1.24s-.03-1.02-.03-1.75.04-1.33.11-1.72c.14-1.06.6-1.91,1.35-2.54.76-.63,1.72-.95,2.88-.95,1.27,0,2.29.36,3.06,1.07.78.71,1.21,1.65,1.3,2.81.04.48.07,1.03.07,1.66Zm-5.6-2.93c-.31.28-.51.67-.58,1.15-.04.32-.07.68-.07,1.09,0,.07.04.11.11.11h3.47c.07,0,.11-.04.11-.11-.03-.49-.06-.85-.09-1.07-.06-.48-.25-.86-.57-1.16s-.72-.44-1.2-.44-.88.14-1.19.43Z" style="fill:#305296; stroke-width:0px;"></path></svg>