<svg xmlns="http://www.w3.org/2000/svg" xmlns:xlink="http://www.w3.org/1999/xlink" id="Calque_1" data-name="Calque 1" viewBox="0 0 233.56 234.14"><defs><style>      .cls-1 {        fill: url(#Dégradé_sans_nom_5-2);      }      .cls-2 {        fill: url(#Dégradé_sans_nom_5);      }      .cls-3 {        fill: url(#Dégradé_sans_nom_5-3);      }    </style><linearGradient id="Dégradé_sans_nom_5" data-name="Dégradé sans nom 5" x1="1.26" y1="1.64" x2="223.7" y2="224.98" gradientUnits="userSpaceOnUse"><stop offset="0" stop-color="#ea235f"></stop><stop offset="1" stop-color="#2e5c9f"></stop></linearGradient><linearGradient id="Dégradé_sans_nom_5-2" data-name="Dégradé sans nom 5" x1="1.41" y1="1.49" x2="223.85" y2="224.83" xlink:href="#Dégradé_sans_nom_5"></linearGradient><linearGradient id="Dégradé_sans_nom_5-3" data-name="Dégradé sans nom 5" x1="63.75" y1="-60.6" x2="286.19" y2="162.74" xlink:href="#Dégradé_sans_nom_5"></linearGradient></defs><path class="cls-2" d="M93.39.54c24.47-.86,51.8-.82,76.1,1.07,25.6,1.99,48.15,15.39,57.31,39.93,8.45,22.64,8.18,112.31,3.57,137.43-6.59,35.91-32.39,51.5-67.25,53.9-27.17,1.87-99.92,2.98-123.09-6.15C.52,211.13,2.69,178.01,1.33,142.67.2,113.39-3.76,56.17,11.11,31.44,29.52.82,61.69,1.66,93.39.54ZM80.63,21.26c-23.92,1.6-47.71,3.64-55.94,30.14-6.94,22.34-6.24,95.63-2.52,119.84,4.17,27.18,20.15,38.76,46.85,40.82,26.09,2,67.91,1.9,94.09.09,32.06-2.22,46.13-16.77,48.53-48.7,1.94-25.9,1.99-68.13,0-94.01-2.3-29.95-14.6-42.84-44.01-46.84-25.26-3.44-61.33-3.04-87-1.32Z"></path><path class="cls-1" d="M109.3,57.91c75.33-8.16,92.25,101.39,19.88,117.1-80.91,17.56-99.99-108.43-19.88-117.1ZM144.15,144.56c33.55-33.54-12.04-87.77-51.23-58.4-43.75,32.78,12.62,97.01,51.23,58.4Z"></path><path class="cls-3" d="M188.91,45.15c12.99,13-9.32,32.59-21.01,18.62-10.99-13.13,8.75-30.9,21.01-18.62Z"></path></svg>