<svg xmlns="http://www.w3.org/2000/svg" xmlns:xlink="http://www.w3.org/1999/xlink" id="Logos" x="0px" y="0px" viewBox="0 0 176.7 63.3" style="enable-background:new 0 0 176.7 63.3;" xml:space="preserve"><style type="text/css">	.st0{fill:#9BA1CB;}	.st1{fill:#6777B0;}	.st2{fill:#315397;}	.st3{fill:#D7D8EB;}	.st4{fill:#F4F4F9;}	.st5{fill:#AFB3D6;}	.st6{fill:#FFFFFF;}</style><g>	<polygon class="st0" points="70.5,31.5 51.7,31.5 17.6,0.9 52.9,0.9  "></polygon>	<polygon class="st1" points="17.6,0.9 27.1,17.3 17.6,62 0,31.5  "></polygon>	<polygon class="st2" points="17.6,62 27.1,45.7 70.5,31.5 52.9,62  "></polygon>	<polygon class="st3" points="17.6,62 27.1,17.3 35.3,31.5  "></polygon>	<polygon class="st4" points="17.6,0.9 51.7,31.5 35.3,31.5  "></polygon>	<polygon class="st5" points="70.5,31.5 27.1,45.7 35.3,31.5  "></polygon></g><path class="st2" d="M78.5,50.3c-0.1-0.1-0.1-0.2-0.1-0.3v-5.7c0-0.1,0-0.3,0.1-0.3c0.1-0.1,0.2-0.1,0.4-0.1h3.5 c0.1,0,0.3,0,0.3,0.1c0.1,0.1,0.1,0.2,0.1,0.3c0,0.1,0,0.2-0.1,0.3c-0.1,0.1-0.2,0.1-0.3,0.1h-3v2.1h2.8c0.1,0,0.3,0,0.3,0.1 c0.1,0.1,0.1,0.2,0.1,0.3s0,0.2-0.1,0.3c-0.1,0.1-0.2,0.1-0.3,0.1h-2.8v2.2h3c0.3,0,0.5,0.1,0.5,0.4c0,0.1,0,0.2-0.1,0.3 c-0.1,0.1-0.2,0.1-0.3,0.1h-3.5C78.7,50.4,78.6,50.3,78.5,50.3z M80.7,43.2c-0.1,0-0.1,0-0.2-0.1S80.4,43,80.4,43 c0-0.1,0-0.1,0.1-0.2l0.9-1c0.1-0.1,0.2-0.2,0.4-0.2c0.1,0,0.2,0,0.3,0.1c0.1,0.1,0.1,0.2,0.1,0.3c0,0.2-0.1,0.3-0.3,0.4l-1.1,0.7 C80.8,43.2,80.7,43.2,80.7,43.2z M84.6,50.2c-0.3-0.2-0.6-0.5-0.8-0.8c-0.2-0.4-0.3-0.8-0.3-1.2c0-0.5,0.1-0.9,0.3-1.3 c0.2-0.4,0.5-0.6,0.8-0.9c0.3-0.2,0.7-0.3,1.2-0.3c0.2,0,0.5,0,0.7,0.1c0.2,0.1,0.5,0.2,0.6,0.3c0.2,0.1,0.3,0.3,0.3,0.5 c0,0.1,0,0.2-0.1,0.3c-0.1,0.1-0.1,0.1-0.2,0.1c-0.1,0-0.1,0-0.2,0s-0.1-0.1-0.2-0.1c-0.2-0.1-0.3-0.2-0.4-0.2 c-0.1-0.1-0.3-0.1-0.5-0.1c-0.4,0-0.8,0.1-1,0.4s-0.4,0.7-0.4,1.2c0,0.5,0.1,0.9,0.3,1.2c0.2,0.3,0.6,0.4,1,0.4c0.2,0,0.4,0,0.5-0.1 c0.1-0.1,0.3-0.1,0.4-0.2c0.1,0,0.1-0.1,0.2-0.1c0.1,0,0.1,0,0.2,0c0.1,0,0.2,0,0.2,0.1c0.1,0.1,0.1,0.2,0.1,0.3 c0,0.1,0,0.2-0.1,0.2c0,0.1-0.1,0.1-0.2,0.2c-0.2,0.1-0.4,0.2-0.7,0.3s-0.5,0.1-0.8,0.1C85.3,50.4,84.9,50.4,84.6,50.2z M89.2,50.2 c-0.3-0.2-0.6-0.5-0.8-0.8c-0.2-0.4-0.3-0.8-0.3-1.3c0-0.5,0.1-0.9,0.3-1.3c0.2-0.4,0.5-0.6,0.8-0.8s0.7-0.3,1.2-0.3 c0.5,0,0.9,0.1,1.2,0.3s0.6,0.5,0.8,0.8c0.2,0.4,0.3,0.8,0.3,1.3c0,0.5-0.1,0.9-0.3,1.3c-0.2,0.4-0.5,0.6-0.8,0.8 c-0.3,0.2-0.7,0.3-1.2,0.3C89.9,50.4,89.5,50.4,89.2,50.2z M91.3,49.3c0.2-0.3,0.3-0.7,0.3-1.2c0-0.5-0.1-0.9-0.3-1.2 c-0.2-0.3-0.5-0.4-1-0.4s-0.7,0.1-1,0.4c-0.2,0.3-0.3,0.7-0.3,1.2c0,0.5,0.1,0.9,0.3,1.2c0.2,0.3,0.5,0.4,1,0.4 C90.8,49.7,91.1,49.6,91.3,49.3z M93.8,50.3c-0.1-0.1-0.1-0.2-0.1-0.3v-5.8c0-0.2,0-0.3,0.1-0.3c0.1-0.1,0.2-0.1,0.3-0.1 s0.3,0,0.3,0.1c0.1,0.1,0.1,0.2,0.1,0.3V50c0,0.2,0,0.3-0.1,0.3c-0.1,0.1-0.2,0.1-0.3,0.1S93.9,50.4,93.8,50.3z M99.8,49.3 c0.1,0.1,0.1,0.2,0.1,0.3c0,0.2-0.1,0.3-0.3,0.5c-0.2,0.1-0.5,0.2-0.7,0.3s-0.5,0.1-0.8,0.1c-0.7,0-1.3-0.2-1.7-0.6s-0.6-1-0.6-1.7 c0-0.5,0.1-0.9,0.3-1.3c0.2-0.4,0.4-0.6,0.8-0.9c0.3-0.2,0.7-0.3,1.1-0.3c0.6,0,1.1,0.2,1.5,0.6s0.5,0.9,0.5,1.6 c0,0.3-0.1,0.4-0.3,0.4h-2.9c0.1,1,0.5,1.5,1.4,1.5c0.2,0,0.4,0,0.6-0.1c0.2-0.1,0.3-0.1,0.5-0.2c0,0,0.1,0,0.2-0.1 c0.1,0,0.2-0.1,0.2-0.1C99.7,49.2,99.7,49.3,99.8,49.3z M97.1,46.7c-0.2,0.2-0.4,0.6-0.4,1h2.4c0-0.4-0.1-0.8-0.3-1 c-0.2-0.2-0.5-0.3-0.8-0.3C97.6,46.4,97.3,46.5,97.1,46.7z M107.6,43.8c0.1,0.1,0.1,0.2,0.1,0.3V50c0,0.1,0,0.3-0.1,0.3 c-0.1,0.1-0.2,0.1-0.3,0.1s-0.3,0-0.3-0.1c-0.1-0.1-0.1-0.2-0.1-0.3v-0.4c-0.1,0.3-0.3,0.5-0.6,0.6c-0.3,0.1-0.6,0.2-0.9,0.2 c-0.4,0-0.8-0.1-1.1-0.3s-0.6-0.5-0.7-0.9c-0.2-0.4-0.3-0.8-0.3-1.3c0-0.5,0.1-0.9,0.3-1.3c0.2-0.4,0.4-0.6,0.7-0.8s0.7-0.3,1.1-0.3 c0.3,0,0.7,0.1,0.9,0.2s0.5,0.4,0.6,0.6v-2.4c0-0.1,0-0.2,0.1-0.3c0.1-0.1,0.2-0.1,0.3-0.1C107.4,43.7,107.5,43.7,107.6,43.8z  M106.4,49.3c0.2-0.3,0.3-0.7,0.3-1.2s-0.1-0.9-0.3-1.2s-0.5-0.4-1-0.4c-0.4,0-0.7,0.1-1,0.4c-0.2,0.3-0.3,0.7-0.3,1.2 c0,0.5,0.1,0.9,0.3,1.2c0.2,0.3,0.6,0.4,1,0.4C105.9,49.7,106.2,49.6,106.4,49.3z M112.9,49.3c0.1,0.1,0.1,0.2,0.1,0.3 c0,0.2-0.1,0.3-0.3,0.5c-0.2,0.1-0.5,0.2-0.7,0.3s-0.5,0.1-0.8,0.1c-0.7,0-1.3-0.2-1.7-0.6s-0.6-1-0.6-1.7c0-0.5,0.1-0.9,0.3-1.3 c0.2-0.4,0.4-0.6,0.8-0.9c0.3-0.2,0.7-0.3,1.1-0.3c0.6,0,1.1,0.2,1.5,0.6s0.5,0.9,0.5,1.6c0,0.3-0.1,0.4-0.3,0.4h-2.9 c0.1,1,0.5,1.5,1.4,1.5c0.2,0,0.4,0,0.6-0.1c0.2-0.1,0.3-0.1,0.5-0.2c0,0,0.1,0,0.2-0.1c0.1,0,0.2-0.1,0.2-0.1 C112.8,49.2,112.8,49.3,112.9,49.3z M110.1,46.7c-0.2,0.2-0.4,0.6-0.4,1h2.4c0-0.4-0.1-0.8-0.3-1c-0.2-0.2-0.5-0.3-0.8-0.3 C110.7,46.4,110.4,46.5,110.1,46.7z M114.1,50.1c-0.1-0.1-0.2-0.1-0.2-0.2c0-0.1-0.1-0.2-0.1-0.3c0-0.1,0-0.2,0.1-0.3 s0.1-0.1,0.2-0.1c0.1,0,0.2,0.1,0.4,0.2c0.2,0.1,0.4,0.2,0.6,0.2c0.2,0.1,0.4,0.1,0.7,0.1c0.3,0,0.5-0.1,0.7-0.2 c0.2-0.1,0.3-0.3,0.3-0.5c0-0.1,0-0.2-0.1-0.3c-0.1-0.1-0.2-0.1-0.3-0.2c-0.2-0.1-0.4-0.1-0.7-0.2c-0.6-0.1-1-0.3-1.2-0.5 s-0.4-0.5-0.4-0.8c0-0.3,0.1-0.5,0.2-0.7c0.2-0.2,0.4-0.4,0.7-0.5c0.3-0.1,0.6-0.2,0.9-0.2c0.3,0,0.5,0,0.7,0.1s0.5,0.2,0.6,0.3 c0.2,0.1,0.3,0.3,0.3,0.5c0,0.1,0,0.2-0.1,0.3c-0.1,0.1-0.1,0.1-0.2,0.1c-0.1,0-0.1,0-0.2,0s-0.1-0.1-0.2-0.1 c-0.2-0.1-0.3-0.2-0.5-0.2s-0.3-0.1-0.6-0.1c-0.3,0-0.5,0.1-0.6,0.2s-0.2,0.3-0.2,0.5c0,0.2,0.1,0.3,0.2,0.4s0.4,0.2,0.8,0.3 c0.4,0.1,0.8,0.2,1,0.3c0.2,0.1,0.4,0.3,0.5,0.4c0.1,0.2,0.2,0.4,0.2,0.6c0,0.4-0.2,0.7-0.5,1s-0.8,0.4-1.4,0.4 C115,50.4,114.5,50.3,114.1,50.1z M128,47.5V50c0,0.1,0,0.3-0.1,0.3c-0.1,0.1-0.2,0.1-0.3,0.1c-0.1,0-0.3,0-0.3-0.1 c-0.1-0.1-0.1-0.2-0.1-0.3v-2.4c0-0.4-0.1-0.7-0.2-0.8c-0.1-0.2-0.4-0.3-0.7-0.3c-0.3,0-0.6,0.1-0.8,0.4c-0.2,0.2-0.3,0.6-0.3,1V50 c0,0.1,0,0.3-0.1,0.3c-0.1,0.1-0.2,0.1-0.3,0.1c-0.1,0-0.3,0-0.3-0.1c-0.1-0.1-0.1-0.2-0.1-0.3v-2.4c0-0.4-0.1-0.7-0.2-0.8 c-0.1-0.2-0.4-0.3-0.7-0.3c-0.3,0-0.6,0.1-0.8,0.4s-0.3,0.6-0.3,1V50c0,0.1,0,0.3-0.1,0.3c-0.1,0.1-0.2,0.1-0.3,0.1s-0.3,0-0.3-0.1 c-0.1-0.1-0.1-0.2-0.1-0.3v-3.8c0-0.1,0-0.2,0.1-0.3s0.2-0.1,0.3-0.1c0.1,0,0.2,0,0.3,0.1c0.1,0.1,0.1,0.2,0.1,0.3v0.4 c0.1-0.3,0.3-0.5,0.6-0.6s0.5-0.2,0.9-0.2c0.4,0,0.6,0.1,0.9,0.2c0.2,0.1,0.4,0.4,0.5,0.7c0.1-0.3,0.3-0.5,0.6-0.6 c0.3-0.2,0.6-0.2,0.9-0.2C127.5,45.7,128,46.3,128,47.5z M133.1,49.3c0.1,0.1,0.1,0.2,0.1,0.3c0,0.2-0.1,0.3-0.3,0.5 c-0.2,0.1-0.5,0.2-0.7,0.3s-0.5,0.1-0.8,0.1c-0.7,0-1.3-0.2-1.7-0.6s-0.6-1-0.6-1.7c0-0.5,0.1-0.9,0.3-1.3c0.2-0.4,0.4-0.6,0.8-0.9 c0.3-0.2,0.7-0.3,1.1-0.3c0.6,0,1.1,0.2,1.5,0.6s0.5,0.9,0.5,1.6c0,0.3-0.1,0.4-0.3,0.4H130c0.1,1,0.5,1.5,1.4,1.5 c0.2,0,0.4,0,0.6-0.1c0.2-0.1,0.3-0.1,0.5-0.2c0,0,0.1,0,0.2-0.1c0.1,0,0.2-0.1,0.2-0.1C133,49.2,133.1,49.3,133.1,49.3z  M130.4,46.7c-0.2,0.2-0.4,0.6-0.4,1h2.4c0-0.4-0.1-0.8-0.3-1c-0.2-0.2-0.5-0.3-0.8-0.3C130.9,46.4,130.6,46.5,130.4,46.7z  M131.2,45.2c-0.1,0-0.1,0-0.2-0.1C131,45.1,131,45,131,45c0-0.1,0-0.1,0.1-0.2l1-1.3c0.1-0.2,0.3-0.3,0.4-0.3c0.1,0,0.2,0,0.3,0.1 s0.1,0.2,0.1,0.3c0,0.1-0.1,0.3-0.2,0.4l-1.3,1.1C131.4,45.2,131.3,45.2,131.2,45.2z M136.8,49.8c0.1,0.1,0.1,0.1,0.1,0.3 c0,0.1,0,0.2-0.1,0.3s-0.2,0.1-0.4,0.1l-0.3,0c-0.5,0-0.9-0.2-1.1-0.5c-0.3-0.3-0.4-0.7-0.4-1.2v-2.2H134c-0.3,0-0.4-0.1-0.4-0.4 c0-0.1,0-0.2,0.1-0.3c0.1-0.1,0.2-0.1,0.3-0.1h0.6v-1c0-0.1,0-0.3,0.1-0.3c0.1-0.1,0.2-0.1,0.3-0.1c0.1,0,0.3,0,0.3,0.1 s0.1,0.2,0.1,0.3v1h0.9c0.1,0,0.2,0,0.3,0.1c0.1,0.1,0.1,0.2,0.1,0.3c0,0.1,0,0.2-0.1,0.3c-0.1,0.1-0.2,0.1-0.3,0.1h-0.9v2.3 c0,0.3,0.1,0.5,0.2,0.7s0.3,0.2,0.6,0.2l0.3,0C136.6,49.7,136.7,49.8,136.8,49.8z M137.6,44.6c-0.1-0.1-0.2-0.2-0.2-0.4 s0.1-0.3,0.2-0.4s0.3-0.1,0.4-0.1c0.2,0,0.3,0,0.4,0.1c0.1,0.1,0.2,0.2,0.2,0.4s-0.1,0.3-0.2,0.4c-0.1,0.1-0.3,0.2-0.4,0.2 C137.9,44.7,137.7,44.7,137.6,44.6z M137.7,50.3c-0.1-0.1-0.1-0.2-0.1-0.3v-3.8c0-0.2,0-0.3,0.1-0.3s0.2-0.1,0.3-0.1s0.3,0,0.3,0.1 s0.1,0.2,0.1,0.3V50c0,0.2,0,0.3-0.1,0.3c-0.1,0.1-0.2,0.1-0.3,0.1S137.8,50.4,137.7,50.3z M143.7,49.3c0.1,0.1,0.1,0.2,0.1,0.3 c0,0.2-0.1,0.3-0.3,0.5c-0.2,0.1-0.5,0.2-0.7,0.3s-0.5,0.1-0.8,0.1c-0.7,0-1.3-0.2-1.7-0.6c-0.4-0.4-0.6-1-0.6-1.7 c0-0.5,0.1-0.9,0.3-1.3c0.2-0.4,0.4-0.6,0.8-0.9c0.3-0.2,0.7-0.3,1.2-0.3c0.6,0,1.1,0.2,1.5,0.6s0.5,0.9,0.5,1.6 c0,0.3-0.1,0.4-0.3,0.4h-2.9c0.1,1,0.5,1.5,1.4,1.5c0.2,0,0.4,0,0.6-0.1c0.2-0.1,0.3-0.1,0.5-0.2c0,0,0.1,0,0.2-0.1 c0.1,0,0.2-0.1,0.2-0.1C143.6,49.2,143.6,49.3,143.7,49.3z M140.9,46.7c-0.2,0.2-0.4,0.6-0.4,1h2.4c0-0.4-0.1-0.8-0.3-1 s-0.5-0.3-0.8-0.3C141.5,46.4,141.2,46.5,140.9,46.7z M147.7,46.1c0,0.1,0,0.2-0.1,0.3c-0.1,0.1-0.2,0.1-0.4,0.1l-0.3,0 c-0.4,0-0.7,0.2-0.9,0.4c-0.2,0.2-0.3,0.5-0.3,0.9V50c0,0.2,0,0.3-0.1,0.3c-0.1,0.1-0.2,0.1-0.3,0.1s-0.3,0-0.3-0.1 c-0.1-0.1-0.1-0.2-0.1-0.3v-3.8c0-0.1,0-0.3,0.1-0.3s0.2-0.1,0.3-0.1c0.1,0,0.2,0,0.3,0.1s0.1,0.2,0.1,0.3v0.5 c0.1-0.3,0.3-0.5,0.5-0.6c0.2-0.1,0.5-0.2,0.8-0.3l0.1,0C147.6,45.7,147.7,45.8,147.7,46.1z M148.3,50.1c-0.1-0.1-0.2-0.1-0.2-0.2 c0-0.1-0.1-0.2-0.1-0.3c0-0.1,0-0.2,0.1-0.3s0.1-0.1,0.2-0.1c0.1,0,0.2,0.1,0.4,0.2c0.2,0.1,0.4,0.2,0.6,0.2 c0.2,0.1,0.4,0.1,0.7,0.1c0.3,0,0.5-0.1,0.7-0.2c0.2-0.1,0.3-0.3,0.3-0.5c0-0.1,0-0.2-0.1-0.3c-0.1-0.1-0.2-0.1-0.3-0.2 c-0.2-0.1-0.4-0.1-0.7-0.2c-0.6-0.1-1-0.3-1.2-0.5c-0.2-0.2-0.4-0.5-0.4-0.8c0-0.3,0.1-0.5,0.2-0.7s0.4-0.4,0.7-0.5 c0.3-0.1,0.6-0.2,0.9-0.2c0.3,0,0.5,0,0.7,0.1c0.2,0.1,0.5,0.2,0.6,0.3c0.2,0.1,0.3,0.3,0.3,0.5c0,0.1,0,0.2-0.1,0.3 c-0.1,0.1-0.1,0.1-0.2,0.1c-0.1,0-0.1,0-0.2,0s-0.1-0.1-0.2-0.1c-0.2-0.1-0.3-0.2-0.5-0.2s-0.3-0.1-0.6-0.1c-0.3,0-0.5,0.1-0.6,0.2 c-0.2,0.1-0.2,0.3-0.2,0.5c0,0.2,0.1,0.3,0.2,0.4s0.4,0.2,0.8,0.3c0.4,0.1,0.8,0.2,1,0.3s0.4,0.3,0.5,0.4s0.2,0.4,0.2,0.6 c0,0.4-0.2,0.7-0.5,1s-0.8,0.4-1.4,0.4C149.2,50.4,148.7,50.3,148.3,50.1z M82.4,55c0.1,0.1,0.1,0.2,0.1,0.3v5.8 c0,0.1,0,0.3-0.1,0.3c-0.1,0.1-0.2,0.1-0.3,0.1s-0.3,0-0.3-0.1c-0.1-0.1-0.1-0.2-0.1-0.3v-0.4c-0.1,0.3-0.3,0.5-0.6,0.6 c-0.3,0.1-0.6,0.2-0.9,0.2c-0.4,0-0.8-0.1-1.1-0.3s-0.6-0.5-0.7-0.9c-0.2-0.4-0.3-0.8-0.3-1.3c0-0.5,0.1-0.9,0.3-1.3 c0.2-0.4,0.4-0.6,0.7-0.8s0.7-0.3,1.1-0.3c0.3,0,0.7,0.1,0.9,0.2s0.5,0.4,0.6,0.6v-2.4c0-0.1,0-0.2,0.1-0.3c0.1-0.1,0.2-0.1,0.3-0.1 C82.2,54.9,82.3,54.9,82.4,55z M81.2,60.5c0.2-0.3,0.3-0.7,0.3-1.2s-0.1-0.9-0.3-1.2s-0.5-0.4-1-0.4c-0.4,0-0.7,0.1-1,0.4 c-0.2,0.3-0.3,0.7-0.3,1.2c0,0.5,0.1,0.9,0.3,1.2c0.2,0.3,0.6,0.4,1,0.4C80.7,60.9,81,60.8,81.2,60.5z M87.8,57 c0.1,0.1,0.1,0.2,0.1,0.3v3.8c0,0.1,0,0.2-0.1,0.3c-0.1,0.1-0.2,0.1-0.4,0.1c-0.1,0-0.2,0-0.3-0.1C87,61.4,87,61.3,87,61.2v-0.4 c-0.1,0.3-0.3,0.5-0.6,0.6s-0.5,0.2-0.9,0.2c-1.1,0-1.7-0.6-1.7-1.9v-2.5c0-0.1,0-0.3,0.1-0.3s0.2-0.1,0.4-0.1c0.1,0,0.3,0,0.3,0.1 c0.1,0.1,0.1,0.2,0.1,0.3v2.4c0,0.4,0.1,0.6,0.2,0.8c0.2,0.2,0.4,0.3,0.7,0.3c0.4,0,0.7-0.1,0.9-0.4c0.2-0.2,0.3-0.6,0.3-1v-2.2 c0-0.1,0-0.3,0.1-0.3c0.1-0.1,0.2-0.1,0.3-0.1S87.7,56.9,87.8,57z M95.9,58.7v2.5c0,0.1,0,0.3-0.1,0.3c-0.1,0.1-0.2,0.1-0.4,0.1 c-0.1,0-0.3,0-0.3-0.1c-0.1-0.1-0.1-0.2-0.1-0.3v-2.4c0-0.4-0.1-0.7-0.2-0.9s-0.4-0.3-0.7-0.3c-0.4,0-0.7,0.1-0.9,0.4 c-0.2,0.2-0.3,0.6-0.3,1v2.2c0,0.1,0,0.2-0.1,0.3c-0.1,0.1-0.2,0.1-0.3,0.1c-0.1,0-0.3,0-0.3-0.1c-0.1-0.1-0.1-0.2-0.1-0.3v-3.8 c0-0.1,0-0.2,0.1-0.3c0.1-0.1,0.2-0.1,0.3-0.1s0.2,0,0.3,0.1s0.1,0.2,0.1,0.3v0.4c0.2-0.3,0.4-0.5,0.6-0.6c0.3-0.1,0.6-0.2,0.9-0.2 C95.3,56.9,95.9,57.5,95.9,58.7z M101.1,57c0.1,0.1,0.1,0.2,0.1,0.3v3.8c0,0.1,0,0.2-0.1,0.3c-0.1,0.1-0.2,0.1-0.3,0.1 c-0.1,0-0.2,0-0.3-0.1c-0.1-0.1-0.1-0.2-0.1-0.3v-0.4c-0.1,0.3-0.3,0.5-0.6,0.6c-0.3,0.1-0.5,0.2-0.9,0.2c-1.1,0-1.7-0.6-1.7-1.9 v-2.5c0-0.1,0-0.3,0.1-0.3c0.1-0.1,0.2-0.1,0.4-0.1c0.1,0,0.3,0,0.3,0.1s0.1,0.2,0.1,0.3v2.4c0,0.4,0.1,0.6,0.2,0.8 c0.2,0.2,0.4,0.3,0.7,0.3c0.4,0,0.7-0.1,0.9-0.4c0.2-0.2,0.3-0.6,0.3-1v-2.2c0-0.1,0-0.3,0.1-0.3c0.1-0.1,0.2-0.1,0.4-0.1 C100.9,56.9,101,56.9,101.1,57z M109.4,58.7v2.5c0,0.1,0,0.3-0.1,0.3c-0.1,0.1-0.2,0.1-0.4,0.1c-0.1,0-0.3,0-0.3-0.1 c-0.1-0.1-0.1-0.2-0.1-0.3v-2.4c0-0.4-0.1-0.7-0.2-0.8c-0.1-0.2-0.4-0.3-0.7-0.3c-0.3,0-0.6,0.1-0.8,0.4s-0.3,0.6-0.3,1v2.2 c0,0.1,0,0.3-0.1,0.3c-0.1,0.1-0.2,0.1-0.3,0.1c-0.1,0-0.3,0-0.3-0.1c-0.1-0.1-0.1-0.2-0.1-0.3v-2.4c0-0.4-0.1-0.7-0.2-0.8 c-0.1-0.2-0.4-0.3-0.7-0.3c-0.3,0-0.6,0.1-0.8,0.4s-0.3,0.6-0.3,1v2.2c0,0.1,0,0.3-0.1,0.3c-0.1,0.1-0.2,0.1-0.3,0.1s-0.3,0-0.3-0.1 c-0.1-0.1-0.1-0.2-0.1-0.3v-3.8c0-0.1,0-0.2,0.1-0.3c0.1-0.1,0.2-0.1,0.3-0.1s0.2,0,0.3,0.1s0.1,0.2,0.1,0.3v0.4 c0.1-0.3,0.3-0.5,0.6-0.6s0.5-0.2,0.9-0.2c0.4,0,0.6,0.1,0.9,0.2c0.2,0.1,0.4,0.4,0.5,0.7c0.1-0.3,0.3-0.5,0.6-0.6 c0.3-0.2,0.6-0.2,0.9-0.2C108.9,56.9,109.4,57.5,109.4,58.7z M114.5,60.5c0.1,0.1,0.1,0.2,0.1,0.3c0,0.2-0.1,0.3-0.3,0.5 c-0.2,0.1-0.5,0.2-0.7,0.3s-0.5,0.1-0.8,0.1c-0.7,0-1.3-0.2-1.7-0.6c-0.4-0.4-0.6-1-0.6-1.7c0-0.5,0.1-0.9,0.3-1.3 c0.2-0.4,0.4-0.6,0.8-0.9c0.3-0.2,0.7-0.3,1.2-0.3c0.6,0,1.1,0.2,1.5,0.6s0.5,0.9,0.5,1.6c0,0.3-0.1,0.4-0.3,0.4h-2.9 c0.1,1,0.5,1.5,1.4,1.5c0.2,0,0.4,0,0.6-0.1c0.2-0.1,0.3-0.1,0.5-0.2c0,0,0.1,0,0.2-0.1c0.1,0,0.2-0.1,0.2-0.1 C114.4,60.4,114.5,60.5,114.5,60.5z M111.8,57.9c-0.2,0.2-0.4,0.6-0.4,1h2.4c0-0.4-0.1-0.8-0.3-1s-0.5-0.3-0.8-0.3 C112.3,57.6,112,57.7,111.8,57.9z M112.7,56.4c-0.1,0-0.1,0-0.2-0.1c-0.1-0.1-0.1-0.1-0.1-0.2c0-0.1,0-0.1,0.1-0.2l1-1.3 c0.1-0.2,0.3-0.3,0.4-0.3c0.1,0,0.2,0,0.3,0.1s0.1,0.2,0.1,0.3c0,0.1-0.1,0.3-0.2,0.4l-1.3,1.1C112.8,56.4,112.7,56.4,112.7,56.4z  M118.6,57.3c0,0.1,0,0.2-0.1,0.3c-0.1,0.1-0.2,0.1-0.4,0.1l-0.3,0c-0.4,0-0.7,0.2-0.9,0.4c-0.2,0.2-0.3,0.5-0.3,0.9v2.2 c0,0.2,0,0.3-0.1,0.3c-0.1,0.1-0.2,0.1-0.3,0.1s-0.3,0-0.3-0.1c-0.1-0.1-0.1-0.2-0.1-0.3v-3.8c0-0.1,0-0.3,0.1-0.3s0.2-0.1,0.3-0.1 c0.1,0,0.2,0,0.3,0.1s0.1,0.2,0.1,0.3v0.5c0.1-0.3,0.3-0.5,0.5-0.6c0.2-0.1,0.5-0.2,0.8-0.3l0.1,0C118.4,56.9,118.6,57,118.6,57.3z  M119.2,55.8c-0.1-0.1-0.2-0.2-0.2-0.4s0.1-0.3,0.2-0.4c0.1-0.1,0.3-0.1,0.4-0.1c0.2,0,0.3,0,0.4,0.1c0.1,0.1,0.2,0.2,0.2,0.4 s-0.1,0.3-0.2,0.4c-0.1,0.1-0.3,0.2-0.4,0.2C119.5,55.9,119.3,55.9,119.2,55.8z M119.3,61.5c-0.1-0.1-0.1-0.2-0.1-0.3v-3.8 c0-0.2,0-0.3,0.1-0.3c0.1-0.1,0.2-0.1,0.3-0.1s0.3,0,0.3,0.1c0.1,0.1,0.1,0.2,0.1,0.3v3.8c0,0.2,0,0.3-0.1,0.3 c-0.1,0.1-0.2,0.1-0.3,0.1S119.4,61.6,119.3,61.5z M125.6,57c0.1,0.1,0.1,0.2,0.1,0.3v5.5c0,0.1,0,0.2-0.1,0.3s-0.2,0.1-0.3,0.1 s-0.3,0-0.3-0.1s-0.1-0.2-0.1-0.3v-2.1c-0.1,0.3-0.3,0.5-0.6,0.6c-0.3,0.1-0.6,0.2-0.9,0.2c-0.4,0-0.8-0.1-1.1-0.3 c-0.3-0.2-0.6-0.5-0.7-0.8c-0.2-0.4-0.3-0.8-0.3-1.2c0-0.5,0.1-0.9,0.3-1.3c0.2-0.4,0.4-0.6,0.7-0.9c0.3-0.2,0.7-0.3,1.1-0.3 c0.3,0,0.7,0.1,0.9,0.2c0.3,0.2,0.5,0.4,0.6,0.6v-0.4c0-0.1,0-0.3,0.1-0.3c0.1-0.1,0.2-0.1,0.3-0.1C125.4,56.9,125.5,56.9,125.6,57z  M124.4,60.5c0.2-0.3,0.3-0.7,0.3-1.2s-0.1-0.9-0.3-1.2c-0.2-0.3-0.5-0.4-1-0.4c-0.4,0-0.7,0.1-1,0.4c-0.2,0.3-0.3,0.7-0.3,1.2 c0,0.5,0.1,0.9,0.3,1.2c0.2,0.3,0.6,0.4,1,0.4S124.2,60.8,124.4,60.5z M131,57c0.1,0.1,0.1,0.2,0.1,0.3v3.8c0,0.1,0,0.2-0.1,0.3 c-0.1,0.1-0.2,0.1-0.3,0.1c-0.1,0-0.2,0-0.3-0.1c-0.1-0.1-0.1-0.2-0.1-0.3v-0.4c-0.1,0.3-0.3,0.5-0.6,0.6c-0.3,0.1-0.5,0.2-0.9,0.2 c-1.1,0-1.7-0.6-1.7-1.9v-2.5c0-0.1,0-0.3,0.1-0.3c0.1-0.1,0.2-0.1,0.4-0.1c0.1,0,0.3,0,0.3,0.1s0.1,0.2,0.1,0.3v2.4 c0,0.4,0.1,0.6,0.2,0.8c0.2,0.2,0.4,0.3,0.7,0.3c0.4,0,0.7-0.1,0.9-0.4c0.2-0.2,0.3-0.6,0.3-1v-2.2c0-0.1,0-0.3,0.1-0.3 c0.1-0.1,0.2-0.1,0.4-0.1C130.8,56.9,130.9,56.9,131,57z M136.3,60.5c0.1,0.1,0.1,0.2,0.1,0.3c0,0.2-0.1,0.3-0.3,0.5 c-0.2,0.1-0.5,0.2-0.7,0.3s-0.5,0.1-0.8,0.1c-0.7,0-1.3-0.2-1.7-0.6c-0.4-0.4-0.6-1-0.6-1.7c0-0.5,0.1-0.9,0.3-1.3 c0.2-0.4,0.4-0.6,0.8-0.9c0.3-0.2,0.7-0.3,1.2-0.3c0.6,0,1.1,0.2,1.5,0.6s0.5,0.9,0.5,1.6c0,0.3-0.1,0.4-0.3,0.4h-2.9 c0.1,1,0.5,1.5,1.4,1.5c0.2,0,0.4,0,0.6-0.1c0.2-0.1,0.3-0.1,0.5-0.2c0,0,0.1,0,0.2-0.1c0.1,0,0.2-0.1,0.2-0.1 C136.1,60.4,136.2,60.5,136.3,60.5z M133.5,57.9c-0.2,0.2-0.4,0.6-0.4,1h2.4c0-0.4-0.1-0.8-0.3-1s-0.5-0.3-0.8-0.3 C134,57.6,133.7,57.7,133.5,57.9z M91,9.8c1.3,0.6,2.3,1.5,3,2.6s1.1,2.4,1.1,3.8v14.7c0,0.1-0.1,0.3-0.2,0.4 c-0.1,0.1-0.2,0.2-0.4,0.2h-4c-0.1,0-0.3-0.1-0.4-0.2C90,31.2,90,31.1,90,30.9v-1.1c0-0.1,0-0.1-0.1-0.2c-0.1,0-0.1,0-0.2,0 c-1.2,1.4-3,2.1-5.3,2.1c-1.9,0-3.5-0.5-4.9-1.5c-1.3-1-2-2.7-2-5c0-2.4,0.8-4.2,2.3-5.4c1.6-1.2,3.7-1.8,6.4-1.8h3.4 c0.1,0,0.2-0.1,0.2-0.2v-1.1c0-1.1-0.3-1.9-0.9-2.5c-0.6-0.6-1.4-0.9-2.5-0.9c-0.8,0-1.5,0.2-2.1,0.6c-0.5,0.4-0.9,0.9-1,1.6 c-0.1,0.3-0.3,0.5-0.6,0.5l-4.2-0.3c-0.1,0-0.3-0.1-0.4-0.2c-0.1-0.1-0.1-0.2-0.1-0.3c0.2-1.9,1-3.4,2.6-4.5 c1.6-1.2,3.5-1.7,5.8-1.7C88.2,8.9,89.7,9.2,91,9.8z M88.7,26.7c0.8-0.7,1.3-1.5,1.3-2.6v-2.3c0-0.1-0.1-0.2-0.2-0.2h-2.9 c-1.3,0-2.3,0.3-3,0.8c-0.7,0.6-1.1,1.3-1.1,2.4c0,0.9,0.3,1.6,0.8,2.1c0.6,0.5,1.3,0.7,2.2,0.7C86.9,27.7,87.9,27.4,88.7,26.7z  M111.1,9.5c0.2,0.1,0.3,0.3,0.3,0.7l-0.7,4c0,0.3-0.2,0.4-0.6,0.3c-0.4-0.1-0.8-0.2-1.3-0.2c-0.2,0-0.5,0-0.9,0.1 c-1,0.1-1.8,0.5-2.5,1.3c-0.7,0.8-1,1.8-1,3v12.3c0,0.1-0.1,0.3-0.2,0.4c-0.1,0.1-0.2,0.2-0.4,0.2h-4c-0.1,0-0.3-0.1-0.4-0.2 c-0.1-0.1-0.2-0.2-0.2-0.4V9.7c0-0.1,0.1-0.3,0.2-0.4c0.1-0.1,0.2-0.2,0.4-0.2h4c0.1,0,0.3,0.1,0.4,0.2c0.1,0.1,0.2,0.2,0.2,0.4v1.9 c0,0.1,0,0.2,0.1,0.2c0,0,0.1,0,0.2-0.1c1-1.8,2.5-2.7,4.4-2.7C109.8,9,110.5,9.1,111.1,9.5z M114.8,5.3c-0.6-0.6-0.8-1.3-0.8-2.2 s0.3-1.6,0.8-2.2S116.1,0,117,0c0.9,0,1.7,0.3,2.2,0.8c0.6,0.6,0.8,1.3,0.8,2.2c0,0.9-0.3,1.6-0.9,2.2c-0.6,0.6-1.3,0.9-2.2,0.9 S115.4,5.9,114.8,5.3z M114.6,31.3c-0.1-0.1-0.2-0.2-0.2-0.4V9.7c0-0.1,0.1-0.3,0.2-0.4c0.1-0.1,0.2-0.2,0.4-0.2h4 c0.1,0,0.3,0.1,0.4,0.2c0.1,0.1,0.2,0.2,0.2,0.4v21.2c0,0.1-0.1,0.3-0.2,0.4c-0.1,0.1-0.2,0.2-0.4,0.2h-4 C114.8,31.5,114.7,31.4,114.6,31.3z M139.5,10.9c1.2,1.3,1.8,3.2,1.8,5.5v14.5c0,0.1-0.1,0.3-0.2,0.4c-0.1,0.1-0.2,0.2-0.4,0.2h-4 c-0.1,0-0.3-0.1-0.4-0.2c-0.1-0.1-0.2-0.2-0.2-0.4V17.1c0-1.2-0.3-2.1-0.9-2.8c-0.6-0.7-1.4-1-2.4-1c-1,0-1.9,0.4-2.5,1.1 c-0.6,0.7-0.9,1.7-0.9,2.8v13.8c0,0.1-0.1,0.3-0.2,0.4c-0.1,0.1-0.2,0.2-0.4,0.2h-4c-0.1,0-0.3-0.1-0.4-0.2 c-0.1-0.1-0.2-0.2-0.2-0.4V9.7c0-0.1,0-0.3,0.2-0.4c0.1-0.1,0.2-0.2,0.4-0.2h4c0.1,0,0.3,0.1,0.4,0.2c0.1,0.1,0.2,0.2,0.2,0.4v1.1 c0,0.1,0,0.1,0.1,0.2c0.1,0,0.1,0,0.2-0.1c1.2-1.4,2.8-2.1,4.8-2.1C136.7,8.9,138.3,9.5,139.5,10.9z M156.5,9.4 c0.1,0.1,0.2,0.2,0.2,0.4v3c0,0.1-0.1,0.3-0.2,0.4c-0.1,0.1-0.2,0.2-0.4,0.2h-3.5c-0.1,0-0.2,0.1-0.2,0.2v17.5 c0,0.1-0.1,0.3-0.2,0.4c-0.1,0.1-0.2,0.2-0.4,0.2h-4c-0.1,0-0.3-0.1-0.4-0.2c-0.1-0.1-0.2-0.2-0.2-0.4V13.4c0-0.1-0.1-0.2-0.2-0.2 h-2.1c-0.1,0-0.3,0-0.4-0.2c-0.1-0.1-0.2-0.2-0.2-0.4v-3c0-0.1,0.1-0.3,0.2-0.4c0.1-0.1,0.2-0.2,0.4-0.2h2.1c0.1,0,0.2-0.1,0.2-0.2 v-1c0-1.8,0.3-3.3,0.8-4.3s1.3-1.8,2.4-2.2c1.1-0.4,2.6-0.7,4.5-0.6h0.9c0.1,0,0.3,0.1,0.4,0.2c0.1,0.1,0.2,0.2,0.2,0.4v3 c0,0.1-0.1,0.3-0.2,0.4C156.3,4.9,156.1,5,156,5h-0.7c-1.1,0-1.8,0.3-2.3,0.8c-0.4,0.5-0.7,1.4-0.7,2.6V9c0,0.1,0.1,0.2,0.2,0.2h3.5 C156.3,9.2,156.4,9.3,156.5,9.4z M162,29.9c-1.5-1.3-2.4-3-2.7-5.1c-0.2-1.4-0.3-2.9-0.3-4.5c0-1.7,0.1-3.2,0.3-4.6 c0.3-2.1,1.2-3.8,2.8-5c1.5-1.2,3.5-1.8,5.8-1.8c2.3,0,4.2,0.6,5.7,1.8c1.5,1.2,2.4,2.9,2.7,5c0.2,1.5,0.3,3,0.3,4.6 c0,1.7-0.1,3.2-0.3,4.5c-0.3,2.2-1.2,3.9-2.7,5.2c-1.5,1.3-3.4,1.9-5.8,1.9C165.5,31.8,163.6,31.2,162,29.9z M170.2,26.5 c0.7-0.6,1.1-1.5,1.2-2.5c0.1-1.5,0.2-2.7,0.2-3.7c0-1-0.1-2.2-0.2-3.7c-0.1-1-0.5-1.9-1.2-2.5c-0.7-0.6-1.5-0.9-2.4-0.9 c-1,0-1.8,0.3-2.4,0.9c-0.6,0.6-1,1.4-1.2,2.5c-0.1,1-0.2,2.2-0.2,3.7c0,1.5,0.1,2.7,0.2,3.7c0.1,1,0.5,1.9,1.2,2.5 c0.6,0.6,1.4,1,2.4,1C168.8,27.5,169.6,27.1,170.2,26.5z"></path></svg>