<svg xmlns="http://www.w3.org/2000/svg" xmlns:xlink="http://www.w3.org/1999/xlink" id="Calque_1" data-name="Calque 1" viewBox="0 0 221.51 222.99"><defs><style>      .cls-1 {        fill: url(#Dégradé_sans_nom_5-2);      }      .cls-2 {        fill: url(#Dégradé_sans_nom_5);      }      .cls-3 {        fill: url(#Dégradé_sans_nom_5-3);      }    </style><linearGradient id="Dégradé_sans_nom_5" data-name="Dégradé sans nom 5" x1="-10.62" y1="5.36" x2="218.84" y2="227.93" gradientUnits="userSpaceOnUse"><stop offset="0" stop-color="#ea235f"></stop><stop offset="1" stop-color="#2e5c9f"></stop></linearGradient><linearGradient id="Dégradé_sans_nom_5-2" data-name="Dégradé sans nom 5" x1="-64.59" y1="61.01" x2="164.87" y2="283.57" xlink:href="#Dégradé_sans_nom_5"></linearGradient><linearGradient id="Dégradé_sans_nom_5-3" data-name="Dégradé sans nom 5" x1="-3.73" y1="-1.74" x2="225.74" y2="220.82" xlink:href="#Dégradé_sans_nom_5"></linearGradient></defs><path class="cls-2" d="M221.51,222.99h-45.81v-89.32c-.31-8.41-4.17-13.91-4.42-14.29-8.65-12.97-30.86-11.09-39.87-.99-2.13,2.39-7.53,8.5-7.62,18.34v86.27h-45.81V74.89h44.28l.76,19.86c15.84-31.38,70.55-32.71,89.07-3.59,3.59,5.64,9.59,19.02,9.41,31.82v100.01Z"></path><rect class="cls-1" x="3.16" y="74.89" width="45.81" height="148.11"></rect><path class="cls-3" d="M21.09.44c35.41-5.88,42.76,48.85,8.65,52.94C-5.99,57.68-10.33,5.66,21.09.44Z"></path></svg>