<svg xmlns="http://www.w3.org/2000/svg" id="Logos" viewBox="0 0 95.82 36.73"><path d="m3.96,1.99s.07.1.07.17v1.33c0,.13-.02.22-.05.28-.04.06-.11.1-.21.14-.15.06-.33.11-.54.14s-.42.05-.62.05c-.41,0-.76-.08-1.05-.25-.3-.16-.52-.4-.68-.71-.16-.31-.23-.68-.23-1.11s.08-.79.23-1.09c.16-.31.38-.54.67-.71.29-.17.63-.25,1.02-.25.27,0,.51.04.74.12.23.08.42.19.58.34.08.06.11.14.11.23,0,.07-.02.13-.06.17-.04.05-.08.07-.14.07-.03,0-.06,0-.09-.02-.03-.01-.06-.03-.1-.06-.19-.14-.36-.23-.51-.29-.15-.05-.33-.08-.52-.08-.43,0-.76.13-.99.4s-.34.66-.34,1.17.12.92.35,1.18c.23.27.58.4,1.03.4.3,0,.6-.05.88-.14v-1.12h-.75c-.08,0-.14-.02-.18-.06-.04-.04-.07-.09-.07-.16s.02-.12.07-.16c.04-.04.1-.06.18-.06h1.04c.07,0,.13.02.17.06Zm4.14,1.86c0,.07-.03.13-.08.17-.06.05-.12.07-.19.07-.11,0-.19-.05-.26-.14l-.76-1.19c-.09-.14-.18-.23-.28-.29-.1-.05-.23-.08-.39-.08h-.64v1.39c0,.09-.03.16-.08.22s-.12.08-.21.08-.16-.03-.21-.08-.08-.13-.08-.22V.33c0-.09.03-.16.08-.21s.12-.08.21-.08h1.42c.44,0,.78.1,1.02.3.23.2.35.49.35.87,0,.32-.09.57-.27.77s-.43.32-.76.37c.1.03.19.07.27.14.08.07.16.16.23.29l.59.92s.05.1.05.16Zm-1.54-1.93c.3,0,.52-.06.66-.17.14-.12.21-.3.21-.54s-.07-.42-.21-.53c-.14-.11-.36-.17-.66-.17h-1.07v1.41h1.07Zm3,1.93c-.28-.17-.5-.4-.65-.71-.15-.31-.23-.67-.23-1.09s.08-.79.23-1.1c.15-.31.37-.55.65-.71.28-.17.61-.25.99-.25s.72.08,1,.25c.28.17.5.4.65.71.15.31.23.67.23,1.09s-.07.78-.23,1.09c-.15.31-.37.55-.65.72-.28.17-.61.25-1,.25s-.71-.08-.99-.25Zm1.93-.64c.22-.27.34-.66.34-1.17s-.11-.89-.33-1.17c-.22-.27-.54-.41-.94-.41s-.71.14-.93.41c-.22.27-.33.66-.33,1.17s.11.9.33,1.17c.22.27.53.41.93.41s.72-.14.94-.41Zm2.11.47c-.28-.28-.42-.69-.42-1.23V.31c0-.09.03-.16.08-.22s.12-.08.21-.08.16.03.21.08.08.13.08.22v2.19c0,.37.09.65.26.84.18.19.44.29.79.29s.61-.1.79-.29.27-.47.27-.84V.31c0-.09.03-.16.08-.21s.12-.08.21-.08.16.03.21.08.08.13.08.22v2.15c0,.54-.14.94-.42,1.22-.28.28-.69.42-1.22.42s-.94-.14-1.22-.42Zm3.84.32c-.05-.05-.08-.13-.08-.22V.33c0-.09.03-.16.08-.21s.12-.08.21-.08h1.37c.43,0,.76.1.99.31.24.21.35.51.35.89s-.12.68-.35.89c-.24.21-.57.32-.99.32h-1.08v1.34c0,.09-.03.16-.08.22s-.12.08-.22.08c-.09,0-.16-.03-.21-.08Zm2.37-2.76c0-.49-.28-.73-.84-.73h-1.01v1.46h1.01c.56,0,.84-.25.84-.74Zm1.35,2.74c-.05-.05-.08-.12-.08-.21V.33c0-.09.03-.16.08-.21s.12-.08.21-.08h2.1c.09,0,.15.02.2.06.05.04.07.1.07.18s-.02.13-.07.17c-.05.04-.12.06-.2.06h-1.81v1.27h1.7c.09,0,.15.02.2.06.05.04.07.1.07.18s-.02.13-.07.18c-.05.04-.11.06-.2.06h-1.7v1.33h1.81c.18,0,.27.08.27.23,0,.08-.02.13-.07.18-.05.04-.12.06-.2.06h-2.1c-.09,0-.16-.03-.21-.08ZM.76,35.81s-.07-.1-.07-.18v-2.88c0-.07.02-.13.06-.17.04-.04.1-.06.18-.06h1.14c.35,0,.63.09.82.26.2.17.29.42.29.74s-.1.56-.29.74c-.2.18-.47.26-.82.26h-.89v1.11c0,.08-.02.14-.06.18-.04.04-.1.07-.18.07-.07,0-.13-.02-.17-.07Zm1.96-2.29c0-.4-.23-.61-.7-.61h-.84v1.22h.84c.47,0,.7-.2.7-.61Zm1.32,2.22c-.17-.1-.3-.24-.4-.42-.09-.18-.14-.39-.14-.63s.05-.45.14-.64c.09-.18.23-.32.4-.42s.37-.15.6-.15.43.05.6.15.3.24.4.42c.09.18.14.39.14.64s-.05.45-.14.63c-.09.18-.23.32-.4.42-.17.1-.37.15-.6.15s-.43-.05-.6-.15Zm1.08-.44c.11-.14.17-.34.17-.61s-.06-.47-.17-.61c-.11-.14-.27-.21-.48-.21s-.37.07-.48.21c-.11.14-.17.34-.17.61s.06.47.17.61.27.21.48.21.37-.07.48-.21Zm3.14-1.74s.06.1.06.17v1.92c0,.07-.02.12-.07.16-.04.04-.1.06-.18.06-.07,0-.12-.02-.16-.06-.04-.04-.06-.09-.06-.16v-.18c-.07.13-.17.23-.3.3-.13.07-.27.1-.43.1-.56,0-.84-.31-.84-.93v-1.23c0-.07.02-.13.06-.17.04-.04.1-.06.18-.06s.13.02.17.06c.04.04.06.1.06.17v1.22c0,.19.04.32.11.41.08.09.19.13.35.13.19,0,.34-.06.45-.18.11-.12.17-.28.17-.48v-1.11c0-.07.02-.13.07-.17.04-.04.1-.06.18-.06s.13.02.17.06Zm2.17.13c0,.07-.02.12-.05.16s-.09.06-.18.06h-.14c-.2.03-.35.1-.44.22s-.14.26-.14.44v1.08c0,.08-.02.13-.07.17-.04.04-.1.06-.17.06s-.13-.02-.17-.06c-.05-.04-.07-.09-.07-.17v-1.92c0-.07.02-.13.07-.17.05-.04.1-.06.17-.06.06,0,.12.02.16.06.04.04.06.09.06.16v.23c.06-.14.15-.24.27-.32.12-.07.26-.12.41-.13h.07c.15-.01.23.05.23.19Zm3.61-.13s.06.1.06.17v2.77c0,.07-.02.12-.07.17-.04.04-.1.06-.18.06s-.13-.02-.17-.06c-.04-.04-.06-.09-.06-.16v-1.04c-.07.14-.17.24-.3.31-.13.07-.28.11-.46.11-.2,0-.38-.05-.54-.15-.16-.1-.28-.24-.36-.42-.08-.18-.13-.39-.13-.62s.04-.45.13-.63c.09-.18.21-.32.36-.43.16-.1.33-.15.53-.15.17,0,.33.04.46.11.13.08.23.18.3.32v-.19c0-.07.02-.13.06-.17s.1-.06.17-.06.13.02.17.06Zm-.58,1.73c.11-.14.17-.34.17-.61s-.06-.46-.17-.61c-.11-.14-.27-.21-.48-.21s-.37.07-.48.22c-.12.15-.17.35-.17.61s.06.46.17.6c.11.14.28.21.48.21s.37-.07.48-.21Zm3.27-1.74s.06.1.06.17v1.92c0,.07-.02.12-.07.16-.04.04-.1.06-.18.06-.07,0-.12-.02-.16-.06-.04-.04-.06-.09-.06-.16v-.18c-.07.13-.17.23-.3.3-.13.07-.27.1-.43.1-.56,0-.84-.31-.84-.93v-1.23c0-.07.02-.13.06-.17.04-.04.1-.06.18-.06s.13.02.17.06c.04.04.06.1.06.17v1.22c0,.19.04.32.11.41.08.09.19.13.35.13.19,0,.34-.06.45-.18.11-.12.17-.28.17-.48v-1.11c0-.07.02-.13.07-.17.04-.04.1-.06.18-.06s.13.02.17.06Zm2.65,1.76s.04.08.04.13c0,.09-.06.17-.17.23-.11.06-.23.11-.36.15s-.26.05-.38.05c-.37,0-.65-.11-.87-.32-.21-.21-.32-.5-.32-.87,0-.24.05-.45.14-.63.09-.18.22-.32.39-.43.17-.1.36-.15.57-.15.31,0,.55.1.73.3s.27.47.27.8c0,.13-.06.19-.17.19h-1.46c.03.49.27.73.71.73.12,0,.22-.02.3-.05.08-.03.17-.07.27-.12,0,0,.04-.02.08-.04.04-.02.08-.03.11-.03.04,0,.08.02.11.05Zm-1.37-1.31c-.11.12-.18.28-.2.49h1.22c0-.21-.06-.38-.16-.49-.1-.12-.24-.17-.42-.17s-.33.06-.44.18Zm3.28,1.81s-.07-.09-.07-.17v-2.92c0-.08.02-.13.07-.17.05-.04.1-.06.17-.06s.13.02.17.06c.04.04.07.1.07.17v2.92c0,.08-.02.13-.07.17-.04.04-.1.06-.17.06s-.13-.02-.17-.06Zm2.99-.5s.04.08.04.13c0,.09-.06.17-.17.23-.11.06-.23.11-.36.15s-.26.05-.38.05c-.37,0-.65-.11-.87-.32-.21-.21-.32-.5-.32-.87,0-.24.05-.45.14-.63.09-.18.22-.32.39-.43.17-.1.36-.15.57-.15.31,0,.55.1.73.3s.27.47.27.8c0,.13-.06.19-.17.19h-1.46c.03.49.27.73.71.73.12,0,.22-.02.3-.05.08-.03.17-.07.27-.12,0,0,.04-.02.08-.04.04-.02.08-.03.11-.03.04,0,.08.02.11.05Zm-1.37-1.31c-.11.12-.18.28-.2.49h1.22c0-.21-.06-.38-.16-.49-.1-.12-.24-.17-.42-.17s-.33.06-.44.18Zm4.93-.48s.07-.03.12-.03c.06,0,.11.02.16.06.05.04.07.09.07.15,0,.03,0,.06-.02.09l-.9,1.92c-.02.05-.06.09-.1.12-.05.03-.09.04-.14.04s-.1-.01-.14-.04c-.05-.03-.08-.07-.1-.12l-.9-1.92s-.02-.06-.02-.09c0-.06.03-.11.08-.15.05-.04.11-.06.17-.06.09,0,.16.04.2.13l.73,1.63.73-1.62s.05-.08.08-.1Zm.83-.58c-.05-.05-.08-.12-.08-.2s.03-.15.08-.2c.05-.05.13-.07.22-.07s.16.02.22.07.08.11.08.2-.03.15-.08.2c-.05.05-.13.08-.22.08s-.16-.03-.22-.08Zm.04,2.86s-.07-.09-.07-.17v-1.92c0-.08.02-.13.07-.17.05-.04.1-.06.17-.06s.13.02.17.06c.04.04.07.1.07.17v1.92c0,.08-.02.13-.07.17-.04.04-.1.06-.17.06s-.13-.02-.17-.06Zm2.51-2.13c0,.07-.02.12-.05.16s-.09.06-.18.06h-.14c-.2.03-.35.1-.44.22s-.14.26-.14.44v1.08c0,.08-.02.13-.07.17-.04.04-.1.06-.17.06s-.13-.02-.17-.06c-.05-.04-.07-.09-.07-.17v-1.92c0-.07.02-.13.07-.17.05-.04.1-.06.17-.06.06,0,.12.02.16.06.04.04.06.09.06.16v.23c.06-.14.15-.24.27-.32.12-.07.26-.12.41-.13h.07c.15-.01.23.05.23.19Zm1.77,1.88s.04.07.04.13c0,.06-.02.11-.07.14s-.12.05-.21.04h-.13c-.26-.03-.45-.11-.57-.24-.13-.14-.19-.34-.19-.61v-1.11h-.28c-.14,0-.21-.06-.21-.18,0-.06.02-.1.05-.14.04-.03.09-.05.15-.05h.28v-.49c0-.07.02-.13.06-.17s.1-.06.17-.06.13.02.17.06c.04.04.07.1.07.17v.49h.47c.07,0,.12.02.15.05.04.03.05.08.05.14s-.02.11-.05.14c-.04.03-.09.05-.15.05h-.47v1.15c0,.15.03.26.09.33s.16.11.28.12h.13c.07.02.12.03.15.06Zm2.35-2.01s.06.1.06.17v1.92c0,.07-.02.12-.07.16-.04.04-.1.06-.18.06-.07,0-.12-.02-.16-.06-.04-.04-.06-.09-.06-.16v-.18c-.07.13-.17.23-.3.3-.13.07-.27.1-.43.1-.56,0-.84-.31-.84-.93v-1.23c0-.07.02-.13.06-.17.04-.04.1-.06.18-.06s.13.02.17.06c.04.04.06.1.06.17v1.22c0,.19.04.32.11.41.08.09.19.13.35.13.19,0,.34-.06.45-.18.11-.12.17-.28.17-.48v-1.11c0-.07.02-.13.07-.17.04-.04.1-.06.18-.06s.13.02.17.06Zm2.65,1.76s.04.08.04.13c0,.09-.06.17-.17.23-.11.06-.23.11-.36.15s-.26.05-.38.05c-.37,0-.65-.11-.87-.32-.21-.21-.32-.5-.32-.87,0-.24.05-.45.14-.63.09-.18.22-.32.39-.43.17-.1.36-.15.57-.15.31,0,.55.1.73.3s.27.47.27.8c0,.13-.06.19-.17.19h-1.46c.03.49.27.73.71.73.12,0,.22-.02.3-.05.08-.03.17-.07.27-.12,0,0,.04-.02.08-.04.04-.02.08-.03.11-.03.04,0,.08.02.11.05Zm-1.37-1.31c-.11.12-.18.28-.2.49h1.22c0-.21-.06-.38-.16-.49-.1-.12-.24-.17-.42-.17s-.33.06-.44.18Zm2.03,1.81s-.07-.09-.07-.17v-2.92c0-.08.02-.13.07-.17.05-.04.1-.06.17-.06s.13.02.17.06c.04.04.07.1.07.17v2.92c0,.08-.02.13-.07.17-.04.04-.1.06-.17.06s-.13-.02-.17-.06Zm4.39-3.26s.07.1.07.17v2.92c0,.07-.02.13-.06.17-.04.04-.1.06-.17.06s-.13-.02-.17-.06c-.04-.04-.06-.1-.06-.17v-.19c-.07.14-.17.25-.3.32-.13.07-.29.11-.46.11-.2,0-.38-.05-.53-.15s-.28-.24-.36-.43c-.09-.18-.13-.39-.13-.63s.04-.45.13-.63c.09-.18.21-.32.36-.42.15-.1.33-.15.53-.15.17,0,.33.04.46.11s.23.18.3.31v-1.2c0-.07.02-.12.06-.16.04-.04.1-.06.17-.06s.13.02.18.06Zm-.58,2.74c.11-.14.17-.34.17-.61s-.06-.46-.17-.61c-.11-.14-.27-.21-.48-.21s-.37.07-.48.21c-.12.14-.17.34-.17.6s.06.46.17.61c.12.15.28.22.48.22s.36-.07.48-.21Zm3.23.03s.04.08.04.13c0,.09-.06.17-.17.23-.11.06-.23.11-.36.15s-.26.05-.38.05c-.37,0-.65-.11-.87-.32-.21-.21-.32-.5-.32-.87,0-.24.05-.45.14-.63.09-.18.22-.32.39-.43.17-.1.36-.15.57-.15.31,0,.55.1.73.3s.27.47.27.8c0,.13-.06.19-.17.19h-1.46c.03.49.27.73.71.73.12,0,.22-.02.3-.05.08-.03.17-.07.27-.12,0,0,.04-.02.08-.04.04-.02.08-.03.11-.03.04,0,.08.02.11.05Zm-1.37-1.31c-.11.12-.18.28-.2.49h1.22c0-.21-.06-.38-.16-.49-.1-.12-.24-.17-.42-.17s-.33.06-.44.18Zm3.65-.48s.07-.03.12-.03c.06,0,.11.02.16.06.05.04.07.09.07.15,0,.03,0,.06-.02.09l-.9,1.92c-.02.05-.06.09-.1.12-.05.03-.09.04-.14.04s-.1-.01-.14-.04c-.05-.03-.08-.07-.1-.12l-.9-1.92s-.02-.06-.02-.09c0-.06.03-.11.08-.15.05-.04.11-.06.17-.06.09,0,.16.04.2.13l.73,1.63.73-1.62s.05-.08.08-.1Zm.83-.58c-.05-.05-.08-.12-.08-.2s.03-.15.08-.2c.05-.05.13-.07.22-.07s.16.02.22.07.08.11.08.2-.03.15-.08.2c-.05.05-.13.08-.22.08s-.16-.03-.22-.08Zm.04,2.86s-.07-.09-.07-.17v-1.92c0-.08.02-.13.07-.17.05-.04.1-.06.17-.06s.13.02.17.06c.04.04.07.1.07.17v1.92c0,.08-.02.13-.07.17-.04.04-.1.06-.17.06s-.13-.02-.17-.06Zm2.99-.5s.04.08.04.13c0,.09-.06.17-.17.23-.11.06-.23.11-.36.15s-.26.05-.38.05c-.37,0-.65-.11-.87-.32-.21-.21-.32-.5-.32-.87,0-.24.05-.45.14-.63.09-.18.22-.32.39-.43.17-.1.36-.15.57-.15.31,0,.55.1.73.3s.27.47.27.8c0,.13-.06.19-.17.19h-1.46c.03.49.27.73.71.73.12,0,.22-.02.3-.05.08-.03.17-.07.27-.12,0,0,.04-.02.08-.04.04-.02.08-.03.11-.03.04,0,.08.02.11.05Zm-1.37-1.31c-.11.12-.18.28-.2.49h1.22c0-.21-.06-.38-.16-.49-.1-.12-.24-.17-.42-.17s-.33.06-.44.18Zm4.03.41v1.23c0,.07-.02.13-.06.17-.04.04-.1.06-.18.06s-.13-.02-.17-.06c-.04-.04-.06-.1-.06-.17v-1.21c0-.2-.04-.34-.12-.43s-.2-.14-.36-.14c-.19,0-.35.06-.46.18s-.18.28-.18.48v1.11c0,.07-.02.12-.06.17-.04.04-.1.06-.17.06s-.13-.02-.17-.06c-.04-.04-.07-.1-.07-.17v-1.92c0-.07.02-.12.07-.16.05-.04.1-.06.17-.06s.12.02.17.06.06.09.06.16v.19c.08-.14.18-.24.32-.32.14-.07.29-.11.46-.11.55,0,.83.31.83.93Zm2.72,0v1.23c0,.07-.02.13-.06.17-.04.04-.1.06-.18.06s-.13-.02-.17-.06c-.04-.04-.06-.1-.06-.17v-1.21c0-.2-.04-.34-.12-.43s-.2-.14-.36-.14c-.19,0-.35.06-.46.18s-.18.28-.18.48v1.11c0,.07-.02.12-.06.17-.04.04-.1.06-.17.06s-.13-.02-.17-.06c-.04-.04-.07-.1-.07-.17v-1.92c0-.07.02-.12.07-.16.05-.04.1-.06.17-.06s.12.02.17.06.06.09.06.16v.19c.08-.14.18-.24.32-.32.14-.07.29-.11.46-.11.55,0,.83.31.83.93Zm2.57.9s.04.08.04.13c0,.09-.06.17-.17.23-.11.06-.23.11-.36.15s-.26.05-.38.05c-.37,0-.65-.11-.87-.32-.21-.21-.32-.5-.32-.87,0-.24.05-.45.14-.63.09-.18.22-.32.39-.43.17-.1.36-.15.57-.15.31,0,.55.1.73.3s.27.47.27.8c0,.13-.06.19-.17.19h-1.46c.03.49.27.73.71.73.12,0,.22-.02.3-.05.08-.03.17-.07.27-.12,0,0,.04-.02.08-.04.04-.02.08-.03.11-.03.04,0,.08.02.11.05Zm-1.37-1.31c-.11.12-.18.28-.2.49h1.22c0-.21-.06-.38-.16-.49-.1-.12-.24-.17-.42-.17s-.33.06-.44.18Zm4.64-.32c0,.07-.02.12-.05.16s-.09.06-.18.06h-.14c-.2.03-.35.1-.44.22s-.14.26-.14.44v1.08c0,.08-.02.13-.07.17-.04.04-.1.06-.17.06s-.13-.02-.17-.06c-.05-.04-.07-.09-.07-.17v-1.92c0-.07.02-.13.07-.17.05-.04.1-.06.17-.06.06,0,.12.02.16.06.04.04.06.09.06.16v.23c.06-.14.15-.24.27-.32.12-.07.26-.12.41-.13h.07c.15-.01.23.05.23.19Zm2.16,1.63s.04.08.04.13c0,.09-.06.17-.17.23-.11.06-.23.11-.36.15s-.26.05-.38.05c-.37,0-.65-.11-.87-.32-.21-.21-.32-.5-.32-.87,0-.24.05-.45.14-.63.09-.18.22-.32.39-.43.17-.1.36-.15.57-.15.31,0,.55.1.73.3s.27.47.27.8c0,.13-.06.19-.17.19h-1.46c.03.49.27.73.71.73.12,0,.22-.02.3-.05.08-.03.17-.07.27-.12,0,0,.04-.02.08-.04.04-.02.08-.03.11-.03.04,0,.08.02.11.05Zm-1.37-1.31c-.11.12-.18.28-.2.49h1.22c0-.21-.06-.38-.16-.49-.1-.12-.24-.17-.42-.17s-.33.06-.44.18Zm.44-.75s-.07-.01-.09-.04c-.03-.03-.04-.06-.04-.09,0-.03.01-.06.03-.09l.51-.67c.06-.08.14-.13.22-.13.06,0,.11.02.15.06s.06.09.06.15c0,.07-.04.14-.11.2l-.64.56s-.06.03-.09.03Zm3.17.45c.15.15.22.39.22.71v1.22c0,.07-.02.13-.06.17-.04.04-.1.06-.17.06s-.12-.02-.17-.06c-.04-.04-.06-.1-.06-.17v-.17c-.06.13-.15.23-.27.31s-.26.11-.41.11-.29-.03-.41-.09c-.12-.06-.22-.15-.3-.25-.07-.11-.11-.23-.11-.36,0-.17.04-.3.13-.4s.23-.17.43-.21c.2-.04.47-.06.83-.06h.11v-.14c0-.18-.04-.3-.11-.38-.07-.08-.19-.12-.35-.12-.11,0-.21.01-.31.04-.1.03-.21.07-.32.12-.09.05-.15.07-.18.07-.05,0-.09-.02-.12-.05-.03-.03-.04-.08-.04-.13,0-.05.01-.09.04-.13.03-.04.07-.07.13-.11.11-.06.24-.11.39-.14.15-.04.29-.05.43-.05.31,0,.53.08.68.23Zm-.4,1.63c.11-.12.17-.27.17-.46v-.12h-.09c-.25,0-.44.01-.57.03-.13.02-.23.06-.28.11-.06.05-.08.13-.08.22,0,.11.04.21.12.28.08.07.18.11.31.11.17,0,.31-.06.43-.18Zm1.35.47s-.07-.09-.07-.17v-2.92c0-.08.02-.13.07-.17.05-.04.1-.06.17-.06s.13.02.17.06c.04.04.07.1.07.17v2.92c0,.08-.02.13-.07.17-.04.04-.1.06-.17.06s-.13-.02-.17-.06Zm1.1-2.86c-.05-.05-.08-.12-.08-.2s.03-.15.08-.2c.05-.05.13-.07.22-.07s.16.02.22.07.08.11.08.2-.03.15-.08.2c-.05.05-.13.08-.22.08s-.16-.03-.22-.08Zm.04,2.86s-.07-.09-.07-.17v-1.92c0-.08.02-.13.07-.17.05-.04.1-.06.17-.06s.13.02.17.06c.04.04.07.1.07.17v1.92c0,.08-.02.13-.07.17-.04.04-.1.06-.17.06s-.13-.02-.17-.06Zm2.42-.25s.04.07.04.13c0,.06-.02.11-.07.14s-.12.05-.21.04h-.13c-.26-.03-.45-.11-.57-.24-.13-.14-.19-.34-.19-.61v-1.11h-.28c-.14,0-.21-.06-.21-.18,0-.06.02-.1.05-.14.04-.03.09-.05.15-.05h.28v-.49c0-.07.02-.13.06-.17s.1-.06.17-.06.13.02.17.06c.04.04.07.1.07.17v.49h.47c.07,0,.12.02.15.05.04.03.05.08.05.14s-.02.11-.05.14c-.04.03-.09.05-.15.05h-.47v1.15c0,.15.03.26.09.33s.16.11.28.12h.13c.07.02.12.03.15.06Zm2.31-.24s.04.08.04.13c0,.09-.06.17-.17.23-.11.06-.23.11-.36.15s-.26.05-.38.05c-.37,0-.65-.11-.87-.32-.21-.21-.32-.5-.32-.87,0-.24.05-.45.14-.63.09-.18.22-.32.39-.43.17-.1.36-.15.57-.15.31,0,.55.1.73.3s.27.47.27.8c0,.13-.06.19-.17.19h-1.46c.03.49.27.73.71.73.12,0,.22-.02.3-.05.08-.03.17-.07.27-.12,0,0,.04-.02.08-.04.04-.02.08-.03.11-.03.04,0,.08.02.11.05Zm-1.37-1.31c-.11.12-.18.28-.2.49h1.22c0-.21-.06-.38-.16-.49-.1-.12-.24-.17-.42-.17s-.33.06-.44.18Zm.44-.75s-.07-.01-.09-.04c-.03-.03-.04-.06-.04-.09,0-.03.01-.06.03-.09l.51-.67c.06-.08.14-.13.22-.13.06,0,.11.02.15.06s.06.09.06.15c0,.07-.04.14-.11.2l-.64.56s-.06.03-.09.03Zm2.78,2.53c-.06-.06-.09-.13-.09-.22s.03-.16.09-.22.13-.09.22-.09.16.03.21.09c.06.06.08.13.08.22s-.03.16-.08.22c-.06.06-.13.08-.21.08s-.16-.03-.22-.08Zm.12-.88s-.04-.07-.05-.11l-.14-2.01c0-.09.01-.16.07-.21s.13-.08.22-.08.16.03.22.08c.05.06.08.13.07.21l-.14,2.01c0,.05-.02.09-.04.12s-.06.04-.1.04c-.04,0-.07-.01-.1-.04ZM30.49,13.41c.65.77.97,1.85.97,3.22v8.38c0,.08-.03.16-.09.21-.06.06-.13.09-.21.09h-2.29c-.08,0-.15-.03-.21-.09-.06-.06-.09-.13-.09-.21v-7.98c0-.7-.17-1.26-.5-1.66-.34-.4-.78-.6-1.33-.6-.59,0-1.05.2-1.4.6-.34.4-.52.95-.52,1.64v8c0,.08-.03.16-.09.21s-.13.09-.21.09h-2.32c-.08,0-.16-.03-.21-.09-.06-.06-.09-.13-.09-.21v-7.98c0-.7-.17-1.26-.5-1.66-.34-.4-.78-.6-1.33-.6-.59,0-1.05.2-1.4.6-.34.4-.52.95-.52,1.64v8c0,.08-.03.16-.09.21-.06.06-.13.09-.21.09h-2.29c-.08,0-.16-.03-.21-.09-.06-.06-.09-.13-.09-.21v-12.26c0-.08.03-.15.09-.21s.13-.09.21-.09h2.29c.08,0,.15.03.21.09s.09.13.09.21v.63s.02.08.05.09c.03,0,.07,0,.1-.04.69-.79,1.62-1.18,2.79-1.18.74,0,1.38.16,1.91.47.54.31.96.75,1.26,1.32.03.03.07.05.1.05s.06-.03.08-.1c.39-.6.87-1.04,1.45-1.32.58-.28,1.2-.42,1.85-.42,1.19,0,2.11.39,2.76,1.16Zm10.73-.62c.74.36,1.31.86,1.72,1.5s.62,1.37.62,2.19v8.53c0,.08-.03.16-.09.21s-.13.09-.21.09h-2.32c-.08,0-.15-.03-.21-.09-.06-.06-.09-.13-.09-.21v-.63s-.02-.08-.05-.1c-.03-.02-.07,0-.1.03-.7.81-1.72,1.21-3.05,1.21-1.11,0-2.05-.3-2.82-.89s-1.16-1.56-1.16-2.91c0-1.41.45-2.46,1.35-3.15.9-.69,2.13-1.03,3.71-1.03h1.99c.08,0,.13-.04.13-.13v-.63c0-.62-.17-1.11-.52-1.47-.34-.36-.82-.54-1.42-.54-.49,0-.88.11-1.2.34-.31.23-.51.53-.59.92-.05.19-.17.28-.35.28l-2.44-.15c-.08,0-.16-.03-.21-.09-.06-.06-.08-.12-.06-.19.1-1.07.6-1.95,1.5-2.62.9-.67,2.01-1.01,3.33-1.01.96,0,1.8.18,2.54.54Zm-1.31,9.79c.49-.38.73-.88.73-1.5v-1.31c0-.08-.04-.13-.13-.13h-1.69c-.74,0-1.32.16-1.75.48-.43.32-.64.78-.64,1.38,0,.54.16.94.49,1.22.33.28.75.42,1.27.42.65,0,1.22-.19,1.71-.57Zm13.07-10.04c.06-.06.13-.09.21-.09h2.32c.08,0,.15.03.21.09s.09.13.09.21v11.88c0,1.95-.53,3.39-1.59,4.34-1.06.95-2.58,1.42-4.58,1.42-.24,0-.6-.02-1.11-.05-.2-.02-.3-.13-.3-.33l.08-2.01c0-.2.11-.29.33-.28.17.02.42.03.76.03,1.26,0,2.16-.26,2.69-.78.54-.52.81-1.36.81-2.52v-.23s-.02-.08-.05-.1c-.03-.02-.07,0-.1.05-.64.74-1.52,1.11-2.64,1.11s-2.01-.32-2.77-.97c-.76-.65-1.22-1.56-1.41-2.76-.1-.5-.15-1.41-.15-2.72,0-1.39.07-2.35.2-2.87.17-1.14.6-2.05,1.31-2.72.71-.67,1.61-1.01,2.72-1.01s2.07.38,2.74,1.13c.03.03.07.05.1.04.03,0,.05-.04.05-.09v-.58c0-.08.03-.15.09-.21Zm-.09,6.3c0-.96-.03-1.71-.1-2.27-.07-.54-.28-.97-.63-1.31s-.8-.5-1.33-.5-.98.17-1.33.5-.57.77-.65,1.31c-.1.62-.15,1.38-.15,2.27,0,.82.04,1.55.13,2.19.08.54.31.97.68,1.31.37.34.82.5,1.36.5s1-.17,1.35-.5c.34-.34.55-.77.62-1.31.05-.64.08-1.37.08-2.19Zm5.88-8.66c-.33-.34-.49-.76-.49-1.28s.16-.95.49-1.28.75-.5,1.27-.5.97.16,1.3.49.49.76.49,1.3-.17.95-.5,1.28-.76.5-1.28.5-.94-.17-1.27-.5Zm-.1,15.04c-.06-.06-.09-.13-.09-.21v-12.28c0-.08.03-.15.09-.21s.13-.09.21-.09h2.32c.08,0,.15.03.21.09s.09.13.09.21v12.28c0,.08-.03.16-.09.21-.06.06-.13.09-.21.09h-2.32c-.08,0-.15-.03-.21-.09Zm14.41-11.82c.69.77,1.03,1.84,1.03,3.2v8.41c0,.08-.03.16-.09.21-.06.06-.13.09-.21.09h-2.32c-.08,0-.16-.03-.21-.09-.06-.06-.09-.13-.09-.21v-8c0-.69-.17-1.23-.52-1.64-.34-.4-.81-.6-1.4-.6s-1.09.21-1.45.62c-.36.41-.54.96-.54,1.65v7.98c0,.08-.03.16-.09.21s-.13.09-.21.09h-2.32c-.08,0-.16-.03-.21-.09-.06-.06-.09-.13-.09-.21v-12.26c0-.08.03-.15.09-.21s.13-.09.21-.09h2.32c.08,0,.15.03.21.09.06.06.09.13.09.21v.65c0,.05.02.08.05.1.03.02.07,0,.1-.05.67-.81,1.59-1.21,2.77-1.21s2.18.39,2.87,1.16Zm13.46,5.23l-.03,1.08c0,.2-.1.3-.3.3h-6.74c-.08,0-.13.04-.13.13.03.47.07.81.1,1.03.08.55.32,1,.7,1.33.39.34.87.5,1.46.5.5-.02.93-.14,1.27-.38s.61-.56.79-.98c.08-.19.21-.25.38-.2l2.06.43c.2.07.27.19.2.38-.34,1.04-.91,1.84-1.72,2.4s-1.81.84-2.98.84c-1.39,0-2.51-.34-3.35-1.01s-1.38-1.6-1.64-2.79c-.08-.45-.14-.93-.16-1.43-.03-.5-.04-1.17-.04-2.01s.04-1.54.13-1.99c.17-1.22.69-2.2,1.56-2.93s1.98-1.1,3.32-1.1c1.46,0,2.64.41,3.54,1.23.9.82,1.4,1.9,1.5,3.25.05.55.08,1.19.08,1.91Zm-6.46-3.39c-.36.33-.58.77-.67,1.32-.05.37-.08.79-.08,1.26,0,.08.04.13.13.13h4c.08,0,.13-.04.13-.13-.03-.57-.07-.98-.1-1.23-.07-.55-.29-1-.65-1.33-.37-.34-.83-.5-1.38-.5s-1.01.16-1.37.49Zm15.57-2.66c.13.07.18.19.15.38l-.43,2.29c-.02.2-.13.26-.35.18s-.47-.13-.75-.13c-.12,0-.29.02-.53.05-.57.05-1.04.31-1.42.78-.38.47-.57,1.06-.57,1.76v7.1c0,.08-.03.16-.09.21-.06.06-.13.09-.21.09h-2.32c-.08,0-.16-.03-.21-.09-.06-.06-.09-.13-.09-.21v-12.26c0-.08.03-.15.09-.21.06-.06.13-.09.21-.09h2.32c.08,0,.15.03.21.09s.09.13.09.21v1.08c0,.07.01.1.04.11.02,0,.05-.01.09-.06.6-1.06,1.45-1.59,2.54-1.59.47,0,.88.1,1.23.3ZM5.57,18.91c-.06-.06-.09-.13-.09-.21v-1.91c0-.08.03-.15.09-.21s.13-.09.21-.09h7.07c.08,0,.15.03.21.09.06.06.09.13.09.21v1.91c0,.08-.03.15-.09.21-.06.06-.13.09-.21.09h-7.07c-.08,0-.15-.03-.21-.09ZM.49,10.19c-.33-.34-.49-.76-.49-1.28s.16-.95.49-1.28.75-.5,1.27-.5.97.16,1.3.49.49.76.49,1.3-.17.95-.5,1.28-.76.5-1.28.5-.94-.17-1.27-.5Zm2.73,14.84v-10.31c0-1.27-1.03-2.29-2.29-2.29h-.34c-.16,0-.28.13-.28.28v10.31c0,1.27,1.03,2.29,2.29,2.29h.34c.16,0,.28-.13.28-.28Z" style="fill:#2f5296; stroke-width:0px;"></path></svg>