<svg xmlns="http://www.w3.org/2000/svg" xmlns:xlink="http://www.w3.org/1999/xlink" id="Calque_1" viewBox="0 0 135.6 217.17"><defs><style>      .cls-1 {        fill: url(#Dégradé_sans_nom);      }    </style><linearGradient id="Dégradé_sans_nom" data-name="Dégradé sans nom" x1="-.9" y1="1.29" x2="135.53" y2="214.19" gradientUnits="userSpaceOnUse"><stop offset="0" stop-color="#ea235f"></stop><stop offset="1" stop-color="#2e5c9f"></stop></linearGradient></defs><path class="cls-1" d="M0,108.45c0-28.97,0-57.94,0-86.91C.01,8.5,8.44.02,21.4.01,52.41,0,83.42,0,114.43.02c12.24,0,21.06,8.37,21.09,20.58.11,58.81.09,117.62,0,176.43-.02,11.54-9.04,19.98-21.22,20.08-16.52.13-33.04.03-49.56.03-14.2,0-28.4.04-42.6-.01C8.28,217.08.02,208.77,0,194.93c-.02-28.83,0-57.65,0-86.48ZM115.55,92.06c0-21.29.01-42.58,0-63.87,0-6.36-1.65-8.01-7.93-8.02-26.52-.01-53.03-.01-79.55,0-6.45,0-8.03,1.54-8.03,7.88-.01,42.44-.01,84.87,0,127.31,0,6.22,1.49,7.71,7.67,7.71,26.66.01,53.32.01,79.98,0,6.36,0,7.85-1.53,7.86-8.01.01-21,0-42,0-63ZM67.94,203.74c7.34-.12,13.67-6.51,13.56-13.69-.12-7.27-6.49-13.6-13.69-13.62-7.44-.01-14.01,6.66-13.73,13.95.28,7.44,6.54,13.48,13.86,13.35Z"></path></svg>