<svg xmlns="http://www.w3.org/2000/svg" xmlns:xlink="http://www.w3.org/1999/xlink" id="Calque_1" data-name="Calque 1" viewBox="0 0 217.31 217.17"><defs><style>      .cls-1 {        fill: url(#Dégradé_sans_nom_5);      }    </style><linearGradient id="Dégradé_sans_nom_5" data-name="Dégradé sans nom 5" x1="-5.15" y1="3.04" x2="212.49" y2="221.44" gradientUnits="userSpaceOnUse"><stop offset="0" stop-color="#ea235f"></stop><stop offset="1" stop-color="#2e5c9f"></stop></linearGradient></defs><path class="cls-1" d="M92.05.78c55.84-5.93,109.4,21.93,122.22,79.08,17.33,77.28-41.65,137.18-118.52,130.65-7.02-.6-16.6-4.82-22.81-3.96-8.06,1.1-20.75,11.82-28.07,10.51-10.82-1.95-5.25-25.16-8.42-32.1-.54-1.18-12.64-12.35-15.24-15.74C-27.34,106.04,12.18,9.26,92.05.78ZM44.21,142.84c.83.83,2.2,1.13,3.32,1.47,10.24-1.8,33.22-27.73,41.46-28.21,9.43-.55,26.29,23.59,40.42,23.17,12.55-.38,20.45-18.7,26.81-28.52,4.96-7.66,15.48-22.4,18.62-29.92.72-1.71,1.61-3.12.42-4.96-2.37-3.37-4.99-3.23-8.47-1.7-7.9,3.48-31.8,27.01-37.51,27.29-7.41.36-28.17-24.22-40.32-24.05-5.18.07-10.26,4.05-13.35,7.96-11.75,14.89-20.54,35.92-32.44,51.18-1.01,1.82-.36,4.9,1.04,6.3Z"></path></svg>