<svg xmlns="http://www.w3.org/2000/svg" viewBox="0 0 351.13 332.87"><defs><style>      .cls-1 {        fill: #99a0ca;      }      .cls-2 {        fill: #d6d8eb;      }      .cls-3, .cls-4 {        fill: #fff;      }      .cls-5 {        fill: #6777af;      }      .cls-6 {        font-family: Nunito-Bold, Nunito;        font-size: 14.33px;        font-variation-settings: 'wght' 700;        font-weight: 700;      }      .cls-6, .cls-7 {        fill: #305296;      }      .cls-8 {        isolation: isolate;      }      .cls-4 {        mix-blend-mode: soft-light;        opacity: .3;      }      .cls-9 {        fill: #282a31;      }      .cls-10 {        fill: #7a777c;      }      .cls-11 {        fill: #aeb2d5;      }    </style></defs><g class="cls-8"><g id="Calque_1" data-name="Calque 1"><rect class="cls-9" x="164.62" y="217.58" width="21.97" height="103.45" rx="10.98" ry="10.98"></rect><rect class="cls-9" x="164.62" y="267.89" width="21.97" height="103.45" rx="10.98" ry="10.98" transform="translate(495.22 144.01) rotate(90)"></rect><rect class="cls-9" x="1.76" y="1.71" width="347.68" height="272.53" rx="10.86" ry="10.86"></rect><rect class="cls-4" x="1.76" y="1.71" width="331.14" height="272.53" rx="12" ry="12"></rect><rect class="cls-3" x="18.51" y="17.1" width="314.18" height="190.14" rx="7" ry="7"></rect><path class="cls-10" d="M349.44,225.34v38.03c0,5.98-4.89,10.86-10.86,10.86H12.63c-5.98,0-10.86-4.89-10.86-10.86v-38.03h347.68Z"></path><path class="cls-4" d="M332.85,225.28v38.03c0,5.98-4.66,10.86-10.35,10.86H12.06c-5.69,0-10.35-4.89-10.35-10.86v-38.03h331.14Z"></path><circle class="cls-3" cx="175.6" cy="250.11" r="10.69"></circle><text class="cls-6" transform="translate(140.21 145.7)"><tspan x="0" y="0">Technology for education</tspan></text><g><path class="cls-5" d="M108.47,80.49l4.36-7.49h-47.26l-23.75,40.84h47.26l19.39-33.35Z"></path><path class="cls-7" d="M112.83,154.69l-23.75-40.84h-47.26l23.75,40.84h47.26Z"></path><path class="cls-2" d="M120.74,100.23h-8.85c-6.1,6.58-13.93,11.3-22.6,13.61h6.74c5.78-.08,11.45-1.2,16.77-3.29,2.75-1.1,5.4-2.43,7.92-4.04,2.84-1.77,5.48-3.88,7.92-6.26s-7.92,0-7.92,0l.03-.03Z"></path><path class="cls-11" d="M112.83,86.62h-2.03c-1.5,4.92-3.77,9.52-6.71,13.61-3.97,5.55-9.07,10.19-14.98,13.61h.19c8.64-2.3,16.5-7.01,22.6-13.61.32-.35.62-.7.91-1.02,3.28-3.76,5.94-8.01,7.89-12.6h-7.89.03Z"></path><path class="cls-1" d="M108.47,80.49l-3.56,6.13-7.92,13.61-7.92,13.61c5.91-3.4,11.05-8.05,14.98-13.61,2.92-4.09,5.22-8.69,6.71-13.61,1.26-4.12,1.95-8.48,2.03-13v-.62l-4.36,7.49h.03Z"></path><path class="cls-2" d="M120.74,127.46h-8.85c-6.1-6.58-13.93-11.3-22.6-13.61h6.74c5.78.08,11.45,1.2,16.77,3.29,2.75,1.1,5.4,2.43,7.92,4.04,2.84,1.77,5.48,3.88,7.92,6.26s-7.92,0-7.92,0l.03.03Z"></path><path class="cls-11" d="M112.83,141.08h-2.03c-1.5-4.92-3.77-9.52-6.71-13.61-3.97-5.55-9.07-10.19-14.98-13.61h.19c8.64,2.3,16.5,7.01,22.6,13.61.32.35.62.7.91,1.02,3.28,3.76,5.94,8.01,7.89,12.6h-7.89.03Z"></path><path class="cls-1" d="M108.47,147.2l-3.56-6.13-7.92-13.61-7.92-13.61c5.91,3.4,11.05,8.05,14.98,13.61,2.92,4.09,5.22,8.69,6.71,13.61,1.26,4.12,1.95,8.48,2.03,13v.62l-4.36-7.49h.03Z"></path><path class="cls-7" d="M155.65,99.14c.13.13.21.29.21.51v3.96c0,.19-.08.35-.21.51-.13.13-.29.21-.51.21h-4.71c-.19,0-.29.11-.29.29v23.43c0,.19-.08.35-.21.51-.12.13-.3.21-.48.21h-5.3c-.19,0-.35-.08-.51-.21-.14-.13-.22-.32-.21-.51v-23.43c0-.19-.11-.29-.29-.29h-2.81c-.19,0-.35-.05-.51-.21s-.21-.29-.21-.51v-3.96c0-.19.08-.35.21-.51s.29-.21.51-.21h2.81c.19,0,.29-.11.29-.29v-1.28c0-2.46.35-4.36,1.02-5.75s1.77-2.38,3.26-2.97c1.5-.59,3.5-.88,6.02-.86h1.23c.19,0,.35.08.48.21.13.13.21.29.21.51v4.01c0,.19-.08.35-.21.51s-.29.21-.48.21h-.94c-1.44.03-2.43.4-3.02,1.07s-.88,1.85-.88,3.48v.88c0,.19.11.29.29.29h4.71c.19,0,.35.08.51.21l.03-.03ZM163.08,126.63c-2.01-1.69-3.24-3.96-3.66-6.85-.32-1.87-.45-3.88-.45-5.99s.16-4.25.45-6.13c.43-2.84,1.69-5.08,3.72-6.74,2.06-1.66,4.65-2.49,7.76-2.49s5.62.83,7.62,2.49c2.03,1.66,3.24,3.88,3.66,6.66.32,1.95.45,3.99.45,6.13,0,2.33-.13,4.33-.4,5.99-.43,2.92-1.66,5.22-3.66,6.9-2.03,1.69-4.6,2.54-7.76,2.54s-5.72-.86-7.76-2.54l.03.03ZM174.08,122.06c.88-.86,1.42-1.98,1.6-3.37.16-2.01.24-3.66.24-4.89s-.08-2.94-.24-4.95c-.19-1.39-.72-2.51-1.6-3.32-.88-.8-1.95-1.23-3.24-1.23s-2.41.4-3.26,1.23-1.39,1.93-1.58,3.32c-.16,1.36-.24,3.02-.24,4.95s.08,3.61.24,4.89c.19,1.39.72,2.51,1.58,3.37s1.95,1.28,3.26,1.28,2.35-.43,3.24-1.28ZM204.01,99.27c.32.16.43.45.35.88l-.99,5.3c-.03.45-.32.59-.8.4s-1.1-.29-1.74-.29c-.27,0-.67.03-1.23.11-1.31.11-2.41.72-3.29,1.82-.88,1.1-1.31,2.43-1.31,4.07v16.42c0,.19-.08.35-.21.51-.12.13-.3.21-.48.21h-5.35c-.19,0-.35-.08-.51-.21-.14-.13-.22-.32-.21-.51v-28.38c0-.19.08-.35.21-.51s.29-.21.51-.21h5.35c.19,0,.35.08.48.21s.21.29.21.51v2.51c0,.16.03.24.08.27s.13-.03.21-.13c1.39-2.43,3.37-3.66,5.88-3.66,1.1,0,2.03.24,2.86.7h-.03ZM243.49,101.14c1.5,1.79,2.25,4.28,2.25,7.46v19.39c0,.19-.08.35-.21.51-.13.13-.29.21-.51.21h-5.3c-.18,0-.36-.08-.48-.21-.14-.13-.22-.32-.21-.51v-18.48c0-1.63-.37-2.92-1.18-3.85-.78-.94-1.82-1.39-3.08-1.39-1.36,0-2.43.45-3.24,1.39-.8.94-1.2,2.19-1.2,3.8v18.54c0,.19-.08.35-.21.51-.13.13-.29.21-.51.21h-5.35c-.19,0-.35-.08-.51-.21-.14-.13-.22-.32-.21-.51v-18.48c0-1.63-.4-2.92-1.18-3.85s-1.82-1.39-3.1-1.39c-1.36,0-2.43.45-3.24,1.39-.8.94-1.2,2.19-1.2,3.8v18.54c0,.19-.08.35-.21.51-.12.13-.3.21-.48.21h-5.3c-.19,0-.35-.08-.51-.21-.14-.13-.22-.32-.21-.51v-28.38c0-.19.05-.35.21-.51s.29-.21.51-.21h5.3c.19,0,.35.08.48.21s.21.29.21.51v1.44s.03.19.11.21c.08,0,.16,0,.24-.08,1.6-1.82,3.74-2.73,6.47-2.73,1.71,0,3.18.35,4.44,1.07,1.23.72,2.22,1.74,2.92,3.05.08.08.16.11.24.11s.13-.08.19-.24c.88-1.39,2.01-2.41,3.34-3.05,1.34-.64,2.78-.96,4.28-.96,2.75,0,4.89.88,6.39,2.67l.05.03ZM268.33,99.73c1.71.83,3.05,1.98,3.99,3.48s1.42,3.16,1.42,5.06v19.74c0,.19-.08.35-.21.51-.13.13-.29.21-.51.21h-5.35c-.18,0-.36-.08-.48-.21-.14-.13-.22-.32-.21-.51v-1.44s-.03-.19-.11-.24-.16,0-.24.05c-1.63,1.87-3.99,2.81-7.06,2.81-2.57,0-4.73-.7-6.53-2.06s-2.67-3.61-2.67-6.74,1.04-5.7,3.13-7.28,4.95-2.38,8.59-2.38h4.6c.19,0,.29-.11.29-.29v-1.44c0-1.44-.4-2.57-1.2-3.4s-1.9-1.26-3.29-1.26c-1.12,0-2.06.27-2.75.78-.72.53-1.18,1.23-1.36,2.11-.11.43-.4.64-.8.64l-5.64-.35c-.19,0-.35-.08-.51-.21-.13-.13-.19-.27-.13-.43.24-2.49,1.39-4.49,3.48-6.07,2.09-1.55,4.65-2.33,7.73-2.33,2.22,0,4.17.43,5.88,1.26h-.03ZM265.31,122.38c1.12-.88,1.69-2.03,1.69-3.48v-3.02c0-.19-.11-.29-.29-.29h-3.91c-1.71,0-3.05.37-4.04,1.1-.99.75-1.5,1.82-1.5,3.21,0,1.26.37,2.19,1.12,2.84s1.74.96,2.94.96c1.52,0,2.84-.43,3.96-1.31h.03ZM282.97,126.63c-2.03-1.69-3.24-3.96-3.66-6.85-.32-1.87-.45-3.88-.45-5.99s.16-4.25.45-6.13c.43-2.84,1.66-5.08,3.72-6.74s4.63-2.49,7.76-2.49,5.62.83,7.62,2.49,3.24,3.88,3.66,6.66c.29,1.95.45,3.99.45,6.13,0,2.33-.13,4.33-.4,5.99-.43,2.92-1.66,5.22-3.66,6.9s-4.6,2.54-7.76,2.54-5.72-.86-7.76-2.54l.03.03ZM293.96,122.06c.88-.86,1.42-1.98,1.6-3.37.16-2.01.24-3.66.24-4.89s-.08-2.94-.24-4.95c-.19-1.39-.72-2.51-1.6-3.32s-1.95-1.23-3.24-1.23-2.41.4-3.26,1.23-1.36,1.93-1.58,3.32c-.16,1.36-.24,3.02-.24,4.95s.08,3.61.24,4.89c.19,1.39.72,2.51,1.58,3.37s1.95,1.28,3.26,1.28,2.35-.43,3.24-1.28Z"></path></g></g></g></svg>