<svg xmlns="http://www.w3.org/2000/svg" xmlns:xlink="http://www.w3.org/1999/xlink" id="Calque_1" data-name="Calque 1" viewBox="0 0 50 50"><defs><style>      .cls-1 {        fill: #fff;      }      .cls-2 {        fill: none;      }      .cls-3 {        clip-path: url(#clippath);      }    </style><clipPath id="clippath"><rect class="cls-2" x=".71" y="1.45" width="48.57" height="46.65"></rect></clipPath></defs><g class="cls-3"><path class="cls-1" d="M37.98,5.93l1.69-2.98c-.12,2.09-.48,4.16-1.07,6.16-.82,2.76-2.06,5.34-3.68,7.67-.51.73-1.06,1.43-1.64,2.11-.19.22-.4.42-.59.64-.41.44-.82.88-1.25,1.3-.25.24-.51.46-.77.69-.41.36-.83.72-1.26,1.05-.28.22-.57.43-.86.63-.19.14-.38.26-.58.38l10.02-17.66ZM43.91,9.61c-1.04,2.38-2.42,4.59-4.1,6.56-.16.19-.33.38-.51.58-.62.69-1.29,1.33-1.97,1.95-.13.12-.26.23-.39.35-.67.58-1.37,1.12-2.09,1.63-.14.09-.27.18-.41.27-.74.49-1.49.96-2.27,1.37-.03.02-.07.04-.1.06-.8.42-1.63.78-2.47,1.12-.08.03-.16.06-.24.09.01-.01.03-.02.04-.03.12-.09.23-.19.34-.28.58-.45,1.14-.92,1.69-1.41.21-.19.41-.38.61-.58.46-.44.9-.9,1.33-1.38.18-.2.36-.39.53-.59.57-.67,1.12-1.36,1.63-2.09.41-.59.8-1.2,1.16-1.82.13-.22.24-.45.36-.68.22-.41.45-.81.65-1.23.12-.26.23-.52.34-.78.18-.4.36-.8.52-1.21.1-.27.19-.54.29-.81.13-.36.27-.72.38-1.1h4.68ZM47.99,17.39c-1.14,1.08-2.38,2.04-3.69,2.89-1.36.89-2.83,1.65-4.36,2.27-2.96,1.19-6.06,1.81-9.22,1.85h-1.34c.1-.04.19-.09.29-.13.83-.32,1.65-.68,2.45-1.09.06-.03.11-.05.17-.08.82-.43,1.62-.91,2.39-1.42.16-.1.31-.2.47-.31.75-.52,1.47-1.07,2.16-1.66.12-.11.24-.22.37-.33.65-.58,1.29-1.19,1.88-1.83.05-.05.11-.1.16-.16h8.26ZM39.95,27.01c1.52.62,2.99,1.38,4.36,2.27,1.31.84,2.55,1.81,3.69,2.89h-8.26s-.09-.09-.14-.13c-.61-.65-1.25-1.27-1.91-1.86-.12-.11-.24-.22-.37-.33-.69-.59-1.41-1.14-2.16-1.66-.16-.11-.32-.21-.48-.32-.77-.51-1.56-.99-2.38-1.42-.06-.03-.12-.06-.18-.09-.79-.4-1.61-.76-2.44-1.08-.1-.04-.2-.09-.3-.13h1.33c3.16.04,6.27.66,9.22,1.85M43.91,39.95h-4.68c-.1-.32-.22-.64-.34-.96-.11-.32-.21-.65-.34-.96-.15-.38-.32-.75-.49-1.12-.13-.29-.24-.58-.38-.86-.19-.4-.41-.79-.63-1.18-.13-.24-.25-.48-.39-.72-.36-.62-.75-1.22-1.16-1.81-.5-.73-1.05-1.42-1.63-2.09-.17-.2-.35-.39-.53-.59-.43-.48-.87-.94-1.34-1.38-.2-.19-.4-.38-.6-.57-.55-.5-1.12-.98-1.71-1.43-.11-.08-.21-.18-.32-.26-.01-.01-.03-.02-.04-.03.08.03.17.06.25.1.84.33,1.66.69,2.45,1.11.04.02.08.05.13.07.77.41,1.51.86,2.23,1.35.14.1.29.19.43.29.72.5,1.41,1.04,2.08,1.62.14.12.27.24.4.36.68.61,1.35,1.25,1.97,1.94.17.19.34.38.51.57,1.68,1.97,3.06,4.18,4.1,6.56M39.67,46.61l-1.69-2.98-10.02-17.66c.19.13.39.25.58.39.29.21.57.41.85.63.43.34.85.69,1.26,1.05.26.23.52.45.77.69.43.41.84.84,1.24,1.28.2.22.41.43.61.66.58.68,1.13,1.38,1.64,2.11.41.58.79,1.18,1.15,1.79,1.07,1.84,1.92,3.81,2.54,5.87t0,0c.59,2,.95,4.07,1.07,6.16M26.97,25.16H.71l13.02,22.94h26.72s0,0,0-.01v-.35c-.04-2.39-.39-4.75-1.02-7.03h5.04c.12,0,.24-.06.31-.17.07-.11.08-.24.03-.36-1.09-2.64-2.58-5.08-4.42-7.25h8.51c.21,0,.37-.18.37-.4,0-.1-.04-.2-.11-.27-1.36-1.37-2.86-2.6-4.47-3.63-1.41-.91-2.91-1.7-4.48-2.33-1.79-.72-3.63-1.21-5.51-1.53,1.87-.31,3.72-.81,5.51-1.53,1.57-.64,3.08-1.42,4.48-2.33,1.61-1.03,3.11-2.25,4.47-3.63.07-.07.11-.18.11-.28,0-.21-.17-.38-.37-.38h-8.51c1.84-2.17,3.33-4.61,4.42-7.25.05-.12.04-.25-.03-.36-.07-.11-.18-.17-.31-.17h-5.04c.63-2.29.98-4.65,1.02-7.04v-.34s0,0,0-.01H13.73L.71,24.4h26.26c.21,0,.37.17.37.38s-.17.38-.37.38"></path></g></svg>