<svg xmlns="http://www.w3.org/2000/svg" viewBox="0 0 800 800" width="800" height="800" preserveAspectRatio="xMidYMid meet" style="width: 100%; height: 100%; transform: translate3d(0px, 0px, 0px); content-visibility: visible;"><defs><clipPath id="__lottie_element_2"><rect width="800" height="800" x="0" y="0"></rect></clipPath><clipPath id="__lottie_element_4"><path d="M0,0 L800,0 L800,800 L0,800z"></path></clipPath><mask id="__lottie_element_7" mask-type="alpha"><g transform="matrix(1.4846500158309937,0,0,1.064479947090149,426.2390441894531,176.77264404296875)" opacity="1" style="display: block;"><g opacity="1" transform="matrix(1,0,0,1,-17,-43)"><path fill="rgb(134,74,128)" fill-opacity="1" d=" M247,-119 C247,-119 247,119 247,119 C247,119 -247,119 -247,119 C-247,119 -247,-119 -247,-119 C-247,-119 247,-119 247,-119z"></path></g></g></mask></defs><g clip-path="url(#__lottie_element_2)"><g clip-path="url(#__lottie_element_4)" transform="matrix(1,0,0,1,0,0)" opacity="1" style="display: block;"><g transform="matrix(6.284649848937988,0,0,6.284649848937988,36.347991943359375,256.32562255859375)" opacity="1" style="display: block;"><g opacity="1" transform="matrix(1,0,0,1,58.06999969482422,37.439998626708984)"><path fill="rgb(134,75,129)" fill-opacity="1" d=" M30.760000228881836,-31.549999237060547 C30.760000228881836,-31.549999237060547 41.04999923706055,-31.549999237060547 41.04999923706055,-31.549999237060547 C44.15999984741211,-31.549999237060547 47.720001220703125,-27.8799991607666 48.52000045776367,-25 C49.25,-22.360000610351562 49.06999969482422,-13.470000267028809 48.86000061035156,-10.399999618530273 C48.18000030517578,-0.20999999344348907 39.970001220703125,7.550000190734863 29.90999984741211,8.300000190734863 C28.549999237060547,12.09000015258789 25.1299991607666,14.34000015258789 22.6200008392334,17.290000915527344 C22.6200008392334,17.290000915527344 51.68000030517578,17.290000915527344 51.68000030517578,17.290000915527344 C52.61000061035156,17.290000915527344 54.380001068115234,18.68000030517578 54.95000076293945,19.440000534057617 C57.959999084472656,23.459999084472656 54.689998626708984,28.389999389648438 49.97999954223633,28.25 C47.189998626708984,33.459999084472656 42.27000045776367,36.810001373291016 36.310001373291016,37.189998626708984 C36.310001373291016,37.189998626708984 -36.29999923706055,37.189998626708984 -36.29999923706055,37.189998626708984 C-40.529998779296875,36.91999816894531 -44.79999923706055,34.959999084472656 -47.599998474121094,31.760000228881836 C-48.119998931884766,31.15999984741211 -49.790000915527344,28.360000610351562 -49.970001220703125,28.25 C-50.369998931884766,28.010000228881836 -51.099998474121094,28.209999084472656 -51.619998931884766,28.09000015258789 C-56.16999816894531,26.969999313354492 -57.81999969482422,21.40999984741211 -53.93000030517578,18.43000030517578 C-53.540000915527344,18.1299991607666 -52.04999923706055,17.290000915527344 -51.66999816894531,17.290000915527344 C-51.66999816894531,17.290000915527344 -39.79999923706055,17.290000915527344 -39.79999923706055,17.290000915527344 C-43.16999816894531,13.470000267028809 -45.79999923706055,8.899999618530273 -45.459999084472656,3.5999999046325684 C-44.97999954223633,-3.9600000381469727 -37.720001220703125,-7.96999979019165 -30.75,-6 C-30.75,-6 -30.75,-35.72999954223633 -30.75,-35.72999954223633 C-30.75,-36.25 -29.450000762939453,-37.189998626708984 -28.84000015258789,-36.97999954223633 C-28.84000015258789,-36.97999954223633 28.84000015258789,-36.97999954223633 28.84000015258789,-36.97999954223633 C29.459999084472656,-37.18000030517578 30.75,-36.2400016784668 30.75,-35.72999954223633 C30.75,-35.72999954223633 30.75,-31.549999237060547 30.75,-31.549999237060547 C30.75,-31.549999237060547 30.760000228881836,-31.549999237060547 30.760000228881836,-31.549999237060547z M27.139999389648438,-33.36000061035156 C27.139999389648438,-33.36000061035156 -27.1299991607666,-33.36000061035156 -27.1299991607666,-33.36000061035156 C-27.1299991607666,-33.36000061035156 -27.1299991607666,-26.1200008392334 -27.1299991607666,-26.1200008392334 C-27.1299991607666,-26.1200008392334 27.139999389648438,-26.1200008392334 27.139999389648438,-26.1200008392334 C27.139999389648438,-26.1200008392334 27.139999389648438,-33.36000061035156 27.139999389648438,-33.36000061035156z M30.760000228881836,4.400000095367432 C37.130001068115234,4.070000171661377 42.95000076293945,-1.1299999952316284 44.619998931884766,-7.179999828338623 C45.4900016784668,-10.34000015258789 45.650001525878906,-19.940000534057617 45.220001220703125,-23.280000686645508 C45.02000045776367,-24.790000915527344 43.849998474121094,-26.399999618530273 42.560001373291016,-27.18000030517578 C42.31999969482422,-27.329999923706055 40.959999084472656,-27.940000534057617 40.83000183105469,-27.940000534057617 C40.83000183105469,-27.940000534057617 30.770000457763672,-27.940000534057617 30.770000457763672,-27.940000534057617 C30.770000457763672,-27.940000534057617 30.770000457763672,-24.31999969482422 30.770000457763672,-24.31999969482422 C30.770000457763672,-24.31999969482422 40.380001068115234,-24.31999969482422 40.380001068115234,-24.31999969482422 C41.130001068115234,-24.31999969482422 41.58000183105469,-23.059999465942383 41.630001068115234,-22.40999984741211 C41.90999984741211,-19.360000610351562 41.93000030517578,-11.539999961853027 41.290000915527344,-8.710000038146973 C40.18000030517578,-3.809999942779541 35.790000915527344,0.23000000417232513 30.770000457763672,0.7799999713897705 C30.770000457763672,0.7799999713897705 30.770000457763672,4.400000095367432 30.770000457763672,4.400000095367432 C30.770000457763672,4.400000095367432 30.760000228881836,4.400000095367432 30.760000228881836,4.400000095367432z M27.139999389648438,-22.510000228881836 C27.139999389648438,-22.510000228881836 -27.1299991607666,-22.510000228881836 -27.1299991607666,-22.510000228881836 C-27.1299991607666,-22.510000228881836 -27.1299991607666,-15.270000457763672 -27.1299991607666,-15.270000457763672 C-27.1299991607666,-15.270000457763672 27.139999389648438,-15.270000457763672 27.139999389648438,-15.270000457763672 C27.139999389648438,-15.270000457763672 27.139999389648438,-22.510000228881836 27.139999389648438,-22.510000228881836z M37.9900016784668,-20.700000762939453 C37.9900016784668,-20.700000762939453 30.75,-20.700000762939453 30.75,-20.700000762939453 C30.75,-20.700000762939453 30.75,-2.8399999141693115 30.75,-2.8399999141693115 C33.72999954223633,-3.380000114440918 36.25,-5.510000228881836 37.349998474121094,-8.34000015258789 C37.5,-8.739999771118164 37.9900016784668,-10.109999656677246 37.9900016784668,-10.420000076293945 C37.9900016784668,-10.420000076293945 37.9900016784668,-20.709999084472656 37.9900016784668,-20.709999084472656 C37.9900016784668,-20.709999084472656 37.9900016784668,-20.700000762939453 37.9900016784668,-20.700000762939453z M27.139999389648438,-11.649999618530273 C27.139999389648438,-11.649999618530273 -27.1299991607666,-11.649999618530273 -27.1299991607666,-11.649999618530273 C-27.1299991607666,-11.649999618530273 -27.1299991607666,-4.75 -27.1299991607666,-4.75 C-19.610000610351562,-0.6800000071525574 -13.489999771118164,8.8100004196167 -17.6299991607666,17.299999237060547 C-17.6299991607666,17.299999237060547 17.309999465942383,17.299999237060547 17.309999465942383,17.299999237060547 C19.56999969482422,14.619999885559082 22.969999313354492,12.1899995803833 25.110000610351562,9.489999771118164 C25.84000015258789,8.569999694824219 27.149999618530273,6.099999904632568 27.149999618530273,4.96999979019165 C27.149999618530273,4.96999979019165 27.149999618530273,-11.649999618530273 27.149999618530273,-11.649999618530273 C27.149999618530273,-11.649999618530273 27.139999389648438,-11.649999618530273 27.139999389648438,-11.649999618530273z M-20.1200008392334,14.119999885559082 C-17.90999984741211,5.420000076293945 -29.139999389648438,-5.630000114440918 -37.59000015258789,-2.3399999141693115 C-39.63999938964844,-1.5399999618530273 -38.84000015258789,-0.7599999904632568 -37.93000030517578,0.8500000238418579 C-34.619998931884766,6.699999809265137 -29.469999313354492,5.539999961853027 -24.780000686645508,8.960000038146973 C-22.799999237060547,10.399999618530273 -21.59000015258789,12.220000267028809 -20.110000610351562,14.119999885559082 C-20.110000610351562,14.119999885559082 -20.1200008392334,14.119999885559082 -20.1200008392334,14.119999885559082z M-22.829999923706055,17.290000915527344 C-24.100000381469727,14.15999984741211 -26.31999969482422,11.770000457763672 -29.459999084472656,10.470000267028809 C-30.899999618530273,9.869999885559082 -32.470001220703125,9.640000343322754 -33.90999984741211,9.039999961853027 C-37.29999923706055,7.610000133514404 -39.529998779296875,5.070000171661377 -41.599998474121094,2.1500000953674316 C-42.88999938964844,8.350000381469727 -38.790000915527344,14.350000381469727 -33.58000183105469,17.299999237060547 C-33.58000183105469,17.299999237060547 -22.84000015258789,17.299999237060547 -22.84000015258789,17.299999237060547 C-22.84000015258789,17.299999237060547 -22.829999923706055,17.290000915527344 -22.829999923706055,17.290000915527344z M-51.15999984741211,20.950000762939453 C-53.220001220703125,21.670000076293945 -52.75,24.56999969482422 -50.540000915527344,24.530000686645508 C-50.540000915527344,24.530000686645508 51.349998474121094,24.420000076293945 51.349998474121094,24.420000076293945 C52.88999938964844,23.75 52.869998931884766,21.65999984741211 51.349998474121094,21 C51.349998474121094,21 -51.15999984741211,20.950000762939453 -51.15999984741211,20.950000762939453z M45.68000030517578,28.139999389648438 C45.68000030517578,28.139999389648438 -45.66999816894531,28.139999389648438 -45.66999816894531,28.139999389648438 C-43.709999084472656,31.299999237060547 -40.18000030517578,33.150001525878906 -36.5099983215332,33.560001373291016 C-11.529999732971191,33.349998474121094 13.529999732971191,34 38.45000076293945,33.22999954223633 C41.369998931884766,32.45000076293945 44.099998474121094,30.719999313354492 45.68000030517578,28.1299991607666 C45.68000030517578,28.1299991607666 45.68000030517578,28.139999389648438 45.68000030517578,28.139999389648438z"></path></g></g><g mask="url(#__lottie_element_7)" style="display: block;"><g transform="matrix(6.284649848937988,0,0,6.284649848937988,283.80108642578125,127.57270812988281)" opacity="0.9431034482758408"><g opacity="1" transform="matrix(1,0,0,1,3.815000057220459,12.461000442504883)"><path fill="rgb(134,75,129)" fill-opacity="1" d=" M-0.5649999976158142,-11.560999870300293 C2.424999952316284,-12.211000442504883 3.565000057220459,-6.2210001945495605 3.315000057220459,-4.051000118255615 C2.8350000381469727,0.01899999938905239 -1.3849999904632568,1.5700000524520874 0.7649999856948853,6.239999771118164 C1.2450000047683716,7.269999980926514 2.7149999141693115,8.58899974822998 1.0750000476837158,9.758999824523926 C-1.5049999952316284,11.609000205993652 -3.305000066757202,6.489999771118164 -3.4549999237060547,4.570000171661377 C-3.565000057220459,3.0899999141693115 -3.305000066757202,1.4490000009536743 -2.7149999141693115,0.08900000154972076 C-1.6449999809265137,-2.38100004196167 0.2549999952316284,-3.1010000705718994 -0.38499999046325684,-6.421000003814697 C-0.6349999904632568,-7.741000175476074 -3.4749999046325684,-10.930000305175781 -0.5649999976158142,-11.569999694824219 C-0.5649999976158142,-11.569999694824219 -0.5649999976158142,-11.560999870300293 -0.5649999976158142,-11.560999870300293z"></path></g><g opacity="1" transform="matrix(1,0,0,1,18.28499984741211,12.461000442504883)"><path fill="rgb(134,75,129)" fill-opacity="1" d=" M-0.5649999976158142,-11.560999870300293 C2.424999952316284,-12.211000442504883 3.565000057220459,-6.2210001945495605 3.315000057220459,-4.051000118255615 C2.8350000381469727,0.01899999938905239 -1.3849999904632568,1.5700000524520874 0.7649999856948853,6.239999771118164 C1.2450000047683716,7.269999980926514 2.7149999141693115,8.58899974822998 1.0750000476837158,9.758999824523926 C-1.5049999952316284,11.609000205993652 -3.305000066757202,6.489999771118164 -3.4549999237060547,4.570000171661377 C-3.565000057220459,3.0899999141693115 -3.305000066757202,1.4490000009536743 -2.7149999141693115,0.08900000154972076 C-1.6449999809265137,-2.38100004196167 0.2549999952316284,-3.1010000705718994 -0.38499999046325684,-6.421000003814697 C-0.6349999904632568,-7.741000175476074 -3.4749999046325684,-10.930000305175781 -0.5649999976158142,-11.569999694824219 C-0.5649999976158142,-11.569999694824219 -0.5649999976158142,-11.560999870300293 -0.5649999976158142,-11.560999870300293z"></path></g><g opacity="1" transform="matrix(1,0,0,1,32.755001068115234,12.461000442504883)"><path fill="rgb(134,75,129)" fill-opacity="1" d=" M-0.5649999976158142,-11.560999870300293 C2.424999952316284,-12.211000442504883 3.565000057220459,-6.2210001945495605 3.315000057220459,-4.051000118255615 C2.8350000381469727,0.01899999938905239 -1.3849999904632568,1.5700000524520874 0.7649999856948853,6.239999771118164 C1.2450000047683716,7.269999980926514 2.7149999141693115,8.58899974822998 1.0750000476837158,9.758999824523926 C-1.5049999952316284,11.609000205993652 -3.305000066757202,6.489999771118164 -3.4549999237060547,4.570000171661377 C-3.565000057220459,3.0899999141693115 -3.305000066757202,1.4490000009536743 -2.7149999141693115,0.08900000154972076 C-1.6449999809265137,-2.38100004196167 0.2549999952316284,-3.1010000705718994 -0.38499999046325684,-6.421000003814697 C-0.6349999904632568,-7.741000175476074 -3.4749999046325684,-10.930000305175781 -0.5649999976158142,-11.569999694824219 C-0.5649999976158142,-11.569999694824219 -0.5649999976158142,-11.560999870300293 -0.5649999976158142,-11.560999870300293z"></path></g></g></g></g></g></svg>