<svg xmlns="http://www.w3.org/2000/svg" id="Logos" viewBox="0 0 141.72 30.54"><path d="m34.52,27.72s-.06-.1-.06-.17v-2.86c0-.07.02-.13.06-.17.04-.04.1-.06.18-.06h.93c.54,0,.96.15,1.25.44s.44.7.44,1.23-.15.94-.44,1.23-.71.44-1.25.44h-.93c-.08,0-.13-.02-.18-.06Zm2.31-1.61c0-.84-.41-1.26-1.23-1.26h-.65v2.52h.65c.82,0,1.23-.42,1.23-1.26Z" style="fill:#6777af; stroke-width:0px;"></path><path d="m39.84,27.26s.04.08.04.13c0,.09-.06.17-.17.23-.11.06-.23.11-.36.15s-.26.05-.38.05c-.37,0-.65-.11-.87-.32-.21-.21-.32-.5-.32-.87,0-.24.05-.45.14-.63.09-.18.22-.32.39-.43.17-.1.36-.15.57-.15.31,0,.55.1.73.3s.27.47.27.8c0,.13-.06.19-.17.19h-1.46c.03.49.27.73.71.73.12,0,.22-.02.3-.05.08-.03.17-.07.27-.12,0,0,.04-.02.08-.04.04-.02.08-.03.11-.03.04,0,.08.02.11.05Zm-1.37-1.31c-.11.12-.18.28-.2.49h1.22c0-.21-.06-.38-.16-.49-.1-.12-.24-.17-.42-.17s-.33.06-.44.18Z" style="fill:#6777af; stroke-width:0px;"></path><path d="m40.44,27.62c-.06-.03-.1-.07-.12-.11-.02-.04-.04-.08-.04-.13,0-.05.01-.09.04-.13s.06-.05.11-.05c.04,0,.11.03.19.08.09.05.19.09.28.12.09.03.2.05.34.05.15,0,.27-.03.35-.08.09-.05.13-.13.13-.23,0-.06-.02-.11-.05-.15-.03-.04-.09-.07-.17-.1-.08-.03-.2-.06-.36-.1-.28-.06-.48-.14-.6-.24-.12-.1-.18-.24-.18-.42,0-.14.04-.26.12-.37.08-.11.19-.19.33-.25.14-.06.3-.09.47-.09.13,0,.25.02.37.05.12.03.23.08.32.14.1.07.16.15.16.24,0,.05-.02.09-.04.13s-.07.05-.11.05c-.03,0-.06,0-.08-.02s-.07-.03-.11-.06c-.08-.05-.16-.09-.24-.12s-.17-.04-.28-.04c-.13,0-.24.03-.32.08-.08.06-.12.13-.12.23,0,.09.04.16.11.21s.21.1.42.14c.21.04.38.09.5.15.12.06.21.13.26.21.05.08.08.19.08.32,0,.21-.09.37-.26.49s-.4.19-.69.19c-.32,0-.58-.07-.79-.2Z" style="fill:#6777af; stroke-width:0px;"></path><path d="m45.61,25.65c.15.15.22.39.22.71v1.22c0,.07-.02.13-.06.17-.04.04-.1.06-.17.06s-.12-.02-.17-.06c-.04-.04-.06-.1-.06-.17v-.17c-.06.13-.15.23-.27.31s-.26.11-.41.11-.29-.03-.41-.09c-.12-.06-.22-.15-.3-.25-.07-.11-.11-.23-.11-.36,0-.17.04-.3.13-.4s.23-.17.43-.21c.2-.04.47-.06.83-.06h.11v-.14c0-.18-.04-.3-.11-.38-.07-.08-.19-.12-.35-.12-.11,0-.21.01-.31.04-.1.03-.21.07-.32.12-.09.05-.15.07-.18.07-.05,0-.09-.02-.12-.05-.03-.03-.04-.08-.04-.13,0-.05.01-.09.04-.13.03-.04.07-.07.13-.11.11-.06.24-.11.39-.14.15-.04.29-.05.43-.05.31,0,.53.08.68.23Zm-.4,1.63c.11-.12.17-.27.17-.46v-.12h-.09c-.25,0-.44.01-.57.03-.13.02-.23.06-.28.11-.06.05-.08.13-.08.22,0,.11.04.21.12.28.08.07.18.11.31.11.17,0,.31-.06.43-.18Z" style="fill:#6777af; stroke-width:0px;"></path><path d="m47.76,27.5s.04.07.04.13c0,.06-.02.11-.07.14s-.12.05-.21.04h-.13c-.26-.03-.45-.11-.57-.24-.13-.14-.19-.34-.19-.61v-1.11h-.28c-.14,0-.21-.06-.21-.18,0-.06.02-.1.05-.14.04-.03.09-.05.15-.05h.28v-.49c0-.07.02-.13.06-.17s.1-.06.17-.06.13.02.17.06c.04.04.07.1.07.17v.49h.47c.07,0,.12.02.15.05.04.03.05.08.05.14s-.02.11-.05.14c-.04.03-.09.05-.15.05h-.47v1.15c0,.15.03.26.09.33s.16.11.28.12h.13c.07.02.12.03.15.06Z" style="fill:#6777af; stroke-width:0px;"></path><path d="m50.07,27.26s.04.08.04.13c0,.09-.06.17-.17.23-.11.06-.23.11-.36.15s-.26.05-.38.05c-.37,0-.65-.11-.87-.32-.21-.21-.32-.5-.32-.87,0-.24.05-.45.14-.63.09-.18.22-.32.39-.43.17-.1.36-.15.57-.15.31,0,.55.1.73.3s.27.47.27.8c0,.13-.06.19-.17.19h-1.46c.03.49.27.73.71.73.12,0,.22-.02.3-.05.08-.03.17-.07.27-.12,0,0,.04-.02.08-.04.04-.02.08-.03.11-.03.04,0,.08.02.11.05Zm-1.37-1.31c-.11.12-.18.28-.2.49h1.22c0-.21-.06-.38-.16-.49-.1-.12-.24-.17-.42-.17s-.33.06-.44.18Z" style="fill:#6777af; stroke-width:0px;"></path><path d="m50.72,27.75s-.07-.09-.07-.17v-2.92c0-.08.02-.13.07-.17.05-.04.1-.06.17-.06s.13.02.17.06c.04.04.07.1.07.17v2.92c0,.08-.02.13-.07.17-.04.04-.1.06-.17.06s-.13-.02-.17-.06Z" style="fill:#6777af; stroke-width:0px;"></path><path d="m51.82,24.89c-.05-.05-.08-.12-.08-.2s.03-.15.08-.2c.05-.05.13-.07.22-.07s.16.02.22.07.08.11.08.2-.03.15-.08.2c-.05.05-.13.08-.22.08s-.16-.03-.22-.08Zm.04,2.86s-.07-.09-.07-.17v-1.92c0-.08.02-.13.07-.17.05-.04.1-.06.17-.06s.13.02.17.06c.04.04.07.1.07.17v1.92c0,.08-.02.13-.07.17-.04.04-.1.06-.17.06s-.13-.02-.17-.06Z" style="fill:#6777af; stroke-width:0px;"></path><path d="m54.86,27.26s.04.08.04.13c0,.09-.06.17-.17.23-.11.06-.23.11-.36.15s-.26.05-.38.05c-.37,0-.65-.11-.87-.32-.21-.21-.32-.5-.32-.87,0-.24.05-.45.14-.63.09-.18.22-.32.39-.43.17-.1.36-.15.57-.15.31,0,.55.1.73.3s.27.47.27.8c0,.13-.06.19-.17.19h-1.46c.03.49.27.73.71.73.12,0,.22-.02.3-.05.08-.03.17-.07.27-.12,0,0,.04-.02.08-.04.04-.02.08-.03.11-.03.04,0,.08.02.11.05Zm-1.37-1.31c-.11.12-.18.28-.2.49h1.22c0-.21-.06-.38-.16-.49-.1-.12-.24-.17-.42-.17s-.33.06-.44.18Z" style="fill:#6777af; stroke-width:0px;"></path><path d="m56.88,25.63c0,.07-.02.12-.05.16s-.09.06-.18.06h-.14c-.2.03-.35.1-.44.22s-.14.26-.14.44v1.08c0,.08-.02.13-.07.17-.04.04-.1.06-.17.06s-.13-.02-.17-.06c-.05-.04-.07-.09-.07-.17v-1.92c0-.07.02-.13.07-.17.05-.04.1-.06.17-.06.06,0,.12.02.16.06.04.04.06.09.06.16v.23c.06-.14.15-.24.27-.32.12-.07.26-.12.41-.13h.07c.15-.01.23.05.23.19Z" style="fill:#6777af; stroke-width:0px;"></path><path d="m57.17,27.62c-.06-.03-.1-.07-.12-.11-.02-.04-.04-.08-.04-.13,0-.05.01-.09.04-.13s.06-.05.11-.05c.04,0,.11.03.19.08.09.05.19.09.28.12.09.03.2.05.34.05.15,0,.27-.03.35-.08.09-.05.13-.13.13-.23,0-.06-.02-.11-.05-.15-.03-.04-.09-.07-.17-.1-.08-.03-.2-.06-.36-.1-.28-.06-.48-.14-.6-.24-.12-.1-.18-.24-.18-.42,0-.14.04-.26.12-.37.08-.11.19-.19.33-.25.14-.06.3-.09.47-.09.13,0,.25.02.37.05.12.03.23.08.32.14.1.07.16.15.16.24,0,.05-.02.09-.04.13s-.07.05-.11.05c-.03,0-.06,0-.08-.02s-.07-.03-.11-.06c-.08-.05-.16-.09-.24-.12s-.17-.04-.28-.04c-.13,0-.24.03-.32.08-.08.06-.12.13-.12.23,0,.09.04.16.11.21s.21.1.42.14c.21.04.38.09.5.15.12.06.21.13.26.21.05.08.08.19.08.32,0,.21-.09.37-.26.49s-.4.19-.69.19c-.32,0-.58-.07-.79-.2Z" style="fill:#6777af; stroke-width:0px;"></path><path d="m61.08,27.67c-.17-.1-.3-.24-.39-.42-.09-.18-.14-.39-.14-.62s.05-.45.14-.63c.1-.18.23-.32.4-.43.17-.1.37-.15.6-.15.12,0,.24.02.36.05s.23.08.32.14c.1.07.15.15.15.24,0,.05-.01.1-.04.13-.03.04-.06.05-.11.05-.03,0-.06,0-.09-.02s-.06-.04-.11-.06c-.08-.05-.15-.09-.22-.12-.07-.03-.15-.04-.24-.04-.21,0-.38.07-.5.22s-.18.35-.18.61.06.46.17.6c.12.14.28.21.5.21.09,0,.18-.01.25-.04.07-.03.15-.07.22-.11.03-.02.07-.04.1-.06.03-.02.07-.02.09-.02.04,0,.08.02.11.05.03.04.04.08.04.13,0,.04-.01.08-.04.12-.02.04-.06.07-.12.11-.09.06-.2.11-.33.15-.13.03-.25.05-.38.05-.22,0-.42-.05-.59-.15Z" style="fill:#6777af; stroke-width:0px;"></path><path d="m64.4,25.63c0,.07-.02.12-.05.16s-.09.06-.18.06h-.14c-.2.03-.35.1-.44.22s-.14.26-.14.44v1.08c0,.08-.02.13-.07.17-.04.04-.1.06-.17.06s-.13-.02-.17-.06c-.05-.04-.07-.09-.07-.17v-1.92c0-.07.02-.13.07-.17.05-.04.1-.06.17-.06.06,0,.12.02.16.06.04.04.06.09.06.16v.23c.06-.14.15-.24.27-.32.12-.07.26-.12.41-.13h.07c.15-.01.23.05.23.19Z" style="fill:#6777af; stroke-width:0px;"></path><path d="m66.57,27.26s.04.08.04.13c0,.09-.06.17-.17.23-.11.06-.23.11-.36.15s-.26.05-.38.05c-.37,0-.65-.11-.87-.32-.21-.21-.32-.5-.32-.87,0-.24.05-.45.14-.63.09-.18.22-.32.39-.43.17-.1.36-.15.57-.15.31,0,.55.1.73.3s.27.47.27.8c0,.13-.06.19-.17.19h-1.46c.03.49.27.73.71.73.12,0,.22-.02.3-.05.08-.03.17-.07.27-.12,0,0,.04-.02.08-.04.04-.02.08-.03.11-.03.04,0,.08.02.11.05Zm-1.37-1.31c-.11.12-.18.28-.2.49h1.22c0-.21-.06-.38-.16-.49-.1-.12-.24-.17-.42-.17s-.33.06-.44.18Zm.44-.75s-.07-.01-.09-.04c-.03-.03-.04-.06-.04-.09,0-.03.01-.06.03-.09l.51-.67c.06-.08.14-.13.22-.13.06,0,.11.02.15.06s.06.09.06.15c0,.07-.04.14-.11.2l-.64.56s-.06.03-.09.03Z" style="fill:#6777af; stroke-width:0px;"></path><path d="m68.81,25.65c.15.15.22.39.22.71v1.22c0,.07-.02.13-.06.17-.04.04-.1.06-.17.06s-.12-.02-.17-.06c-.04-.04-.06-.1-.06-.17v-.17c-.06.13-.15.23-.27.31s-.26.11-.41.11-.29-.03-.41-.09c-.12-.06-.22-.15-.3-.25-.07-.11-.11-.23-.11-.36,0-.17.04-.3.13-.4s.23-.17.43-.21c.2-.04.47-.06.83-.06h.11v-.14c0-.18-.04-.3-.11-.38-.07-.08-.19-.12-.35-.12-.11,0-.21.01-.31.04-.1.03-.21.07-.32.12-.09.05-.15.07-.18.07-.05,0-.09-.02-.12-.05-.03-.03-.04-.08-.04-.13,0-.05.01-.09.04-.13.03-.04.07-.07.13-.11.11-.06.24-.11.39-.14.15-.04.29-.05.43-.05.31,0,.53.08.68.23Zm-.4,1.63c.11-.12.17-.27.17-.46v-.12h-.09c-.25,0-.44.01-.57.03-.13.02-.23.06-.28.11-.06.05-.08.13-.08.22,0,.11.04.21.12.28.08.07.18.11.31.11.17,0,.31-.06.43-.18Z" style="fill:#6777af; stroke-width:0px;"></path><path d="m70.96,27.5s.04.07.04.13c0,.06-.02.11-.07.14s-.12.05-.21.04h-.13c-.26-.03-.45-.11-.57-.24-.13-.14-.19-.34-.19-.61v-1.11h-.28c-.14,0-.21-.06-.21-.18,0-.06.02-.1.05-.14.04-.03.09-.05.15-.05h.28v-.49c0-.07.02-.13.06-.17s.1-.06.17-.06.13.02.17.06c.04.04.07.1.07.17v.49h.47c.07,0,.12.02.15.05.04.03.05.08.05.14s-.02.11-.05.14c-.04.03-.09.05-.15.05h-.47v1.15c0,.15.03.26.09.33s.16.11.28.12h.13c.07.02.12.03.15.06Z" style="fill:#6777af; stroke-width:0px;"></path><path d="m71.38,24.89c-.05-.05-.08-.12-.08-.2s.03-.15.08-.2c.05-.05.13-.07.22-.07s.16.02.22.07.08.11.08.2-.03.15-.08.2c-.05.05-.13.08-.22.08s-.16-.03-.22-.08Zm.04,2.86s-.07-.09-.07-.17v-1.92c0-.08.02-.13.07-.17.05-.04.1-.06.17-.06s.13.02.17.06c.04.04.07.1.07.17v1.92c0,.08-.02.13-.07.17-.04.04-.1.06-.17.06s-.13-.02-.17-.06Z" style="fill:#6777af; stroke-width:0px;"></path><path d="m73.23,24.97c-.08.09-.11.21-.11.38v.13h.47c.07,0,.12.02.15.05.04.03.05.08.05.14s-.02.1-.05.13c-.04.03-.09.05-.15.05h-.47v1.73c0,.08-.02.13-.07.17-.05.04-.1.06-.17.06s-.13-.02-.17-.06c-.04-.04-.07-.1-.07-.17v-1.73h-.28c-.07,0-.12-.02-.15-.05-.04-.03-.05-.08-.05-.13s.02-.1.05-.14c.04-.03.09-.05.15-.05h.28v-.06c0-.29.07-.52.22-.68.15-.17.36-.26.63-.28h.12c.1-.02.17,0,.22.02.05.03.07.07.07.14,0,.11-.07.17-.2.19h-.12c-.16.02-.27.07-.35.16Z" style="fill:#6777af; stroke-width:0px;"></path><path d="m74.1,27.62c-.06-.03-.1-.07-.12-.11-.02-.04-.04-.08-.04-.13,0-.05.01-.09.04-.13s.06-.05.11-.05c.04,0,.11.03.19.08.09.05.19.09.28.12.09.03.2.05.34.05.15,0,.27-.03.35-.08.09-.05.13-.13.13-.23,0-.06-.02-.11-.05-.15-.03-.04-.09-.07-.17-.1-.08-.03-.2-.06-.36-.1-.28-.06-.48-.14-.6-.24-.12-.1-.18-.24-.18-.42,0-.14.04-.26.12-.37.08-.11.19-.19.33-.25.14-.06.3-.09.47-.09.13,0,.25.02.37.05.12.03.23.08.32.14.1.07.16.15.16.24,0,.05-.02.09-.04.13s-.07.05-.11.05c-.03,0-.06,0-.08-.02s-.07-.03-.11-.06c-.08-.05-.16-.09-.24-.12s-.17-.04-.28-.04c-.13,0-.24.03-.32.08-.08.06-.12.13-.12.23,0,.09.04.16.11.21s.21.1.42.14c.21.04.38.09.5.15.12.06.21.13.26.21.05.08.08.19.08.32,0,.21-.09.37-.26.49s-.4.19-.69.19c-.32,0-.58-.07-.79-.2Z" style="fill:#6777af; stroke-width:0px;"></path><path d="m79.39,25.57c.16.1.28.24.36.43.09.18.13.39.13.63s-.04.44-.13.62c-.09.18-.21.32-.36.42-.16.1-.34.15-.54.15-.17,0-.33-.04-.46-.11-.13-.07-.23-.18-.3-.32v1.05c0,.07-.02.12-.06.16s-.1.06-.17.06c-.07,0-.13-.02-.18-.06-.05-.04-.07-.1-.07-.17v-2.77c0-.07.02-.13.07-.17.04-.04.1-.06.17-.06s.13.02.17.06c.04.04.07.1.07.17v.19c.07-.14.17-.25.3-.32.13-.08.29-.11.46-.11.2,0,.38.05.53.15Zm-.16,1.66c.11-.14.17-.34.17-.6s-.06-.46-.17-.61-.28-.22-.48-.22-.37.07-.48.21c-.11.14-.17.34-.17.61s.06.46.17.61c.11.14.27.21.48.21s.37-.07.48-.21Z" style="fill:#6777af; stroke-width:0px;"></path><path d="m80.82,27.67c-.17-.1-.3-.24-.4-.42-.09-.18-.14-.39-.14-.63s.05-.45.14-.64c.09-.18.23-.32.4-.42s.37-.15.6-.15.43.05.6.15.3.24.4.42c.09.18.14.39.14.64s-.05.45-.14.63c-.09.18-.23.32-.4.42-.17.1-.37.15-.6.15s-.43-.05-.6-.15Zm1.08-.44c.11-.14.17-.34.17-.61s-.06-.47-.17-.61c-.11-.14-.27-.21-.48-.21s-.37.07-.48.21c-.11.14-.17.34-.17.61s.06.47.17.61.27.21.48.21.37-.07.48-.21Z" style="fill:#6777af; stroke-width:0px;"></path><path d="m85.04,25.49s.06.1.06.17v1.92c0,.07-.02.12-.07.16-.04.04-.1.06-.18.06-.07,0-.12-.02-.16-.06-.04-.04-.06-.09-.06-.16v-.18c-.07.13-.17.23-.3.3-.13.07-.27.1-.43.1-.56,0-.84-.31-.84-.93v-1.23c0-.07.02-.13.06-.17.04-.04.1-.06.18-.06s.13.02.17.06c.04.04.06.1.06.17v1.22c0,.19.04.32.11.41.08.09.19.13.35.13.19,0,.34-.06.45-.18.11-.12.17-.28.17-.48v-1.11c0-.07.02-.13.07-.17.04-.04.1-.06.18-.06s.13.02.17.06Z" style="fill:#6777af; stroke-width:0px;"></path><path d="m87.21,25.63c0,.07-.02.12-.05.16s-.09.06-.18.06h-.14c-.2.03-.35.1-.44.22s-.14.26-.14.44v1.08c0,.08-.02.13-.07.17-.04.04-.1.06-.17.06s-.13-.02-.17-.06c-.05-.04-.07-.09-.07-.17v-1.92c0-.07.02-.13.07-.17.05-.04.1-.06.17-.06.06,0,.12.02.16.06.04.04.06.09.06.16v.23c.06-.14.15-.24.27-.32.12-.07.26-.12.41-.13h.07c.15-.01.23.05.23.19Z" style="fill:#6777af; stroke-width:0px;"></path><path d="m88.82,27.75s-.07-.09-.07-.17v-2.92c0-.08.02-.13.07-.17.05-.04.1-.06.17-.06s.13.02.17.06c.04.04.07.1.07.17v2.92c0,.08-.02.13-.07.17-.04.04-.1.06-.17.06s-.13-.02-.17-.06Z" style="fill:#6777af; stroke-width:0px;"></path><path d="m91.81,27.26s.04.08.04.13c0,.09-.06.17-.17.23-.11.06-.23.11-.36.15s-.26.05-.38.05c-.37,0-.65-.11-.87-.32-.21-.21-.32-.5-.32-.87,0-.24.05-.45.14-.63.09-.18.22-.32.39-.43.17-.1.36-.15.57-.15.31,0,.55.1.73.3s.27.47.27.8c0,.13-.06.19-.17.19h-1.46c.03.49.27.73.71.73.12,0,.22-.02.3-.05.08-.03.17-.07.27-.12,0,0,.04-.02.08-.04.04-.02.08-.03.11-.03.04,0,.08.02.11.05Zm-1.37-1.31c-.11.12-.18.28-.2.49h1.22c0-.21-.06-.38-.16-.49-.1-.12-.24-.17-.42-.17s-.33.06-.44.18Z" style="fill:#6777af; stroke-width:0px;"></path><path d="m92.41,27.62c-.06-.03-.1-.07-.12-.11-.02-.04-.04-.08-.04-.13,0-.05.01-.09.04-.13s.06-.05.11-.05c.04,0,.11.03.19.08.09.05.19.09.28.12.09.03.2.05.34.05.15,0,.27-.03.35-.08.09-.05.13-.13.13-.23,0-.06-.02-.11-.05-.15-.03-.04-.09-.07-.17-.1-.08-.03-.2-.06-.36-.1-.28-.06-.48-.14-.6-.24-.12-.1-.18-.24-.18-.42,0-.14.04-.26.12-.37.08-.11.19-.19.33-.25.14-.06.3-.09.47-.09.13,0,.25.02.37.05.12.03.23.08.32.14.1.07.16.15.16.24,0,.05-.02.09-.04.13s-.07.05-.11.05c-.03,0-.06,0-.08-.02s-.07-.03-.11-.06c-.08-.05-.16-.09-.24-.12s-.17-.04-.28-.04c-.13,0-.24.03-.32.08-.08.06-.12.13-.12.23,0,.09.04.16.11.21s.21.1.42.14c.21.04.38.09.5.15.12.06.21.13.26.21.05.08.08.19.08.32,0,.21-.09.37-.26.49s-.4.19-.69.19c-.32,0-.58-.07-.79-.2Z" style="fill:#6777af; stroke-width:0px;"></path><path d="m95.95,24.89c-.05-.05-.08-.12-.08-.2s.03-.15.08-.2c.05-.05.13-.07.22-.07s.16.02.22.07.08.11.08.2-.03.15-.08.2c-.05.05-.13.08-.22.08s-.16-.03-.22-.08Zm.04,2.86s-.07-.09-.07-.17v-1.92c0-.08.02-.13.07-.17.05-.04.1-.06.17-.06s.13.02.17.06c.04.04.07.1.07.17v1.92c0,.08-.02.13-.07.17-.04.04-.1.06-.17.06s-.13-.02-.17-.06Z" style="fill:#6777af; stroke-width:0px;"></path><path d="m99.14,26.35v1.23c0,.07-.02.13-.06.17-.04.04-.1.06-.18.06s-.13-.02-.17-.06c-.04-.04-.06-.1-.06-.17v-1.21c0-.2-.04-.34-.12-.43s-.2-.14-.36-.14c-.19,0-.35.06-.46.18s-.18.28-.18.48v1.11c0,.07-.02.12-.06.17-.04.04-.1.06-.17.06s-.13-.02-.17-.06c-.04-.04-.07-.1-.07-.17v-1.92c0-.07.02-.12.07-.16.05-.04.1-.06.17-.06s.12.02.17.06.06.09.06.16v.19c.08-.14.18-.24.32-.32.14-.07.29-.11.46-.11.55,0,.83.31.83.93Z" style="fill:#6777af; stroke-width:0px;"></path><path d="m101.52,25.47s.07-.03.12-.03c.06,0,.11.02.16.06.05.04.07.09.07.15,0,.03,0,.06-.02.09l-.9,1.92c-.02.05-.06.09-.1.12-.05.03-.09.04-.14.04s-.1-.01-.14-.04c-.05-.03-.08-.07-.1-.12l-.9-1.92s-.02-.06-.02-.09c0-.06.03-.11.08-.15.05-.04.11-.06.17-.06.09,0,.16.04.2.13l.73,1.63.73-1.62s.05-.08.08-.1Z" style="fill:#6777af; stroke-width:0px;"></path><path d="m104.14,27.26s.04.08.04.13c0,.09-.06.17-.17.23-.11.06-.23.11-.36.15s-.26.05-.38.05c-.37,0-.65-.11-.87-.32-.21-.21-.32-.5-.32-.87,0-.24.05-.45.14-.63.09-.18.22-.32.39-.43.17-.1.36-.15.57-.15.31,0,.55.1.73.3s.27.47.27.8c0,.13-.06.19-.17.19h-1.46c.03.49.27.73.71.73.12,0,.22-.02.3-.05.08-.03.17-.07.27-.12,0,0,.04-.02.08-.04.04-.02.08-.03.11-.03.04,0,.08.02.11.05Zm-1.37-1.31c-.11.12-.18.28-.2.49h1.22c0-.21-.06-.38-.16-.49-.1-.12-.24-.17-.42-.17s-.33.06-.44.18Z" style="fill:#6777af; stroke-width:0px;"></path><path d="m106.8,26.35v1.23c0,.07-.02.13-.06.17-.04.04-.1.06-.18.06s-.13-.02-.17-.06c-.04-.04-.06-.1-.06-.17v-1.21c0-.2-.04-.34-.12-.43s-.2-.14-.36-.14c-.19,0-.35.06-.46.18s-.18.28-.18.48v1.11c0,.07-.02.12-.06.17-.04.04-.1.06-.17.06s-.13-.02-.17-.06c-.04-.04-.07-.1-.07-.17v-1.92c0-.07.02-.12.07-.16.05-.04.1-.06.17-.06s.12.02.17.06.06.09.06.16v.19c.08-.14.18-.24.32-.32.14-.07.29-.11.46-.11.55,0,.83.31.83.93Z" style="fill:#6777af; stroke-width:0px;"></path><path d="m108.73,27.5s.04.07.04.13c0,.06-.02.11-.07.14s-.12.05-.21.04h-.13c-.26-.03-.45-.11-.57-.24-.13-.14-.19-.34-.19-.61v-1.11h-.28c-.14,0-.21-.06-.21-.18,0-.06.02-.1.05-.14.04-.03.09-.05.15-.05h.28v-.49c0-.07.02-.13.06-.17s.1-.06.17-.06.13.02.17.06c.04.04.07.1.07.17v.49h.47c.07,0,.12.02.15.05.04.03.05.08.05.14s-.02.11-.05.14c-.04.03-.09.05-.15.05h-.47v1.15c0,.15.03.26.09.33s.16.11.28.12h.13c.07.02.12.03.15.06Z" style="fill:#6777af; stroke-width:0px;"></path><path d="m111.03,27.26s.04.08.04.13c0,.09-.06.17-.17.23-.11.06-.23.11-.36.15s-.26.05-.38.05c-.37,0-.65-.11-.87-.32-.21-.21-.32-.5-.32-.87,0-.24.05-.45.14-.63.09-.18.22-.32.39-.43.17-.1.36-.15.57-.15.31,0,.55.1.73.3s.27.47.27.8c0,.13-.06.19-.17.19h-1.46c.03.49.27.73.71.73.12,0,.22-.02.3-.05.08-.03.17-.07.27-.12,0,0,.04-.02.08-.04.04-.02.08-.03.11-.03.04,0,.08.02.11.05Zm-1.37-1.31c-.11.12-.18.28-.2.49h1.22c0-.21-.06-.38-.16-.49-.1-.12-.24-.17-.42-.17s-.33.06-.44.18Z" style="fill:#6777af; stroke-width:0px;"></path><path d="m113.58,25.49s.06.1.06.17v1.92c0,.07-.02.12-.07.16-.04.04-.1.06-.18.06-.07,0-.12-.02-.16-.06-.04-.04-.06-.09-.06-.16v-.18c-.07.13-.17.23-.3.3-.13.07-.27.1-.43.1-.56,0-.84-.31-.84-.93v-1.23c0-.07.02-.13.06-.17.04-.04.1-.06.18-.06s.13.02.17.06c.04.04.06.1.06.17v1.22c0,.19.04.32.11.41.08.09.19.13.35.13.19,0,.34-.06.45-.18.11-.12.17-.28.17-.48v-1.11c0-.07.02-.13.07-.17.04-.04.1-.06.18-.06s.13.02.17.06Z" style="fill:#6777af; stroke-width:0px;"></path><path d="m115.75,25.63c0,.07-.02.12-.05.16s-.09.06-.18.06h-.14c-.2.03-.35.1-.44.22s-.14.26-.14.44v1.08c0,.08-.02.13-.07.17-.04.04-.1.06-.17.06s-.13-.02-.17-.06c-.05-.04-.07-.09-.07-.17v-1.92c0-.07.02-.13.07-.17.05-.04.1-.06.17-.06.06,0,.12.02.16.06.04.04.06.09.06.16v.23c.06-.14.15-.24.27-.32.12-.07.26-.12.41-.13h.07c.15-.01.23.05.23.19Z" style="fill:#6777af; stroke-width:0px;"></path><path d="m116.03,27.62c-.06-.03-.1-.07-.12-.11-.02-.04-.04-.08-.04-.13,0-.05.01-.09.04-.13s.06-.05.11-.05c.04,0,.11.03.19.08.09.05.19.09.28.12.09.03.2.05.34.05.15,0,.27-.03.35-.08.09-.05.13-.13.13-.23,0-.06-.02-.11-.05-.15-.03-.04-.09-.07-.17-.1-.08-.03-.2-.06-.36-.1-.28-.06-.48-.14-.6-.24-.12-.1-.18-.24-.18-.42,0-.14.04-.26.12-.37.08-.11.19-.19.33-.25.14-.06.3-.09.47-.09.13,0,.25.02.37.05.12.03.23.08.32.14.1.07.16.15.16.24,0,.05-.02.09-.04.13s-.07.05-.11.05c-.03,0-.06,0-.08-.02s-.07-.03-.11-.06c-.08-.05-.16-.09-.24-.12s-.17-.04-.28-.04c-.13,0-.24.03-.32.08-.08.06-.12.13-.12.23,0,.09.04.16.11.21s.21.1.42.14c.21.04.38.09.5.15.12.06.21.13.26.21.05.08.08.19.08.32,0,.21-.09.37-.26.49s-.4.19-.69.19c-.32,0-.58-.07-.79-.2Z" style="fill:#6777af; stroke-width:0px;"></path><path d="m121.61,24.49s.07.1.07.17v2.92c0,.07-.02.13-.06.17-.04.04-.1.06-.17.06s-.13-.02-.17-.06c-.04-.04-.06-.1-.06-.17v-.19c-.07.14-.17.25-.3.32-.13.07-.29.11-.46.11-.2,0-.38-.05-.53-.15s-.28-.24-.36-.43c-.09-.18-.13-.39-.13-.63s.04-.45.13-.63c.09-.18.21-.32.36-.42.15-.1.33-.15.53-.15.17,0,.33.04.46.11s.23.18.3.31v-1.2c0-.07.02-.12.06-.16.04-.04.1-.06.17-.06s.13.02.18.06Zm-.58,2.74c.11-.14.17-.34.17-.61s-.06-.46-.17-.61c-.11-.14-.27-.21-.48-.21s-.37.07-.48.21c-.12.14-.17.34-.17.6s.06.46.17.61c.12.15.28.22.48.22s.36-.07.48-.21Z" style="fill:#6777af; stroke-width:0px;"></path><path d="m124.26,27.26s.04.08.04.13c0,.09-.06.17-.17.23-.11.06-.23.11-.36.15s-.26.05-.38.05c-.37,0-.65-.11-.87-.32-.21-.21-.32-.5-.32-.87,0-.24.05-.45.14-.63.09-.18.22-.32.39-.43.17-.1.36-.15.57-.15.31,0,.55.1.73.3s.27.47.27.8c0,.13-.06.19-.17.19h-1.46c.03.49.27.73.71.73.12,0,.22-.02.3-.05.08-.03.17-.07.27-.12,0,0,.04-.02.08-.04.04-.02.08-.03.11-.03.04,0,.08.02.11.05Zm-1.37-1.31c-.11.12-.18.28-.2.49h1.22c0-.21-.06-.38-.16-.49-.1-.12-.24-.17-.42-.17s-.33.06-.44.18Z" style="fill:#6777af; stroke-width:0px;"></path><path d="m128.16,24.49s.07.1.07.17v2.92c0,.07-.02.13-.06.17-.04.04-.1.06-.17.06s-.13-.02-.17-.06c-.04-.04-.06-.1-.06-.17v-.19c-.07.14-.17.25-.3.32-.13.07-.29.11-.46.11-.2,0-.38-.05-.53-.15s-.28-.24-.36-.43c-.09-.18-.13-.39-.13-.63s.04-.45.13-.63c.09-.18.21-.32.36-.42.15-.1.33-.15.53-.15.17,0,.33.04.46.11s.23.18.3.31v-1.2c0-.07.02-.12.06-.16.04-.04.1-.06.17-.06s.13.02.18.06Zm-.58,2.74c.11-.14.17-.34.17-.61s-.06-.46-.17-.61c-.11-.14-.27-.21-.48-.21s-.37.07-.48.21c-.12.14-.17.34-.17.6s.06.46.17.61c.12.15.28.22.48.22s.36-.07.48-.21Z" style="fill:#6777af; stroke-width:0px;"></path><path d="m130.8,27.26s.04.08.04.13c0,.09-.06.17-.17.23-.11.06-.23.11-.36.15s-.26.05-.38.05c-.37,0-.65-.11-.87-.32-.21-.21-.32-.5-.32-.87,0-.24.05-.45.14-.63.09-.18.22-.32.39-.43.17-.1.36-.15.57-.15.31,0,.55.1.73.3s.27.47.27.8c0,.13-.06.19-.17.19h-1.46c.03.49.27.73.71.73.12,0,.22-.02.3-.05.08-.03.17-.07.27-.12,0,0,.04-.02.08-.04.04-.02.08-.03.11-.03.04,0,.08.02.11.05Zm-1.37-1.31c-.11.12-.18.28-.2.49h1.22c0-.21-.06-.38-.16-.49-.1-.12-.24-.17-.42-.17s-.33.06-.44.18Z" style="fill:#6777af; stroke-width:0px;"></path><path d="m134.82,26.35v1.23c0,.07-.02.13-.07.17-.04.04-.1.06-.18.06s-.13-.02-.17-.06c-.04-.04-.07-.1-.07-.17v-1.22c0-.19-.03-.33-.1-.42-.07-.09-.18-.13-.33-.13-.17,0-.31.06-.41.18-.1.12-.15.28-.15.48v1.11c0,.07-.02.13-.07.17-.04.04-.1.06-.17.06s-.13-.02-.17-.06c-.04-.04-.07-.1-.07-.17v-1.22c0-.19-.03-.33-.1-.42-.07-.09-.18-.13-.33-.13-.17,0-.31.06-.41.18s-.15.28-.15.48v1.11c0,.07-.02.13-.07.17-.04.04-.1.06-.17.06s-.13-.02-.17-.06c-.05-.04-.07-.1-.07-.17v-1.92c0-.07.02-.12.07-.17.05-.04.1-.06.17-.06s.12.02.16.06c.04.04.06.09.06.16v.18c.07-.13.17-.23.29-.3s.26-.1.43-.1c.18,0,.32.04.44.11.12.07.2.18.26.34.07-.14.17-.24.31-.32.14-.08.29-.12.46-.12.52,0,.78.31.78.93Z" style="fill:#6777af; stroke-width:0px;"></path><path d="m137.12,25.65c.15.15.22.39.22.71v1.22c0,.07-.02.13-.06.17-.04.04-.1.06-.17.06s-.12-.02-.17-.06c-.04-.04-.06-.1-.06-.17v-.17c-.06.13-.15.23-.27.31s-.26.11-.41.11-.29-.03-.41-.09c-.12-.06-.22-.15-.3-.25-.07-.11-.11-.23-.11-.36,0-.17.04-.3.13-.4s.23-.17.43-.21c.2-.04.47-.06.83-.06h.11v-.14c0-.18-.04-.3-.11-.38-.07-.08-.19-.12-.35-.12-.11,0-.21.01-.31.04-.1.03-.21.07-.32.12-.09.05-.15.07-.18.07-.05,0-.09-.02-.12-.05-.03-.03-.04-.08-.04-.13,0-.05.01-.09.04-.13.03-.04.07-.07.13-.11.11-.06.24-.11.39-.14.15-.04.29-.05.43-.05.31,0,.53.08.68.23Zm-.4,1.63c.11-.12.17-.27.17-.46v-.12h-.09c-.25,0-.44.01-.57.03-.13.02-.23.06-.28.11-.06.05-.08.13-.08.22,0,.11.04.21.12.28.08.07.18.11.31.11.17,0,.31-.06.43-.18Z" style="fill:#6777af; stroke-width:0px;"></path><path d="m138.02,24.89c-.05-.05-.08-.12-.08-.2s.03-.15.08-.2c.05-.05.13-.07.22-.07s.16.02.22.07.08.11.08.2-.03.15-.08.2c-.05.05-.13.08-.22.08s-.16-.03-.22-.08Zm.04,2.86s-.07-.09-.07-.17v-1.92c0-.08.02-.13.07-.17.05-.04.1-.06.17-.06s.13.02.17.06c.04.04.07.1.07.17v1.92c0,.08-.02.13-.07.17-.04.04-.1.06-.17.06s-.13-.02-.17-.06Z" style="fill:#6777af; stroke-width:0px;"></path><path d="m141.22,26.35v1.23c0,.07-.02.13-.06.17-.04.04-.1.06-.18.06s-.13-.02-.17-.06c-.04-.04-.06-.1-.06-.17v-1.21c0-.2-.04-.34-.12-.43s-.2-.14-.36-.14c-.19,0-.35.06-.46.18s-.18.28-.18.48v1.11c0,.07-.02.12-.06.17-.04.04-.1.06-.17.06s-.13-.02-.17-.06c-.04-.04-.07-.1-.07-.17v-1.92c0-.07.02-.12.07-.16.05-.04.1-.06.17-.06s.12.02.17.06.06.09.06.16v.19c.08-.14.18-.24.32-.32.14-.07.29-.11.46-.11.55,0,.83.31.83.93Z" style="fill:#6777af; stroke-width:0px;"></path><path d="m18.77,28.19l-9.46-2.54c-.27-.07-.36-.41-.16-.61l7.28-7.28c.09-.09.23-.13.35-.09l9.46,2.54c.27.07.36.41.16.61l-7.28,7.28c-.09.09-.23.13-.35.09Zm-2.57-12.86l14.07,3.77c.27.07.36.41.16.61l-10.72,10.72c-.09.09-.23.13-.35.09l-14.07-3.77c-.27-.07-.36-.41-.16-.61l10.72-10.72c.09-.09.23-.13.35-.09Zm3.24,13.92l8.97-8.97c.2-.2.11-.54-.16-.61l-11.77-3.15c-.13-.03-.26,0-.35.09l-8.97,8.97c-.2.2-.11.54.16.61l11.77,3.15c.13.03.26,0,.35-.09Z" style="fill:#6777af; stroke-width:0px;"></path><path d="m5.49,21.39l7.28-7.28c.09-.09.13-.23.09-.35l-2.54-9.46c-.07-.27-.41-.36-.61-.16l-7.28,7.28c-.09.09-.13.23-.09.35l2.54,9.46c.07.27.41.36.61.16ZM11.44.27l3.77,14.07c.03.13,0,.26-.09.35l-10.72,10.72c-.2.2-.54.11-.61-.16L.01,11.18c-.03-.13,0-.26.09-.35L10.83.11c.2-.2.54-.11.61.16Zm-6.48,23.12l8.97-8.97c.09-.09.13-.23.09-.35l-3.15-11.77c-.07-.27-.41-.36-.61-.16L1.29,11.1c-.09.09-.13.23-.09.35l3.15,11.77c.07.27.41.36.61.16Z" style="fill:#6777af; stroke-width:0px;"></path><path d="m26.89,4.38l-.1-.37c-.03-.13-.13-.22-.26-.26l-.37-.1-4.03-1.08c-.27-.07-.52.18-.45.45l1.08,4.03.1.37c.03.13.13.22.26.26l.37.1,4.03,1.08c.27.07.52-.18.45-.45l-1.08-4.03Z" style="fill:#ffec00; stroke-width:0px;"></path><path d="m21.86,7.69l-1.18-4.41c-.07-.27-.41-.36-.61-.16l-3.23,3.23c-.09.09-.13.23-.09.35l1.18,4.4c.07.27.41.36.61.16l3.22-3.22c.09-.09.13-.23.09-.35Z" style="fill:#6777af; stroke-width:0px;"></path><path d="m27.25,9.86l-4.41-1.18c-.13-.03-.26,0-.35.09l-3.22,3.22c-.2.2-.11.54.16.61l4.4,1.18c.13.03.26,0,.35-.09l3.23-3.23c.2-.2.11-.54-.16-.61Z" style="fill:#e63332; stroke-width:0px;"></path><path d="m111.3,18.24c-.05-.05-.08-.11-.08-.19V3.32c0-.07.03-.13.08-.19s.11-.08.19-.08h2.55c.07,0,.13.03.18.08s.08.11.08.19v12.26c0,.07.04.11.11.11h5.84c.07,0,.13.03.19.08.05.05.08.11.08.19v2.12c0,.07-.03.13-.08.19-.05.05-.11.08-.19.08h-8.77c-.07,0-.13-.03-.19-.08Zm17.24-10.84c.68.31,1.22.75,1.6,1.31s.58,1.2.58,1.91v7.44c0,.07-.03.13-.08.19-.05.05-.11.08-.18.08h-2.55c-.07,0-.13-.03-.19-.08-.05-.05-.08-.11-.08-.19v-.61s-.01-.07-.04-.09c-.03-.01-.06,0-.09.04-.55.73-1.41,1.09-2.57,1.09-.99,0-1.81-.25-2.48-.76s-.99-1.36-.99-2.55c0-2.37,1.48-3.55,4.45-3.55h1.61c.07,0,.11-.04.11-.11v-.5c0-.44-.13-.79-.38-1.05-.25-.26-.6-.39-1.04-.39-.35,0-.64.08-.87.24-.23.16-.38.38-.44.65-.04.15-.14.22-.31.22l-2.64-.15c-.07,0-.13-.02-.19-.07-.05-.04-.07-.1-.05-.17.09-1,.54-1.81,1.36-2.43.82-.62,1.86-.93,3.11-.93.87,0,1.65.16,2.33.47Zm-1.42,8.34c.35-.28.52-.64.52-1.09v-.92c0-.07-.04-.11-.11-.11h-1.22c-.54,0-.96.12-1.27.35s-.46.57-.46,1c0,.38.12.67.35.87.23.2.54.31.92.31.49,0,.92-.14,1.27-.41Zm14.59-3.14c0,.97-.07,1.78-.22,2.42-.48,2.31-1.61,3.47-3.4,3.47-1,0-1.77-.31-2.31-.94-.03-.04-.06-.06-.09-.04-.03.01-.04.04-.04.09v.46c0,.07-.03.13-.08.19-.05.05-.11.08-.19.08h-2.55c-.07,0-.13-.03-.18-.08-.05-.05-.08-.11-.08-.19V3.32c0-.07.03-.13.08-.19.05-.05.11-.08.18-.08h2.55c.07,0,.13.03.19.08s.08.11.08.19v4.47s.01.07.04.09c.03.01.06,0,.09-.04.28-.32.6-.55.97-.69.37-.14.8-.21,1.3-.21.95,0,1.71.29,2.29.87.58.58.97,1.42,1.18,2.51.13.64.2,1.4.2,2.29Zm-3.08.09c0-.87-.07-1.52-.2-1.94-.23-.79-.68-1.18-1.33-1.18s-1.1.4-1.29,1.2c-.12.51-.17,1.15-.17,1.92,0,.84.06,1.48.17,1.9.19.84.62,1.27,1.29,1.27.71,0,1.16-.43,1.35-1.29.12-.48.17-1.1.17-1.88ZM34.23,5.24c-.28-.29-.42-.66-.42-1.11s.14-.82.42-1.11.65-.44,1.1-.44.84.14,1.12.42.42.66.42,1.12-.15.82-.44,1.11-.66.44-1.11.44-.82-.15-1.1-.44Zm-.09,13.01c-.05-.05-.08-.11-.08-.18V7.44c0-.07.03-.13.08-.18s.11-.08.18-.08h2c.07,0,.13.03.18.08s.08.11.08.18v10.62c0,.07-.03.13-.08.18-.05.05-.11.08-.18.08h-2c-.07,0-.13-.03-.18-.08Zm4.48-5.46c-.05-.05-.08-.11-.08-.18v-1.65c0-.07.02-.13.08-.18s.11-.08.18-.08h4.41c.07,0,.13.03.18.08.05.05.08.11.08.18v1.65c0,.07-.03.13-.08.18-.05.05-.11.08-.18.08h-4.41c-.07,0-.13-.02-.18-.08Zm19.84-4.76c.56.67.84,1.6.84,2.79v7.25c0,.07-.03.13-.08.18-.05.05-.11.08-.19.08h-1.98c-.07,0-.13-.03-.18-.08-.05-.05-.08-.11-.08-.18v-6.9c0-.61-.14-1.09-.44-1.44-.29-.35-.67-.52-1.15-.52-.51,0-.91.17-1.21.52-.3.35-.45.82-.45,1.41v6.92c0,.07-.03.13-.08.18-.05.05-.11.08-.19.08h-2c-.07,0-.13-.03-.19-.08-.05-.05-.08-.11-.08-.18v-6.9c0-.61-.15-1.09-.44-1.44-.29-.35-.68-.52-1.16-.52-.51,0-.91.17-1.21.52-.3.35-.45.82-.45,1.41v6.92c0,.07-.03.13-.08.18-.05.05-.11.08-.18.08h-1.98c-.07,0-.13-.03-.19-.08-.05-.05-.08-.11-.08-.18V7.46c0-.07.02-.13.08-.18s.11-.08.19-.08h1.98c.07,0,.13.03.18.08s.08.11.08.18v.54s.01.07.04.08c.03,0,.06,0,.09-.03.6-.68,1.4-1.02,2.42-1.02.64,0,1.19.13,1.66.4.46.27.83.65,1.09,1.14.03.03.06.04.09.04s.05-.03.07-.09c.33-.52.75-.9,1.25-1.14.5-.24,1.03-.36,1.6-.36,1.03,0,1.83.33,2.38,1Zm9.28-.53c.64.31,1.14.74,1.49,1.3s.53,1.18.53,1.89v7.38c0,.07-.03.13-.08.18-.05.05-.11.08-.19.08h-2c-.07,0-.13-.03-.18-.08-.05-.05-.08-.11-.08-.18v-.54s-.01-.07-.04-.09-.06,0-.09.02c-.61.7-1.49,1.05-2.63,1.05-.96,0-1.77-.26-2.44-.77s-1-1.35-1-2.51c0-1.22.39-2.13,1.17-2.72.78-.59,1.85-.89,3.21-.89h1.72c.07,0,.11-.04.11-.11v-.54c0-.54-.15-.96-.45-1.27s-.71-.47-1.23-.47c-.42,0-.77.1-1.03.29-.27.2-.44.46-.51.79-.04.16-.15.24-.3.24l-2.11-.13c-.07,0-.13-.03-.19-.08-.05-.05-.07-.1-.05-.16.09-.93.52-1.68,1.3-2.26.78-.58,1.74-.87,2.88-.87.83,0,1.56.16,2.2.47Zm-1.13,8.47c.42-.33.63-.76.63-1.3v-1.13c0-.07-.04-.11-.11-.11h-1.46c-.64,0-1.14.14-1.51.41-.37.28-.56.67-.56,1.2,0,.46.14.82.42,1.06.28.24.65.36,1.1.36.57,0,1.06-.16,1.48-.49Zm11.31-8.69c.05-.05.11-.08.19-.08h2c.07,0,.13.03.18.08s.08.11.08.18v10.28c0,1.68-.46,2.93-1.37,3.76-.91.82-2.24,1.23-3.96,1.23-.2,0-.52-.01-.96-.04-.17-.01-.26-.11-.26-.28l.07-1.74c0-.17.09-.25.28-.24.15.01.36.02.65.02,1.09,0,1.87-.23,2.33-.67.46-.45.7-1.18.7-2.18v-.2s-.01-.07-.04-.09c-.03-.01-.06,0-.09.04-.55.64-1.31.96-2.29.96s-1.74-.28-2.39-.84c-.65-.56-1.06-1.35-1.22-2.38-.09-.44-.13-1.22-.13-2.35,0-1.2.06-2.03.17-2.48.14-.99.52-1.77,1.13-2.35s1.39-.87,2.35-.87,1.79.33,2.37.98c.03.03.06.04.09.03.03,0,.04-.03.04-.08v-.5c0-.07.03-.13.08-.18Zm-.08,5.45c0-.83-.03-1.48-.09-1.96-.06-.46-.24-.84-.54-1.13s-.69-.44-1.15-.44-.85.15-1.15.44-.49.67-.57,1.13c-.09.54-.13,1.19-.13,1.96,0,.71.04,1.34.11,1.89.07.46.27.84.59,1.13.32.29.71.44,1.17.44s.87-.14,1.17-.44c.3-.29.47-.67.53-1.13.04-.55.07-1.18.07-1.89Zm5.08-7.49c-.28-.29-.42-.66-.42-1.11s.14-.82.42-1.11c.28-.29.65-.44,1.1-.44s.84.14,1.12.42c.28.28.42.66.42,1.12s-.14.82-.44,1.11c-.29.29-.66.44-1.11.44s-.82-.15-1.1-.44Zm-.09,13.01c-.05-.05-.08-.11-.08-.18V7.44c0-.07.03-.13.08-.18s.11-.08.18-.08h2c.07,0,.13.03.19.08s.08.11.08.18v10.62c0,.07-.03.13-.08.18-.05.05-.11.08-.19.08h-2c-.07,0-.13-.03-.18-.08Zm12.46-10.22c.6.67.89,1.59.89,2.77v7.27c0,.07-.03.13-.08.18-.05.05-.11.08-.18.08h-2c-.07,0-.13-.03-.19-.08-.05-.05-.08-.11-.08-.18v-6.92c0-.59-.15-1.07-.45-1.41-.3-.35-.7-.52-1.21-.52s-.94.18-1.25.53c-.31.36-.47.83-.47,1.43v6.9c0,.07-.03.13-.08.18-.05.05-.11.08-.19.08h-2c-.07,0-.13-.03-.19-.08-.05-.05-.08-.11-.08-.18V7.46c0-.07.02-.13.08-.18s.11-.08.19-.08h2c.07,0,.13.03.19.08.05.05.08.11.08.18v.57s.02.07.04.09c.03.01.06,0,.09-.04.58-.7,1.38-1.05,2.39-1.05s1.89.33,2.48,1Zm11.65,4.53l-.02.94c0,.17-.09.26-.26.26h-5.83c-.07,0-.11.04-.11.11.03.41.06.7.09.89.07.48.28.86.61,1.15.33.29.76.44,1.26.44.44-.01.8-.12,1.1-.33s.53-.49.69-.85c.07-.16.18-.22.33-.17l1.79.37c.17.06.23.17.17.33-.29.9-.79,1.59-1.49,2.08-.7.49-1.56.73-2.58.73-1.2,0-2.17-.29-2.9-.87s-1.2-1.39-1.41-2.42c-.07-.39-.12-.81-.14-1.24s-.03-1.02-.03-1.74.04-1.33.11-1.72c.14-1.06.6-1.9,1.35-2.54.76-.63,1.71-.95,2.87-.95,1.26,0,2.28.36,3.06,1.07.78.71,1.21,1.65,1.3,2.81.04.48.07,1.03.07,1.65Zm-5.58-2.93c-.31.28-.5.66-.58,1.14-.04.32-.07.68-.07,1.09,0,.07.04.11.11.11h3.46c.07,0,.11-.04.11-.11-.03-.49-.06-.85-.09-1.07-.06-.48-.25-.86-.57-1.15s-.72-.44-1.2-.44-.87.14-1.19.42Z" style="fill:#6777af; stroke-width:0px;"></path></svg>