<?xml version="1.0" encoding="utf-8"?>
<!-- Generator: Adobe Illustrator 21.1.0, SVG Export Plug-In . SVG Version: 6.00 Build 0)  -->
<svg version="1.1" id="Calque_1" xmlns="http://www.w3.org/2000/svg" xmlns:xlink="http://www.w3.org/1999/xlink" x="0px" y="0px"
	 viewBox="0 0 634.4 307" style="enable-background:new 0 0 634.4 307;" xml:space="preserve">
<style type="text/css">
	.st0{fill:#0e1e3b;}
	.st1{fill:#0e1e3b;}
</style>
<g>
	<g>
		<path id="XMLID_42_" class="st1" d="M62.5,116.2H43.7v-7.3c0-5,4.2-9.1,9.3-9.1h9.4V116.2z M62.5,189.9H43.7v-66.1h18.8V189.9z"/>
		<path id="XMLID_40_" class="st1" d="M79.4,148.1h33.8v6.6c0,5-4.2,9.1-9.3,9.1H70.1v-6.6C70.1,152.2,74.3,148.1,79.4,148.1z"/>
		<path id="XMLID_38_" class="st1" d="M120.9,132.9c0-5,4.2-9.1,9.3-9.1h59.3c10,0,17.1,1.9,21.5,5.7c4.4,3.8,6.6,10,6.6,18.5v41.9
			h-18v-39.6c0-4.9-0.8-8.1-2.3-9.6c-1.5-1.6-4.6-2.3-9.3-2.3h-10v51.6h-18.3v-51.6h-20.9v51.6h-18V132.9z"/>
		<path id="XMLID_35_" class="st1" d="M229.8,133.3c0-5.3,4.4-9.5,9.8-9.5h26.9c9.2,0,16.2,2.1,20.9,6.2c4.7,4.1,7,10.3,7,18.5v41.4
			h-18.8h-3.1H269h-22.8c-6.7,0-11.9-1.7-15.5-5c-3.6-3.3-5.4-8-5.4-14.1c0-7.5,2.1-12.9,6.2-16.2c4.2-3.3,11.1-4.9,20.7-4.9h23.5
			v-1.7c0-3.9-1.2-6.7-3.5-8.3c-2.4-1.6-6.6-2.4-12.6-2.4h-29.9V133.3z M276,189.8v-13.3v-13.7h-21.1c-4.2,0-7.1,0.6-8.7,1.7
			c-1.6,1.1-2.4,3-2.4,5.8c0,2.3,0.6,4,1.9,4.9c1.3,0.9,3.9,1.4,7.8,1.4h15.7v13.3"/>
		<path id="XMLID_32_" class="st1" d="M370,187.5c0,9.1-2.1,15.7-6.2,20c-4.1,4.2-10.6,6.4-19.4,6.4h-35.1v-4.3c0-5,4.2-9.1,9.3-9.1
			h22.7c3.4,0,6.1-0.8,7.9-2.4c1.8-1.6,2.8-4,2.8-7v-1.1h-14.6c-7.5,0-13-0.6-16.3-1.7c-3.3-1.1-6.4-3-9.2-5.6
			c-3.2-3-5.7-6.7-7.4-11.1c-1.7-4.5-2.6-9.3-2.6-14.5c0-5.1,0.9-9.9,2.6-14.3c1.7-4.4,4.2-8.1,7.4-11.1c2.9-2.8,6.3-4.8,10.2-6
			c3.9-1.2,9-1.8,15.3-1.8h23.2c5.2,0,9.3,4.1,9.3,9.1V187.5z M342.7,176.2h9.3v-38.3h-9.3c-4.5,0-7.6,0.2-9.4,0.5
			c-1.8,0.3-3.4,0.9-4.7,1.7c-2.8,1.6-4.8,3.8-6.1,6.5c-1.3,2.7-1.9,6.2-1.9,10.4c0,7.1,1.6,12,4.8,14.9
			C328.7,174.8,334.4,176.2,342.7,176.2z"/>
		<path id="XMLID_29_" class="st1" d="M396.6,116.2h-18.8v-7.3c0-5,4.2-9.1,9.3-9.1h9.4V116.2z M396.6,189.9h-18.8v-66.1h18.8V189.9
			z"/>
		<path id="XMLID_27_" class="st1" d="M404.3,132.9c0-5,4.2-9.1,9.3-9.1h24.3c10.2,0,17.4,1.9,21.8,5.6c4.4,3.7,6.5,9.9,6.5,18.6
			v41.9h-17.9v-39.8c0-4.9-0.8-8.1-2.4-9.6c-1.6-1.5-4.7-2.2-9.4-2.2h-14.4v51.6h-17.9V132.9z"/>
		<path id="XMLID_25_" class="st1" d="M507.9,189.9c-11.2,0-19.7-2.8-25.5-8.4c-5.8-5.6-8.6-13.8-8.6-24.7c0-10.9,2.9-19.1,8.7-24.7
			c5.8-5.6,14.2-8.4,25.4-8.4h16.8c5.2,0,9.3,4.1,9.3,9.1v4.7h-23.7c-6.5,0-10.9,0.9-13.1,2.7c-2.2,1.8-3.4,5-3.6,9.7H534v13.8
			h-40.4c0.2,4.7,1.3,8,3.4,9.7c2.1,1.7,6.5,2.6,13.2,2.6H534v13.8H507.9z"/>
		<path id="XMLID_23_" class="st1" d="M541.6,129.8c0-3.4,2.8-6.1,6.2-6.1h23.8c7,0,12,1.2,14.8,3.7c2.8,2.5,4.2,6.8,4.2,13v11
			h-17.1l0-8.9c0-3.4-2.8-6.1-6.2-6.1l-7.9,0v53.4h-17.9V129.8z"/>
		<g>
			<path class="st1" d="M69.4,59.3c0.3,0.3,0.4,0.6,0.4,1.1v10.8c0,0.7-0.1,1.2-0.3,1.6c-0.2,0.3-0.6,0.6-1.2,0.8
				c-1.2,0.5-2.7,0.9-4.4,1.2c-1.7,0.3-3.4,0.4-5.2,0.4c-3.2,0-5.9-0.6-8.2-1.9c-2.3-1.2-4-3-5.3-5.4s-1.8-5.1-1.8-8.4
				c0-3.2,0.6-6,1.8-8.3c1.2-2.3,2.9-4.1,5.2-5.4s4.9-1.9,8-1.9c2.1,0,4.1,0.3,5.9,0.9c1.8,0.6,3.3,1.5,4.6,2.7
				c0.5,0.5,0.8,1,0.8,1.5c0,0.4-0.1,0.8-0.4,1.1c-0.2,0.3-0.5,0.5-0.9,0.5c-0.4,0-0.8-0.2-1.3-0.5c-1.6-1.2-3-2-4.3-2.4
				c-1.3-0.4-2.7-0.7-4.4-0.7c-3.6,0-6.3,1.1-8.3,3.3c-1.9,2.2-2.9,5.3-2.9,9.3c0,4.1,1,7.3,2.9,9.4c1.9,2.2,4.8,3.2,8.6,3.2
				c2.8,0,5.4-0.4,7.6-1.2v-9.3h-6.6c-0.5,0-0.9-0.1-1.2-0.4c-0.3-0.3-0.5-0.6-0.5-1c0-0.4,0.2-0.8,0.5-1c0.3-0.2,0.7-0.4,1.2-0.4
				h8.5C68.7,58.9,69.1,59,69.4,59.3z"/>
			<path class="st1" d="M102,73.6c0,0.4-0.2,0.8-0.5,1.1c-0.3,0.3-0.7,0.4-1.2,0.4c-0.7,0-1.2-0.3-1.6-0.9L92.6,65
				c-0.8-1.2-1.6-2-2.4-2.5c-0.8-0.4-2-0.7-3.4-0.7H81v11.3c0,0.5-0.2,1-0.5,1.3c-0.3,0.3-0.8,0.5-1.3,0.5c-0.6,0-1-0.2-1.4-0.5
				c-0.3-0.3-0.5-0.8-0.5-1.3V45.9c0-0.5,0.2-0.9,0.5-1.3c0.3-0.3,0.8-0.5,1.4-0.5h11.2c3.5,0,6.1,0.7,7.9,2.2
				c1.8,1.5,2.7,3.6,2.7,6.5c0,2.4-0.7,4.4-2.2,5.9c-1.5,1.5-3.6,2.4-6.3,2.7c0.8,0.2,1.4,0.6,2,1.1c0.6,0.5,1.2,1.2,1.8,2.2
				l5.2,7.8C101.9,72.9,102,73.2,102,73.6z M90.1,58.9c2.5,0,4.3-0.5,5.5-1.5c1.2-1,1.8-2.5,1.8-4.5c0-2-0.6-3.4-1.8-4.4
				c-1.2-1-3.1-1.4-5.6-1.4H81v11.8H90.1z"/>
			<path class="st1" d="M113.8,73.2c-2.2-1.3-3.9-3.1-5-5.4s-1.8-5.1-1.8-8.3c0-3.2,0.6-6,1.7-8.3c1.2-2.4,2.8-4.2,5-5.4
				c2.2-1.3,4.8-1.9,7.8-1.9c3,0,5.6,0.6,7.8,1.9c2.2,1.3,3.9,3.1,5,5.4s1.7,5.1,1.7,8.3c0,3.2-0.6,5.9-1.8,8.3s-2.9,4.2-5,5.4
				c-2.2,1.3-4.8,1.9-7.7,1.9C118.5,75.1,116,74.5,113.8,73.2z M129.4,68.8c1.9-2.2,2.8-5.3,2.8-9.3c0-4-0.9-7.2-2.8-9.3
				c-1.9-2.2-4.5-3.3-7.9-3.3c-3.4,0-6,1.1-7.9,3.3c-1.9,2.2-2.8,5.3-2.8,9.3c0,4,0.9,7.1,2.8,9.3c1.9,2.2,4.5,3.3,7.9,3.3
				C124.9,72.1,127.5,71,129.4,68.8z"/>
			<path class="st1" d="M145.7,72c-2.1-2.1-3.2-5.1-3.2-9.2v-17c0-0.5,0.2-1,0.5-1.3c0.3-0.3,0.8-0.5,1.4-0.5c0.5,0,1,0.2,1.3,0.5
				c0.3,0.3,0.5,0.8,0.5,1.3v17.3c0,3,0.8,5.2,2.3,6.7c1.5,1.5,3.8,2.3,6.7,2.3c3,0,5.2-0.8,6.7-2.3c1.5-1.5,2.3-3.7,2.3-6.7V45.8
				c0-0.5,0.2-1,0.5-1.3c0.3-0.3,0.8-0.5,1.3-0.5c0.6,0,1,0.2,1.4,0.5c0.3,0.3,0.5,0.8,0.5,1.3v17c0,4-1.1,7.1-3.2,9.2
				c-2.2,2.1-5.3,3.1-9.4,3.1C151,75.1,147.8,74.1,145.7,72z"/>
			<path class="st1" d="M176,74.5c-0.3-0.3-0.5-0.8-0.5-1.3V45.9c0-0.5,0.2-0.9,0.5-1.3c0.3-0.3,0.8-0.5,1.4-0.5h10.7
				c3.3,0,5.9,0.8,7.8,2.3c1.9,1.6,2.8,3.8,2.8,6.6c0,2.9-0.9,5.1-2.8,6.7c-1.9,1.6-4.5,2.4-7.8,2.4h-8.9v10.9c0,0.5-0.2,1-0.5,1.3
				c-0.3,0.3-0.8,0.5-1.4,0.5C176.7,75,176.3,74.8,176,74.5z M187.7,59.3c4.9,0,7.3-2,7.3-6.1c0-4-2.4-6-7.3-6h-8.6v12.1H187.7z"/>
			<path class="st1" d="M205.2,74.3c-0.3-0.3-0.5-0.7-0.5-1.3V45.9c0-0.5,0.2-0.9,0.5-1.3c0.3-0.3,0.8-0.5,1.4-0.5h16.9
				c0.5,0,1,0.1,1.3,0.4c0.3,0.3,0.5,0.6,0.5,1.1c0,0.5-0.2,0.8-0.5,1.1c-0.3,0.3-0.7,0.4-1.3,0.4h-15.2v10.6h14.3
				c0.5,0,1,0.1,1.3,0.4c0.3,0.3,0.5,0.6,0.5,1.1c0,0.5-0.2,0.8-0.5,1.1c-0.3,0.3-0.7,0.4-1.3,0.4h-14.3v11.1h15.2
				c0.5,0,1,0.1,1.3,0.4c0.3,0.2,0.5,0.6,0.5,1.1c0,0.5-0.2,0.8-0.5,1.1c-0.3,0.3-0.7,0.4-1.3,0.4h-16.9
				C206,74.8,205.5,74.6,205.2,74.3z"/>
		</g>
		<g>
			<path class="st1" d="M44,263c-0.3-0.3-0.4-0.6-0.4-1.1v-21.8c0-0.4,0.1-0.8,0.4-1c0.3-0.3,0.6-0.4,1.1-0.4h8.2
				c2.6,0,4.6,0.6,6,1.9c1.4,1.3,2.1,3,2.1,5.3s-0.7,4.1-2.2,5.4s-3.4,1.9-6,1.9h-6.9v8.8c0,0.4-0.1,0.8-0.4,1.1
				c-0.3,0.3-0.6,0.4-1,0.4S44.3,263.3,44,263z M53.1,250.8c3.7,0,5.6-1.6,5.6-4.9c0-3.2-1.9-4.8-5.6-4.8h-6.6v9.7H53.1z"/>
			<path class="st1" d="M67.9,262.4c-1.2-0.7-2.2-1.7-2.8-3.1c-0.7-1.3-1-2.9-1-4.6c0-1.8,0.3-3.3,1-4.6c0.7-1.3,1.6-2.4,2.8-3.1
				c1.2-0.7,2.6-1.1,4.2-1.1s3,0.4,4.2,1.1c1.2,0.7,2.2,1.7,2.8,3.1c0.7,1.3,1,2.9,1,4.6c0,1.8-0.3,3.3-1,4.6
				c-0.7,1.3-1.6,2.4-2.8,3.1c-1.2,0.7-2.6,1.1-4.2,1.1S69.1,263.1,67.9,262.4z M76,259.5c0.9-1.1,1.3-2.7,1.3-4.8
				c0-2.1-0.5-3.7-1.4-4.8s-2.2-1.7-3.8-1.7c-1.6,0-2.9,0.6-3.8,1.7c-0.9,1.1-1.4,2.7-1.4,4.8c0,2.1,0.4,3.7,1.3,4.8
				c0.9,1.1,2.2,1.7,3.8,1.7C73.8,261.2,75.1,260.6,76,259.5z"/>
			<path class="st1" d="M98.3,246.4c0.2,0.3,0.4,0.6,0.4,1v14.7c0,0.4-0.1,0.7-0.4,1s-0.6,0.4-1,0.4c-0.4,0-0.7-0.1-1-0.4
				c-0.2-0.2-0.4-0.6-0.4-1v-1.7c-0.5,1-1.3,1.8-2.2,2.3c-1,0.5-2,0.8-3.3,0.8c-2,0-3.5-0.6-4.6-1.7c-1-1.1-1.5-2.8-1.5-5v-9.5
				c0-0.4,0.1-0.8,0.4-1c0.3-0.3,0.6-0.4,1-0.4c0.4,0,0.8,0.1,1,0.4c0.2,0.3,0.4,0.6,0.4,1v9.4c0,1.5,0.3,2.6,0.9,3.3
				c0.6,0.7,1.6,1.1,2.9,1.1c1.5,0,2.7-0.5,3.6-1.4c0.9-1,1.4-2.2,1.4-3.8v-8.5c0-0.4,0.1-0.8,0.4-1c0.3-0.3,0.6-0.4,1-0.4
				S98.1,246.1,98.3,246.4z"/>
			<path class="st1" d="M113.8,247.2c0,0.4-0.1,0.7-0.3,0.9c-0.2,0.2-0.6,0.4-1.1,0.4l-1,0.1c-1.6,0.1-2.7,0.7-3.5,1.7
				c-0.8,1-1.1,2.1-1.1,3.4v8.5c0,0.5-0.1,0.8-0.4,1c-0.3,0.2-0.6,0.3-1,0.3c-0.4,0-0.8-0.1-1-0.4c-0.3-0.2-0.4-0.6-0.4-1v-14.7
				c0-0.4,0.1-0.8,0.4-1s0.6-0.4,1-0.4c0.4,0,0.7,0.1,0.9,0.4c0.3,0.2,0.4,0.6,0.4,1v1.9c0.5-1,1.2-1.8,2.1-2.3
				c0.9-0.5,1.9-0.8,3.1-0.9l0.5,0C113.3,245.9,113.8,246.3,113.8,247.2z"/>
			<path class="st1" d="M139.8,246.4c0.3,0.3,0.4,0.6,0.4,1v21c0,0.4-0.1,0.7-0.4,1c-0.3,0.3-0.6,0.4-1,0.4s-0.8-0.1-1-0.4
				c-0.2-0.2-0.4-0.6-0.4-1v-8.2c-0.5,1.1-1.3,1.9-2.2,2.5c-1,0.6-2.1,0.9-3.5,0.9c-1.5,0-2.8-0.4-3.9-1.1c-1.1-0.7-2-1.7-2.6-3
				c-0.6-1.3-0.9-2.8-0.9-4.6c0-1.8,0.3-3.3,0.9-4.6c0.6-1.3,1.5-2.4,2.6-3.1c1.1-0.7,2.4-1.1,3.9-1.1c1.3,0,2.5,0.3,3.5,0.9
				c1,0.6,1.7,1.4,2.2,2.5v-1.9c0-0.4,0.1-0.8,0.4-1s0.6-0.4,1-0.4S139.6,246.1,139.8,246.4z M136.1,259.5c0.9-1.1,1.3-2.7,1.3-4.8
				c0-2.1-0.4-3.7-1.3-4.8c-0.9-1.1-2.2-1.7-3.8-1.7c-1.6,0-2.9,0.6-3.8,1.7c-0.9,1.1-1.4,2.7-1.4,4.8c0,2,0.5,3.6,1.4,4.7
				c0.9,1.1,2.2,1.7,3.8,1.7C133.9,261.2,135.2,260.6,136.1,259.5z"/>
			<path class="st1" d="M159.3,246.4c0.2,0.3,0.4,0.6,0.4,1v14.7c0,0.4-0.1,0.7-0.4,1s-0.6,0.4-1,0.4c-0.4,0-0.7-0.1-1-0.4
				c-0.2-0.2-0.4-0.6-0.4-1v-1.7c-0.5,1-1.3,1.8-2.2,2.3c-1,0.5-2,0.8-3.3,0.8c-2,0-3.5-0.6-4.6-1.7c-1-1.1-1.5-2.8-1.5-5v-9.5
				c0-0.4,0.1-0.8,0.4-1c0.3-0.3,0.6-0.4,1-0.4c0.4,0,0.8,0.1,1,0.4c0.2,0.3,0.4,0.6,0.4,1v9.4c0,1.5,0.3,2.6,0.9,3.3
				c0.6,0.7,1.6,1.1,2.9,1.1c1.5,0,2.7-0.5,3.6-1.4c0.9-1,1.4-2.2,1.4-3.8v-8.5c0-0.4,0.1-0.8,0.4-1c0.3-0.3,0.6-0.4,1-0.4
				S159.1,246.1,159.3,246.4z"/>
			<path class="st1" d="M178.7,259.6c0.2,0.2,0.3,0.5,0.3,0.8c0,0.6-0.4,1.1-1.2,1.6c-0.8,0.5-1.7,0.9-2.6,1.1
				c-0.9,0.2-1.8,0.4-2.7,0.4c-2.6,0-4.7-0.8-6.2-2.3c-1.5-1.6-2.3-3.7-2.3-6.4c0-1.7,0.3-3.3,1-4.6c0.7-1.3,1.6-2.4,2.8-3.1
				c1.2-0.7,2.6-1.1,4.2-1.1c2.2,0,4,0.7,5.3,2.2c1.3,1.4,1.9,3.4,1.9,5.8c0,0.5-0.1,0.8-0.3,1c-0.2,0.2-0.5,0.3-0.9,0.3h-11.2
				c0.2,4,2.1,6,5.7,6c0.9,0,1.7-0.1,2.3-0.4c0.6-0.2,1.3-0.6,2.1-1c0.6-0.3,1-0.5,1.2-0.5C178.3,259.3,178.5,259.4,178.7,259.6z
				 M168.4,249.5c-0.9,0.9-1.4,2.2-1.6,3.9h9.8c0-1.7-0.5-3-1.3-3.9c-0.8-0.9-1.9-1.4-3.4-1.4C170.5,248.1,169.3,248.6,168.4,249.5z
				"/>
			<path class="st1" d="M192.6,263.1c-0.3-0.2-0.4-0.6-0.4-1V240c0-0.4,0.1-0.8,0.4-1c0.3-0.2,0.6-0.4,1-0.4c0.4,0,0.7,0.1,1,0.4
				c0.3,0.2,0.4,0.6,0.4,1V262c0,0.4-0.1,0.8-0.4,1c-0.3,0.2-0.6,0.4-1,0.4C193.3,263.4,192.9,263.3,192.6,263.1z"/>
			<path class="st1" d="M214.1,259.6c0.2,0.2,0.3,0.5,0.3,0.8c0,0.6-0.4,1.1-1.2,1.6c-0.8,0.5-1.7,0.9-2.6,1.1
				c-0.9,0.2-1.8,0.4-2.7,0.4c-2.6,0-4.7-0.8-6.2-2.3c-1.5-1.6-2.3-3.7-2.3-6.4c0-1.7,0.3-3.3,1-4.6c0.7-1.3,1.6-2.4,2.8-3.1
				c1.2-0.7,2.6-1.1,4.2-1.1c2.2,0,4,0.7,5.3,2.2c1.3,1.4,1.9,3.4,1.9,5.8c0,0.5-0.1,0.8-0.3,1c-0.2,0.2-0.5,0.3-0.9,0.3h-11.2
				c0.2,4,2.1,6,5.7,6c0.9,0,1.7-0.1,2.3-0.4c0.6-0.2,1.3-0.6,2.1-1c0.6-0.3,1-0.5,1.2-0.5C213.7,259.3,213.9,259.4,214.1,259.6z
				 M203.8,249.5c-0.9,0.9-1.4,2.2-1.6,3.9h9.8c0-1.7-0.5-3-1.3-3.9c-0.8-0.9-1.9-1.4-3.4-1.4C205.9,248.1,204.7,248.6,203.8,249.5z
				"/>
			<path class="st1" d="M241,246c0.3,0,0.7,0.1,0.9,0.3c0.3,0.2,0.4,0.5,0.4,0.9c0,0.2,0,0.4-0.1,0.6l-6.8,14.6
				c-0.1,0.3-0.3,0.5-0.6,0.7s-0.6,0.3-0.9,0.3c-0.3,0-0.6-0.1-0.9-0.3s-0.5-0.4-0.7-0.7l-6.7-14.6c-0.1-0.2-0.1-0.3-0.1-0.5
				c0-0.3,0.2-0.6,0.5-0.9s0.7-0.4,1-0.4c0.2,0,0.5,0.1,0.7,0.2c0.2,0.1,0.4,0.3,0.5,0.6l5.8,13l5.8-13
				C240.1,246.3,240.5,246,241,246z"/>
			<path class="st1" d="M245.6,241.8c-0.3-0.3-0.5-0.8-0.5-1.3c0-0.5,0.2-0.9,0.5-1.3c0.3-0.3,0.8-0.5,1.4-0.5c0.6,0,1,0.2,1.4,0.5
				c0.3,0.3,0.5,0.7,0.5,1.3c0,0.5-0.2,1-0.5,1.3c-0.3,0.3-0.8,0.5-1.4,0.5C246.4,242.3,245.9,242.2,245.6,241.8z M245.9,263.1
				c-0.3-0.2-0.4-0.6-0.4-1v-14.7c0-0.4,0.1-0.8,0.4-1c0.3-0.2,0.6-0.4,1-0.4c0.4,0,0.8,0.1,1,0.4c0.3,0.2,0.4,0.6,0.4,1V262
				c0,0.5-0.1,0.8-0.4,1c-0.3,0.2-0.6,0.3-1,0.3C246.5,263.4,246.2,263.3,245.9,263.1z"/>
			<path class="st1" d="M263.4,247.2c0,0.4-0.1,0.7-0.3,0.9c-0.2,0.2-0.6,0.4-1.1,0.4l-1,0.1c-1.6,0.1-2.7,0.7-3.5,1.7
				c-0.8,1-1.1,2.1-1.1,3.4v8.5c0,0.5-0.1,0.8-0.4,1c-0.3,0.2-0.6,0.3-1,0.3c-0.4,0-0.8-0.1-1-0.4c-0.3-0.2-0.4-0.6-0.4-1v-14.7
				c0-0.4,0.1-0.8,0.4-1s0.6-0.4,1-0.4c0.4,0,0.7,0.1,0.9,0.4c0.3,0.2,0.4,0.6,0.4,1v1.9c0.5-1,1.2-1.8,2.1-2.3
				c0.9-0.5,1.9-0.8,3.1-0.9l0.5,0C262.9,245.9,263.4,246.3,263.4,247.2z"/>
			<path class="st1" d="M276.2,262.3c0,0.4-0.1,0.7-0.4,0.9c-0.3,0.2-0.7,0.3-1.3,0.2l-0.9-0.1c-1.9-0.1-3.2-0.7-4.1-1.7
				c-0.9-1-1.3-2.4-1.3-4.4v-8.7h-2.3c-0.4,0-0.7-0.1-0.9-0.3c-0.2-0.2-0.3-0.5-0.3-0.8c0-0.3,0.1-0.6,0.3-0.8
				c0.2-0.2,0.5-0.3,0.9-0.3h2.3v-3.9c0-0.4,0.1-0.8,0.4-1c0.3-0.2,0.6-0.4,1-0.4c0.4,0,0.8,0.1,1,0.4c0.3,0.2,0.4,0.6,0.4,1v3.9
				h3.9c0.4,0,0.7,0.1,0.9,0.3c0.2,0.2,0.3,0.5,0.3,0.8c0,0.3-0.1,0.6-0.3,0.8c-0.2,0.2-0.5,0.3-0.9,0.3H271v8.9
				c0,1.3,0.3,2.2,0.8,2.8c0.5,0.6,1.3,0.9,2.3,1l0.9,0.1C275.8,261.3,276.2,261.7,276.2,262.3z"/>
			<path class="st1" d="M292.9,246.4c0.2,0.3,0.4,0.6,0.4,1v14.7c0,0.4-0.1,0.7-0.4,1s-0.6,0.4-1,0.4c-0.4,0-0.7-0.1-1-0.4
				c-0.2-0.2-0.4-0.6-0.4-1v-1.7c-0.5,1-1.3,1.8-2.2,2.3c-1,0.5-2,0.8-3.3,0.8c-2,0-3.5-0.6-4.6-1.7c-1-1.1-1.5-2.8-1.5-5v-9.5
				c0-0.4,0.1-0.8,0.4-1c0.3-0.3,0.6-0.4,1-0.4c0.4,0,0.8,0.1,1,0.4c0.2,0.3,0.4,0.6,0.4,1v9.4c0,1.5,0.3,2.6,0.9,3.3
				c0.6,0.7,1.6,1.1,2.9,1.1c1.5,0,2.7-0.5,3.6-1.4c0.9-1,1.4-2.2,1.4-3.8v-8.5c0-0.4,0.1-0.8,0.4-1c0.3-0.3,0.6-0.4,1-0.4
				S292.7,246.1,292.9,246.4z"/>
			<path class="st1" d="M312.3,259.6c0.2,0.2,0.3,0.5,0.3,0.8c0,0.6-0.4,1.1-1.2,1.6c-0.8,0.5-1.7,0.9-2.6,1.1
				c-0.9,0.2-1.8,0.4-2.7,0.4c-2.6,0-4.7-0.8-6.2-2.3c-1.5-1.6-2.3-3.7-2.3-6.4c0-1.7,0.3-3.3,1-4.6c0.7-1.3,1.6-2.4,2.8-3.1
				c1.2-0.7,2.6-1.1,4.2-1.1c2.2,0,4,0.7,5.3,2.2c1.3,1.4,1.9,3.4,1.9,5.8c0,0.5-0.1,0.8-0.3,1c-0.2,0.2-0.5,0.3-0.9,0.3h-11.2
				c0.2,4,2.1,6,5.7,6c0.9,0,1.7-0.1,2.3-0.4c0.6-0.2,1.3-0.6,2.1-1c0.6-0.3,1-0.5,1.2-0.5C311.9,259.3,312.1,259.4,312.3,259.6z
				 M302,249.5c-0.9,0.9-1.4,2.2-1.6,3.9h9.8c0-1.7-0.5-3-1.3-3.9c-0.8-0.9-1.9-1.4-3.4-1.4C304.1,248.1,302.9,248.6,302,249.5z"/>
			<path class="st1" d="M317.3,263.1c-0.3-0.2-0.4-0.6-0.4-1V240c0-0.4,0.1-0.8,0.4-1c0.3-0.2,0.6-0.4,1-0.4c0.4,0,0.7,0.1,1,0.4
				c0.3,0.2,0.4,0.6,0.4,1V262c0,0.4-0.1,0.8-0.4,1c-0.3,0.2-0.6,0.4-1,0.4C317.9,263.4,317.5,263.3,317.3,263.1z"/>
			<path class="st1" d="M348.6,239c0.3,0.3,0.4,0.6,0.4,1V262c0,0.4-0.1,0.8-0.4,1s-0.6,0.4-1,0.4s-0.8-0.1-1-0.4s-0.4-0.6-0.4-1
				v-1.9c-0.5,1.1-1.3,1.9-2.2,2.5c-1,0.6-2.1,0.9-3.5,0.9c-1.5,0-2.8-0.4-3.9-1.1s-2-1.8-2.6-3.1c-0.6-1.3-0.9-2.9-0.9-4.6
				c0-1.7,0.3-3.3,0.9-4.6c0.6-1.3,1.5-2.3,2.6-3.1s2.4-1.1,3.9-1.1c1.3,0,2.5,0.3,3.5,0.9c1,0.6,1.7,1.4,2.2,2.5v-9.3
				c0-0.4,0.1-0.7,0.4-1s0.6-0.4,1-0.4S348.3,238.7,348.6,239z M344.8,259.5c0.9-1.1,1.3-2.7,1.3-4.8c0-2.1-0.4-3.7-1.3-4.8
				c-0.9-1.1-2.2-1.7-3.8-1.7c-1.6,0-2.9,0.6-3.8,1.7c-0.9,1.1-1.4,2.7-1.4,4.7c0,2.1,0.5,3.7,1.4,4.8s2.2,1.7,3.8,1.7
				C342.6,261.2,343.9,260.6,344.8,259.5z"/>
			<path class="st1" d="M367.9,259.6c0.2,0.2,0.3,0.5,0.3,0.8c0,0.6-0.4,1.1-1.2,1.6c-0.8,0.5-1.7,0.9-2.6,1.1
				c-0.9,0.2-1.8,0.4-2.7,0.4c-2.6,0-4.7-0.8-6.2-2.3c-1.5-1.6-2.3-3.7-2.3-6.4c0-1.7,0.3-3.3,1-4.6c0.7-1.3,1.6-2.4,2.8-3.1
				c1.2-0.7,2.6-1.1,4.2-1.1c2.2,0,4,0.7,5.3,2.2c1.3,1.4,1.9,3.4,1.9,5.8c0,0.5-0.1,0.8-0.3,1c-0.2,0.2-0.5,0.3-0.9,0.3H356
				c0.2,4,2.1,6,5.7,6c0.9,0,1.7-0.1,2.3-0.4c0.6-0.2,1.3-0.6,2.1-1c0.6-0.3,1-0.5,1.2-0.5C367.5,259.3,367.8,259.4,367.9,259.6z
				 M357.6,249.5c-0.9,0.9-1.4,2.2-1.6,3.9h9.8c0-1.7-0.5-3-1.3-3.9c-0.8-0.9-1.9-1.4-3.4-1.4C359.7,248.1,358.5,248.6,357.6,249.5z
				"/>
			<path class="st1" d="M385.7,246c0.3,0,0.7,0.1,0.9,0.3c0.3,0.2,0.4,0.5,0.4,0.9c0,0.2,0,0.4-0.1,0.6l-6.8,14.6
				c-0.1,0.3-0.3,0.5-0.6,0.7s-0.6,0.3-0.9,0.3c-0.3,0-0.6-0.1-0.9-0.3s-0.5-0.4-0.7-0.7l-6.7-14.6c-0.1-0.2-0.1-0.3-0.1-0.5
				c0-0.3,0.2-0.6,0.5-0.9s0.7-0.4,1-0.4c0.2,0,0.5,0.1,0.7,0.2c0.2,0.1,0.4,0.3,0.5,0.6l5.8,13l5.8-13
				C384.7,246.3,385.2,246,385.7,246z"/>
			<path class="st1" d="M390.2,241.8c-0.3-0.3-0.5-0.8-0.5-1.3c0-0.5,0.2-0.9,0.5-1.3c0.3-0.3,0.8-0.5,1.4-0.5c0.6,0,1,0.2,1.4,0.5
				c0.3,0.3,0.5,0.7,0.5,1.3c0,0.5-0.2,1-0.5,1.3c-0.3,0.3-0.8,0.5-1.4,0.5C391,242.3,390.6,242.2,390.2,241.8z M390.6,263.1
				c-0.3-0.2-0.4-0.6-0.4-1v-14.7c0-0.4,0.1-0.8,0.4-1c0.3-0.2,0.6-0.4,1-0.4c0.4,0,0.8,0.1,1,0.4c0.3,0.2,0.4,0.6,0.4,1V262
				c0,0.5-0.1,0.8-0.4,1c-0.3,0.2-0.6,0.3-1,0.3C391.2,263.4,390.8,263.3,390.6,263.1z"/>
			<path class="st1" d="M412,259.6c0.2,0.2,0.3,0.5,0.3,0.8c0,0.6-0.4,1.1-1.2,1.6c-0.8,0.5-1.7,0.9-2.6,1.1
				c-0.9,0.2-1.8,0.4-2.7,0.4c-2.6,0-4.7-0.8-6.2-2.3c-1.5-1.6-2.3-3.7-2.3-6.4c0-1.7,0.3-3.3,1-4.6c0.7-1.3,1.6-2.4,2.8-3.1
				c1.2-0.7,2.6-1.1,4.2-1.1c2.2,0,4,0.7,5.3,2.2c1.3,1.4,1.9,3.4,1.9,5.8c0,0.5-0.1,0.8-0.3,1c-0.2,0.2-0.5,0.3-0.9,0.3H400
				c0.2,4,2.1,6,5.7,6c0.9,0,1.7-0.1,2.3-0.4c0.6-0.2,1.3-0.6,2.1-1c0.6-0.3,1-0.5,1.2-0.5C411.6,259.3,411.8,259.4,412,259.6z
				 M401.7,249.5c-0.9,0.9-1.4,2.2-1.6,3.9h9.8c0-1.7-0.5-3-1.3-3.9c-0.8-0.9-1.9-1.4-3.4-1.4C403.8,248.1,402.6,248.6,401.7,249.5z
				"/>
			<path class="st1" d="M431.2,252.6v9.4c0,0.4-0.1,0.8-0.4,1c-0.2,0.2-0.6,0.4-1,0.4c-0.4,0-0.8-0.1-1-0.4c-0.3-0.2-0.4-0.6-0.4-1
				v-9.3c0-1.6-0.3-2.7-0.9-3.4c-0.6-0.7-1.6-1.1-2.9-1.1c-1.6,0-2.8,0.5-3.7,1.4c-0.9,1-1.4,2.2-1.4,3.9v8.5c0,0.4-0.1,0.8-0.4,1
				c-0.2,0.2-0.6,0.4-1,0.4s-0.8-0.1-1-0.4c-0.3-0.2-0.4-0.6-0.4-1v-14.7c0-0.4,0.1-0.8,0.4-1c0.3-0.3,0.6-0.4,1-0.4
				c0.4,0,0.7,0.1,1,0.4c0.2,0.3,0.4,0.6,0.4,1v1.8c0.6-1,1.3-1.8,2.3-2.4c1-0.5,2.1-0.8,3.4-0.8
				C429.1,245.9,431.2,248.1,431.2,252.6z"/>
			<path class="st1" d="M450.9,252.6v9.4c0,0.4-0.1,0.8-0.4,1c-0.2,0.2-0.6,0.4-1,0.4c-0.4,0-0.8-0.1-1-0.4c-0.3-0.2-0.4-0.6-0.4-1
				v-9.3c0-1.6-0.3-2.7-0.9-3.4c-0.6-0.7-1.6-1.1-2.9-1.1c-1.6,0-2.8,0.5-3.7,1.4c-0.9,1-1.4,2.2-1.4,3.9v8.5c0,0.4-0.1,0.8-0.4,1
				c-0.2,0.2-0.6,0.4-1,0.4s-0.8-0.1-1-0.4c-0.3-0.2-0.4-0.6-0.4-1v-14.7c0-0.4,0.1-0.8,0.4-1c0.3-0.3,0.6-0.4,1-0.4
				c0.4,0,0.7,0.1,1,0.4c0.2,0.3,0.4,0.6,0.4,1v1.8c0.6-1,1.3-1.8,2.3-2.4c1-0.5,2.1-0.8,3.4-0.8
				C448.9,245.9,450.9,248.1,450.9,252.6z"/>
			<path class="st1" d="M469.9,259.6c0.2,0.2,0.3,0.5,0.3,0.8c0,0.6-0.4,1.1-1.2,1.6c-0.8,0.5-1.7,0.9-2.6,1.1
				c-0.9,0.2-1.8,0.4-2.7,0.4c-2.6,0-4.7-0.8-6.2-2.3c-1.5-1.6-2.3-3.7-2.3-6.4c0-1.7,0.3-3.3,1-4.6c0.7-1.3,1.6-2.4,2.8-3.1
				c1.2-0.7,2.6-1.1,4.2-1.1c2.2,0,4,0.7,5.3,2.2c1.3,1.4,1.9,3.4,1.9,5.8c0,0.5-0.1,0.8-0.3,1c-0.2,0.2-0.5,0.3-0.9,0.3h-11.2
				c0.2,4,2.1,6,5.7,6c0.9,0,1.7-0.1,2.3-0.4c0.6-0.2,1.3-0.6,2.1-1c0.6-0.3,1-0.5,1.2-0.5C469.4,259.3,469.7,259.4,469.9,259.6z
				 M459.5,249.5c-0.9,0.9-1.4,2.2-1.6,3.9h9.8c0-1.7-0.5-3-1.3-3.9c-0.8-0.9-1.9-1.4-3.4-1.4C461.6,248.1,460.4,248.6,459.5,249.5z
				"/>
			<path class="st1" d="M493.2,247.2c0,0.4-0.1,0.7-0.3,0.9c-0.2,0.2-0.6,0.4-1.1,0.4l-1,0.1c-1.6,0.1-2.7,0.7-3.5,1.7
				c-0.8,1-1.1,2.1-1.1,3.4v8.5c0,0.5-0.1,0.8-0.4,1c-0.3,0.2-0.6,0.3-1,0.3c-0.4,0-0.8-0.1-1-0.4c-0.3-0.2-0.4-0.6-0.4-1v-14.7
				c0-0.4,0.1-0.8,0.4-1s0.6-0.4,1-0.4c0.4,0,0.7,0.1,0.9,0.4c0.3,0.2,0.4,0.6,0.4,1v1.9c0.5-1,1.2-1.8,2.1-2.3
				c0.9-0.5,1.9-0.8,3.1-0.9l0.5,0C492.7,245.9,493.2,246.3,493.2,247.2z"/>
			<path class="st1" d="M509.1,259.6c0.2,0.2,0.3,0.5,0.3,0.8c0,0.6-0.4,1.1-1.2,1.6c-0.8,0.5-1.7,0.9-2.6,1.1
				c-0.9,0.2-1.8,0.4-2.7,0.4c-2.6,0-4.7-0.8-6.2-2.3c-1.5-1.6-2.3-3.7-2.3-6.4c0-1.7,0.3-3.3,1-4.6c0.7-1.3,1.6-2.4,2.8-3.1
				c1.2-0.7,2.6-1.1,4.2-1.1c2.2,0,4,0.7,5.3,2.2c1.3,1.4,1.9,3.4,1.9,5.8c0,0.5-0.1,0.8-0.3,1c-0.2,0.2-0.5,0.3-0.9,0.3h-11.2
				c0.2,4,2.1,6,5.7,6c0.9,0,1.7-0.1,2.3-0.4c0.6-0.2,1.3-0.6,2.1-1c0.6-0.3,1-0.5,1.2-0.5C508.7,259.3,508.9,259.4,509.1,259.6z
				 M498.8,249.5c-0.9,0.9-1.4,2.2-1.6,3.9h9.8c0-1.7-0.5-3-1.3-3.9c-0.8-0.9-1.9-1.4-3.4-1.4C500.9,248.1,499.7,248.6,498.8,249.5z
				 M502.4,244.3c-0.2,0-0.4-0.1-0.6-0.2c-0.2-0.2-0.2-0.3-0.2-0.5c0-0.2,0.1-0.4,0.2-0.5l4-5.3c0.4-0.5,0.9-0.8,1.4-0.8
				c0.4,0,0.7,0.1,0.9,0.4c0.3,0.2,0.4,0.6,0.4,0.9c0,0.5-0.2,0.9-0.7,1.3l-4.9,4.6C502.7,244.2,502.6,244.3,502.4,244.3z"/>
			<path class="st1" d="M526.9,252.6v9.5c0,0.4-0.1,0.8-0.4,1c-0.2,0.3-0.6,0.4-1,0.4s-0.8-0.1-1-0.4c-0.3-0.3-0.4-0.6-0.4-1v-1.7
				c-0.4,1-1.1,1.8-2,2.3s-1.9,0.8-3.1,0.8c-1.1,0-2.1-0.2-3-0.7s-1.6-1.1-2.2-1.8c-0.5-0.8-0.8-1.7-0.8-2.6c0-1.3,0.3-2.3,1-3
				c0.6-0.7,1.7-1.2,3.2-1.5c1.5-0.3,3.5-0.5,6.2-0.5h0.8v-1.1c0-1.4-0.3-2.4-0.9-3.1c-0.6-0.6-1.5-1-2.8-1c-1.6,0-3.2,0.4-4.8,1.3
				c-0.6,0.4-1.1,0.6-1.3,0.6c-0.3,0-0.5-0.1-0.7-0.3s-0.3-0.5-0.3-0.8c0-0.3,0.1-0.6,0.3-0.9c0.2-0.2,0.5-0.5,1-0.7
				c0.8-0.5,1.7-0.8,2.8-1.1c1-0.3,2.1-0.4,3.1-0.4C524.8,245.9,526.9,248.1,526.9,252.6z M522.8,259.9c0.9-0.9,1.3-2.2,1.3-3.6v-1
				h-0.6c-2,0-3.6,0.1-4.7,0.3c-1.1,0.2-1.8,0.5-2.3,0.9c-0.5,0.4-0.7,1-0.7,1.8c0,0.9,0.3,1.7,1,2.2c0.7,0.6,1.5,0.9,2.5,0.9
				C520.8,261.3,521.9,260.8,522.8,259.9z"/>
			<path class="st1" d="M532.5,263.1c-0.3-0.2-0.4-0.6-0.4-1V240c0-0.4,0.1-0.8,0.4-1c0.3-0.2,0.6-0.4,1-0.4c0.4,0,0.7,0.1,1,0.4
				c0.3,0.2,0.4,0.6,0.4,1V262c0,0.4-0.1,0.8-0.4,1c-0.3,0.2-0.6,0.4-1,0.4C533.1,263.4,532.7,263.3,532.5,263.1z"/>
			<path class="st1" d="M540.2,241.8c-0.3-0.3-0.5-0.8-0.5-1.3c0-0.5,0.2-0.9,0.5-1.3c0.3-0.3,0.8-0.5,1.4-0.5c0.6,0,1,0.2,1.4,0.5
				c0.3,0.3,0.5,0.7,0.5,1.3c0,0.5-0.2,1-0.5,1.3c-0.3,0.3-0.8,0.5-1.4,0.5C541,242.3,540.6,242.2,540.2,241.8z M540.5,263.1
				c-0.3-0.2-0.4-0.6-0.4-1v-14.7c0-0.4,0.1-0.8,0.4-1c0.3-0.2,0.6-0.4,1-0.4c0.4,0,0.8,0.1,1,0.4c0.3,0.2,0.4,0.6,0.4,1V262
				c0,0.5-0.1,0.8-0.4,1c-0.3,0.2-0.6,0.3-1,0.3C541.2,263.4,540.8,263.3,540.5,263.1z"/>
			<path class="st1" d="M557.3,262.3c0,0.4-0.1,0.7-0.4,0.9c-0.3,0.2-0.7,0.3-1.3,0.2l-0.9-0.1c-1.9-0.1-3.2-0.7-4.1-1.7
				c-0.9-1-1.3-2.4-1.3-4.4v-8.7h-2.3c-0.4,0-0.7-0.1-0.9-0.3c-0.2-0.2-0.3-0.5-0.3-0.8c0-0.3,0.1-0.6,0.3-0.8
				c0.2-0.2,0.5-0.3,0.9-0.3h2.3v-3.9c0-0.4,0.1-0.8,0.4-1c0.3-0.2,0.6-0.4,1-0.4c0.4,0,0.8,0.1,1,0.4c0.3,0.2,0.4,0.6,0.4,1v3.9
				h3.9c0.4,0,0.7,0.1,0.9,0.3c0.2,0.2,0.3,0.5,0.3,0.8c0,0.3-0.1,0.6-0.3,0.8c-0.2,0.2-0.5,0.3-0.9,0.3H552v8.9
				c0,1.3,0.3,2.2,0.8,2.8c0.5,0.6,1.3,0.9,2.3,1l0.9,0.1C556.9,261.3,557.3,261.7,557.3,262.3z"/>
			<path class="st1" d="M573.8,259.6c0.2,0.2,0.3,0.5,0.3,0.8c0,0.6-0.4,1.1-1.2,1.6c-0.8,0.5-1.7,0.9-2.6,1.1
				c-0.9,0.2-1.8,0.4-2.7,0.4c-2.6,0-4.7-0.8-6.2-2.3c-1.5-1.6-2.3-3.7-2.3-6.4c0-1.7,0.3-3.3,1-4.6c0.7-1.3,1.6-2.4,2.8-3.1
				c1.2-0.7,2.6-1.1,4.2-1.1c2.2,0,4,0.7,5.3,2.2c1.3,1.4,1.9,3.4,1.9,5.8c0,0.5-0.1,0.8-0.3,1c-0.2,0.2-0.5,0.3-0.9,0.3h-11.2
				c0.2,4,2.1,6,5.7,6c0.9,0,1.7-0.1,2.3-0.4c0.6-0.2,1.3-0.6,2.1-1c0.6-0.3,1-0.5,1.2-0.5C573.4,259.3,573.6,259.4,573.8,259.6z
				 M563.5,249.5c-0.9,0.9-1.4,2.2-1.6,3.9h9.8c0-1.7-0.5-3-1.3-3.9c-0.8-0.9-1.9-1.4-3.4-1.4C565.6,248.1,564.4,248.6,563.5,249.5z
				 M567.1,244.3c-0.2,0-0.4-0.1-0.6-0.2c-0.2-0.2-0.2-0.3-0.2-0.5c0-0.2,0.1-0.4,0.2-0.5l4-5.3c0.4-0.5,0.9-0.8,1.4-0.8
				c0.4,0,0.7,0.1,0.9,0.4c0.3,0.2,0.4,0.6,0.4,0.9c0,0.5-0.2,0.9-0.7,1.3l-4.9,4.6C567.5,244.2,567.3,244.3,567.1,244.3z"/>
			<path class="st1" d="M587.3,262.9c-0.4-0.4-0.6-0.8-0.6-1.4s0.2-1.1,0.6-1.4c0.4-0.4,0.8-0.6,1.4-0.6c0.5,0,1,0.2,1.3,0.6
				c0.4,0.4,0.5,0.8,0.5,1.4s-0.2,1-0.5,1.4c-0.4,0.4-0.8,0.5-1.3,0.5C588.2,263.4,587.7,263.3,587.3,262.9z M588.1,256.8
				c-0.2-0.2-0.3-0.4-0.3-0.7l-0.8-15.8c0-0.5,0.1-1,0.4-1.3s0.8-0.5,1.3-0.5c0.5,0,1,0.2,1.3,0.5c0.3,0.3,0.5,0.7,0.4,1.3
				l-0.8,15.8c0,0.3-0.1,0.6-0.3,0.7c-0.2,0.2-0.4,0.2-0.6,0.2C588.5,257,588.3,257,588.1,256.8z"/>
		</g>
	</g>
</g>
</svg>
