<svg xmlns="http://www.w3.org/2000/svg" xmlns:xlink="http://www.w3.org/1999/xlink" viewBox="0 0 384 384"><defs><style>      .cls-1 {        fill: url(#Dégradé_sans_nom_11);      }      .cls-2, .cls-3 {        fill: #fff;      }      .cls-4 {        isolation: isolate;      }      .cls-5 {        fill: #e4e5e6;      }      .cls-3 {        mix-blend-mode: soft-light;        opacity: .5;      }    </style><linearGradient id="D&#xE9;grad&#xE9;_sans_nom_11" data-name="D&#xE9;grad&#xE9; sans nom 11" x1="2.46" y1="45.54" x2="260.85" y2="334.81" gradientTransform="translate(383.78) rotate(-180) scale(1 -1)" gradientUnits="userSpaceOnUse"><stop offset="0" stop-color="#eb215e"></stop><stop offset="1" stop-color="#2e5c9e"></stop></linearGradient></defs><g class="cls-4"><g id="Calque_1" data-name="Calque 1"><path class="cls-5" d="M.05,194.17c-.04,3.14.39,6.29,1.26,9.16l52.16,170.19c2.01,6.59,6.12,10.74,10.6,10.72l186.15-.61c6.53-.03,11.81-8.75,11.83-19.5l.06-169.97.06-180.88c0-10.19-1.4-12.52-8.51-12.52H63.94c-4.51,0-8.63,4.22-10.63,10.89L1.26,185.91c-.78,2.62-1.18,5.44-1.21,8.26Z"></path><path class="cls-1" d="M51.94,193.29c-.05,2.41.49,4.83,1.6,7.04l66.03,130.76c2.55,5.06,7.75,8.25,13.42,8.24l235.63-.47c8.26-.02,14.95-6.72,14.97-14.98l.07-130.59.07-138.97c0-7.83-1.77-9.62-10.77-9.62h-240.15c-5.71,0-10.93,3.24-13.46,8.37L53.47,186.94c-.99,2.01-1.5,4.18-1.53,6.35Z"></path><path class="cls-3" d="M51.94,193.29c-.05,2.41.49,4.83,1.6,7.04l66.03,130.76c2.55,5.06,7.75,8.25,13.42,8.24l235.63-.47c8.26-.02,14.95-6.72,14.97-14.98l.07-130.59H51.94Z"></path><path class="cls-2" d="M287.55,257.23c0,3.66-.98,6.47-2.95,8.44-1.97,1.97-4.85,2.95-8.65,2.95h-77.64c-4.5,0-7.77-1.02-9.81-3.06-2.04-2.04-3.06-5.03-3.06-8.97,0-2.39.63-4.71,1.9-6.96,1.27-2.25,3.09-4.64,5.49-7.17l42.4-45.15c6.47-6.75,11.11-12.9,13.93-18.46,2.81-5.55,4.22-11.15,4.22-16.77,0-7.03-2.22-12.38-6.65-16.04-4.43-3.65-10.86-5.48-19.3-5.48-4.78,0-9.57.67-14.35,2-4.78,1.34-9.64,3.62-14.56,6.86-2.52,1.69-4.88,2.39-7.06,2.11-2.18-.28-4.09-1.19-5.7-2.75-1.62-1.54-2.71-3.44-3.27-5.69s-.46-4.54.32-6.86c.77-2.32,2.42-4.32,4.96-6.01,6.04-4.08,12.83-7.17,20.36-9.28,7.52-2.11,15.08-3.17,22.67-3.17,10.69,0,19.69,1.62,27.01,4.85,7.31,3.24,12.87,7.95,16.66,14.14,3.81,6.19,5.7,13.71,5.7,22.57,0,5.91-.94,11.68-2.85,17.3-1.9,5.63-4.78,11.33-8.65,17.09-3.87,5.77-8.89,11.89-15.08,18.36l-32.78,34.18h55.14c3.8,0,6.68.91,8.65,2.74,1.97,1.83,2.95,4.57,2.95,8.23Z"></path></g></g></svg>