<?xml version="1.0" encoding="UTF-8"?>
<svg id="Calque_1" data-name="Calque 1" xmlns="http://www.w3.org/2000/svg" viewBox="0 0 503.78 503.78">
  <defs>
    <style>
      .cls-1 {
        fill: #864b81;
      }

      .cls-2 {
        fill: #e1d6e0;
      }
    </style>
  </defs>
  <circle class="cls-2" cx="251.89" cy="251.89" r="251.89"/>
  <g>
    <path class="cls-1" d="M106.3,394.33V106.56h203.6c2.28,1.62,2.89,3.82,2.88,6.59-.07,38.94-.05,77.88-.05,116.82v3.38c.19-.16.38-.32.57-.48,2.19,1.66,4.94,2.94,6.43,5.09,1.55,2.24,1.88,5.33,2.79,8.18h22.19c.06-.95.12-1.79.18-2.62.42-6.02,4.21-9.76,10.22-9.96,2.27-.08,4.55-.09,6.81.06,5.09.33,8.97,4.25,9.35,9.35.07,1.01.01,2.02.01,3.31,2.18,0,4.05,0,5.92,0,11.4,0,16.12,3.16,20.28,13.55v123.74c-4.19,10.53-8.76,13.62-20.19,13.62-88.13,0-176.26-.01-264.4.05-2.78,0-4.98-.6-6.59-2.89ZM115.6,115.78v272.12h107.57c-.37-2.67-1.02-5.17-1.02-7.67-.06-39.07-.07-78.13-.02-117.2.01-8.53,5.58-14.98,14-16.34,3.05-.49,6.18-.45,9.44-.66.05-.98.07-1.9.14-2.82.37-5.42,4.28-9.32,9.69-9.65,1.32-.08,2.65-.06,3.98-.06,9.04,0,12.27,3.02,12.89,12.01.01.16.15.32.26.54h22.72c-.37-6.41,2.2-10.76,8.23-12.53v-117.76H115.6ZM231.35,288.27c-.06.91-.15,1.56-.15,2.21,0,29.79-.02,59.58,0,89.37,0,5.36,3.15,8.23,8.97,8.24,46.43.02,92.86.02,139.29,0,5.98,0,8.91-2.97,8.91-8.86,0-29.32,0-58.63,0-87.95,0-.99,0-1.99,0-3h-157.03ZM322.32,255.48c-.62,3.78-.68,7.37-1.86,10.56-1.34,3.62-4.72,5.42-8.59,5.51-4.2.1-8.54.8-12.38-1.9-5.07-3.57-4.05-9.09-4.4-14.14h-21.97c-1.03,4.17-1.36,8.34-3.1,11.8-2.03,4.04-6.44,4.43-10.7,4.35-3.53-.07-7-.02-9.96-2.43-4.47-3.64-3.53-8.8-3.79-14.06-3.11.23-6.03.2-8.86.72-2.66.49-5.03,2.27-5.18,5-.35,5.98-.11,11.99-.11,18.06h156.95c0-5.31.02-10.48,0-15.65-.02-4.1-2.11-7-6.21-7.54-3.49-.46-7.09-.1-10.28-.1-.62,3.61-.72,7.28-1.94,10.53-1.37,3.63-4.81,5.3-8.67,5.37-4.2.07-8.54.76-12.34-2.01-4.93-3.59-3.83-9.01-4.23-14.07h-22.37ZM263.09,252.77c0-1.51.03-3.02,0-4.53-.13-6.29,1.23-5.58-6.08-5.66-1.76-.02-2.29.74-2.25,2.4.08,3.96-.03,7.93.04,11.9.1,6.23-1.35,5.63,6.05,5.69,1.78.01,2.3-.82,2.27-2.43-.06-2.45-.02-4.91-.01-7.36ZM304.34,252.44c0,1.51-.02,3.02,0,4.53.08,6.16-1.01,5.5,5.9,5.59,1.87.02,2.49-.74,2.45-2.54-.08-3.96.04-7.93-.04-11.9-.11-6.08,1.47-5.51-6.16-5.55-1.59,0-2.2.66-2.16,2.21.06,2.55.02,5.1.01,7.65ZM353.95,252.7c0,1.42-.02,2.83,0,4.25.09,6.29-.97,5.51,5.85,5.62,1.86.03,2.48-.7,2.44-2.52-.1-3.96-.03-7.93-.03-11.89,0-5.98,0-5.93-6.12-5.59-1.59.09-2.18.67-2.15,2.21.06,2.64.02,5.29,0,7.93Z"/>
    <path class="cls-1" d="M143.41,143.47v39.55h43.43v-13.44c-2.48,2.24-4.75,4.28-7.01,6.33-3.51,3.17-5.3,3.13-8.7-.24-2.89-2.87-5.79-5.72-8.64-8.63-2.22-2.27-2.4-4.87-.58-6.79,1.95-2.05,4.56-1.92,6.99.41,2.19,2.09,4.33,4.23,6.5,6.35.06.06.17.06.53.16,6.26-5.66,12.63-11.43,19-17.19.84-.76,1.64-1.57,2.53-2.29,2.31-1.87,4.83-1.77,6.59.2,1.74,1.95,1.58,4.47-.56,6.56-1.76,1.72-3.55,3.42-5.49,4.94-1.51,1.19-1.9,2.56-1.88,4.4.09,7.47.05,14.94.03,22.42,0,4.48-1.52,6.04-5.9,6.05-16.68.01-33.36.01-50.04,0-4.44,0-5.99-1.54-6-5.96-.01-15.32-.01-30.65,0-45.97,0-4.29,1.58-5.93,5.74-5.93,16.87-.02,33.74,0,50.61-.02,2.39,0,4.64.58,5.13,3.05.3,1.5-.23,3.64-1.22,4.76-.86.97-2.89,1.23-4.41,1.24-14.41.09-28.81.05-43.22.05h-3.42Z"/>
    <path class="cls-1" d="M186.89,258.07c-2.55,2.3-4.77,4.3-6.98,6.3-3.62,3.28-5.38,3.23-8.9-.28-2.88-2.87-5.8-5.72-8.63-8.64-2.17-2.23-2.26-4.92-.37-6.78,1.95-1.91,4.48-1.81,6.77.43,2.23,2.18,4.34,4.48,6.7,6.94,2.31-2.05,4.42-3.9,6.49-5.78,4.91-4.45,9.81-8.92,14.72-13.36,2.74-2.48,5.26-2.65,7.24-.57,2.04,2.15,1.9,5.15-1.24,7.26-5.69,3.83-7.31,8.85-6.66,15.42.52,5.24.12,10.58.1,15.88-.01,4.27-1.58,5.89-5.77,5.9-16.77.02-33.55.01-50.32,0-4.25,0-5.85-1.59-5.85-5.82-.02-15.42-.02-30.83,0-46.25,0-4.2,1.62-5.77,5.89-5.78,16.77-.01,33.55-.01,50.32,0,3.58,0,5.69,1.7,5.71,4.51.02,2.82-2.08,4.55-5.64,4.56-14.59.02-29.19,0-43.78,0-1.02,0-2.05,0-3.24,0v39.48h43.43v-13.43Z"/>
    <path class="cls-1" d="M143.42,320.56v39.53h43.42v-13.41c-1.86,1.66-3.51,3.11-5.14,4.59-6.11,5.55-6.48,5.55-12.4-.36-2.28-2.27-4.58-4.52-6.82-6.83-2.21-2.28-2.39-4.87-.56-6.78,1.94-2.03,4.59-1.91,6.98.45,2.21,2.19,4.3,4.49,6.58,6.89,6.51-5.88,12.67-11.44,18.84-17.01.84-.76,1.66-1.55,2.51-2.3,2.69-2.39,5.31-2.51,7.23-.34,1.85,2.09,1.77,5.03-1.05,6.87-6.06,3.94-7.63,9.29-6.96,16.13.51,5.25.13,10.58.09,15.88-.03,3.72-1.68,5.44-5.35,5.45-17.06.03-34.11.03-51.17,0-3.69,0-5.4-1.72-5.4-5.41-.03-15.7-.03-31.4,0-47.1,0-3.66,1.73-5.32,5.47-5.33,16.96-.02,33.92-.02,50.89,0,3.5,0,5.64,1.85,5.56,4.66-.08,2.72-2.12,4.4-5.51,4.41-14.59.02-29.19,0-43.78,0-1.03,0-2.07,0-3.41,0Z"/>
    <path class="cls-1" d="M256.2,143.47c-9.47,0-18.93.01-28.4,0-3.65,0-5.62-1.61-5.64-4.5-.01-2.88,2-4.57,5.59-4.57,18.93-.01,37.87-.01,56.8,0,3.6,0,5.64,1.68,5.65,4.52.01,2.86-2.02,4.54-5.6,4.55-9.47.02-18.93,0-28.4,0Z"/>
    <path class="cls-1" d="M256.46,158.78c9.47,0,18.93-.02,28.4,0,3.26,0,5.18,1.6,5.33,4.25.17,2.9-1.88,4.8-5.34,4.81-8.8.03-17.61,0-26.41,0-10.32,0-20.64.01-30.96,0-3.27,0-5.17-1.58-5.32-4.25-.16-2.93,1.85-4.8,5.33-4.81,9.66-.03,19.31-.01,28.97-.01Z"/>
    <path class="cls-1" d="M282.57,318.1c0,3.69.04,7.38-.01,11.06-.05,3.42-1.63,5.16-5,5.21-7.48.09-14.97.09-22.46,0-3.4-.04-4.93-1.75-4.95-5.21-.04-7.28-.04-14.56,0-21.85.02-3.56,1.62-5.2,5.23-5.23,7.3-.07,14.59-.07,21.89,0,3.7.04,5.25,1.72,5.29,5.51.04,3.5,0,7,0,10.5ZM259.38,311.26v13.87h13.95v-13.87h-13.95Z"/>
    <path class="cls-1" d="M337.07,318.04c0-3.69-.05-7.38.02-11.06.06-3.12,1.6-4.83,4.69-4.87,7.67-.1,15.35-.1,23.02,0,2.9.04,4.61,1.76,4.65,4.68.11,7.66.11,15.32,0,22.98-.05,2.89-1.78,4.53-4.74,4.57-7.58.1-15.16.1-22.74.01-3.28-.04-4.82-1.7-4.87-4.97-.07-3.78-.02-7.56-.01-11.35ZM360.28,311.31h-13.95v13.78h13.95v-13.78Z"/>
    <path class="cls-1" d="M293.2,318c0-3.59-.05-7.19.02-10.78.07-3.47,1.59-5.1,5.03-5.13,7.39-.08,14.78-.08,22.16,0,3.45.03,5.13,1.64,5.17,5.04.09,7.37.09,14.75,0,22.12-.04,3.45-1.66,5.08-5.08,5.12-7.39.09-14.78.09-22.16,0-3.58-.04-5.08-1.66-5.13-5.32-.06-3.69-.01-7.37-.01-11.06ZM316.52,325.15c0-4.29.05-8.41-.07-12.53-.02-.52-.94-1.45-1.47-1.46-4.12-.12-8.25-.07-12.47-.07v14.06h14.01Z"/>
    <path class="cls-1" d="M337.07,357.87c0-3.59-.04-7.19.01-10.78.05-3.5,1.51-5.2,4.92-5.24,7.48-.11,14.97-.11,22.45,0,3.37.05,5,1.79,5.03,5.21.07,7.28.07,14.56,0,21.84-.03,3.56-1.69,5.2-5.28,5.23-7.29.06-14.59.06-21.89,0-3.64-.03-5.18-1.6-5.24-5.19-.05-3.69-.01-7.38-.01-11.06ZM360.25,364.97v-13.88h-13.95v13.88h13.95Z"/>
    <path class="cls-1" d="M250.14,357.73c0-3.5-.02-7,0-10.5.03-3.65,1.51-5.35,5.07-5.4,7.39-.1,14.78-.1,22.17,0,3.56.05,5.14,1.77,5.17,5.35.04,7.19.04,14.37,0,21.56-.02,3.71-1.64,5.35-5.4,5.38-7.2.06-14.4.05-21.6,0-3.92-.03-5.38-1.61-5.41-5.61-.02-3.59,0-7.19,0-10.78ZM273.37,364.94v-13.81h-13.98v13.81h13.98Z"/>
    <path class="cls-1" d="M309.33,374.14c-3.6,0-7.2.05-10.8-.01-3.66-.06-5.28-1.57-5.31-5.13-.06-7.37-.07-14.75,0-22.12.03-3.4,1.64-5.01,5.12-5.05,7.39-.09,14.78-.09,22.16,0,3.39.04,5.04,1.73,5.08,5.15.08,7.37.09,14.75,0,22.12-.04,3.41-1.71,4.95-5.17,5.02-3.69.07-7.39.02-11.08.02ZM316.38,351.08h-13.83v13.85h13.83v-13.85Z"/>
  </g>
</svg>