<?xml version="1.0" encoding="UTF-8"?>
<svg id="Calque_1" data-name="Calque 1" xmlns="http://www.w3.org/2000/svg" viewBox="0 0 503.78 503.78">
  <defs>
    <style>
      .cls-1 {
        fill: #864b81;
      }

      .cls-2 {
        fill: #e1d6e0;
      }
    </style>
  </defs>
  <circle class="cls-2" cx="251.89" cy="251.89" r="251.89"/>
  <g>
    <path class="cls-1" d="M410.81,115.9v208.58c-.14.15-.35.27-.41.44-3.95,12.15-10.58,16.96-23.39,16.96-33.1,0-66.21,0-99.31,0-1.19,0-2.39,0-4.4,0,1.22,5.51,1.87,10.57,3.47,15.3,3.7,10.97,11.35,16.21,22.93,16.36,3.62.05,7.24.02,10.86.11,4.89.12,9.12,1.84,12.27,5.66,4.04,4.89,4.96,10.47,2.55,16.28-2.51,6.06-7.27,9.58-13.89,9.74-9.72.23-19.45.11-29.17.12-35.9,0-71.79-.13-107.69.08-11,.06-17.58-7.88-17.48-16.09.11-9.29,7.25-15.76,17.43-15.81,3.83-.02,7.66.05,11.48-.13,7.23-.33,13.23-3.24,17.41-9.26,4.57-6.59,6.01-14.13,6.33-22.36-1.42,0-2.64,0-3.85,0-33.31,0-66.62,0-99.93,0-14.27,0-23.04-8.75-23.05-22.97,0-32.69,0-65.38,0-98.07,0-33.52,0-67.03,0-100.55,0-9.4,4.15-16.41,12.77-20.17,3.1-1.35,6.81-1.81,10.25-1.81,90.62-.09,181.24-.07,271.86-.07,1.14,0,2.28.04,3.41.12,8.56.63,15.68,6.2,18.43,14.37.36,1.06.75,2.11,1.12,3.16ZM124.9,130.19v158.28h253.92v-158.28H124.9ZM400.2,299.86H103.54c0,3.83,0,7.44,0,11.05,0,2.79,0,5.59,0,8.38.03,7.86,4.2,12.01,12.11,12.01,90.82,0,181.63,0,272.45,0,.62,0,1.24.01,1.86-.02,5.47-.28,9.98-4.36,10.17-9.82.25-7.12.06-14.25.06-21.61ZM114.12,288.62v-3.82c0-52.45,0-104.91,0-157.36,0-6.6,1.37-7.97,8-7.97,86.49,0,172.99,0,259.48,0,6.76,0,8.05,1.33,8.06,8.23,0,52.25,0,104.5,0,156.74v4.19h10.58v-3.54c0-54.52,0-109.05,0-163.57,0-8.78-3.88-12.65-12.68-12.65-90.43,0-180.85,0-271.28,0-8.86,0-12.73,3.84-12.73,12.6,0,54.52,0,109.05,0,163.57v3.58h10.58ZM220.84,373.29h63.1c-7.58-9.27-9.83-20.01-10.77-31.24h-42.12c-1.13,5.52-1.76,11.01-3.45,16.15-1.71,5.22-4.48,10.09-6.77,15.09ZM252.05,394.84c22.03,0,44.06,0,66.1,0,1.14,0,2.29.04,3.4-.13,2.56-.39,4.06-1.96,4.35-4.53.29-2.56-.8-4.51-3.2-5.41-1.21-.46-2.63-.51-3.96-.51-12.72.04-25.44.2-38.16.18-30.2-.03-60.4-.13-90.6-.2-2.48,0-4.98-.13-7.44.13-3.03.31-4.87,2.65-4.72,5.52.14,2.75,2.06,4.64,5.03,4.89,1.03.09,2.07.05,3.1.06,22.03,0,44.06,0,66.1,0Z"/>
    <path class="cls-1" d="M341.95,245.52c-1.91,2.87-3.55,5.35-5.21,7.81-2.49,3.69-5.46,4.73-8.24,2.92-2.83-1.85-3.45-5.35-.59-8.62,7.55-8.64,9.98-18.48,8.88-29.75-.66-6.75-.12-13.61-.12-21.15-3.09,1.42-5.63,3.01-8.4,3.77-6.32,1.73-8.15,5.47-7.66,11.94.68,9.05.1,18.19.21,27.3.04,3.3-1.19,5.42-4.15,6.9-20.35,10.11-40.67,20.28-60.97,30.5-2.64,1.33-4.98,1.3-7.63-.04-20.1-10.13-40.23-20.22-60.41-30.2-3.3-1.63-4.75-3.78-4.7-7.5.16-10.96.01-21.93.1-32.9.01-1.81-.54-2.75-2.21-3.51-6.77-3.07-13.46-6.33-20.22-9.43-2.37-1.08-4.05-2.61-4.05-5.31,0-2.71,1.74-4.2,4.08-5.3,29.17-13.69,58.34-27.39,87.47-41.18,2.83-1.34,5.23-1.12,7.94.17,28.29,13.37,56.62,26.67,84.94,39.99.93.44,1.92.76,2.84,1.22,2.44,1.22,3.64,3.14,3.62,5.95-.09,14.27-.17,28.55-.11,42.82,0,1.54.59,3.25,1.41,4.57,2.43,3.96,5.14,7.75,7.68,11.65,2.09,3.21,1.62,6.42-1.08,8.14-2.57,1.63-5.6.8-7.7-2.23-1.82-2.63-3.56-5.32-5.71-8.53ZM174.58,188.15c.79.48,1.28.83,1.81,1.08,24.53,11.53,49.06,23.07,73.64,34.51,1.09.51,2.85.43,3.97-.08,20.67-9.59,41.29-19.28,61.91-28.97.4-.19.72-.54,1.17-.89h-59.9c0,1.79.09,3.34-.02,4.88-.24,3.36-2.23,5.38-5.2,5.42-2.99.04-5.24-1.96-5.31-5.27-.15-7.03-.14-14.06,0-21.08.07-3.27,2.37-5.36,5.29-5.33,2.92.03,4.98,2.13,5.21,5.44.11,1.61.02,3.23.02,4.91h60.03c-.55-.42-.76-.64-1.02-.76-20.83-9.81-41.65-19.64-62.53-29.35-1.07-.5-2.83-.3-3.96.23-14.61,6.77-29.17,13.66-43.75,20.52-10.36,4.88-20.73,9.75-31.36,14.75ZM310.2,209.69c-.65.07-.98.02-1.23.14-16.71,7.83-33.42,15.65-50.08,23.59-.82.39-1.54,1.84-1.6,2.85-.21,3.09-.03,6.2-.1,9.31-.09,3.93-2.17,6.3-5.37,6.25-3.2-.04-5.16-2.39-5.23-6.39-.05-2.9-.11-5.8.02-8.69.09-1.9-.52-2.92-2.33-3.77-16.09-7.47-32.12-15.07-48.17-22.62-.71-.33-1.48-.51-2.52-.86,0,8.7.1,17.07-.06,25.43-.05,2.32.74,3.43,2.76,4.43,17.69,8.74,35.34,17.56,52.95,26.45,1.98,1,3.49.95,5.44-.04,15.95-8.07,31.81-16.33,48.03-23.84,5.9-2.73,8.34-5.87,7.65-12.43-.68-6.5-.15-13.13-.15-19.82Z"/>
    <path class="cls-1" d="M251.99,310.16c5.06,0,10.12-.04,15.18.01,3.66.04,5.91,2.16,5.86,5.34-.05,3.03-2.29,5.18-5.74,5.2-10.22.06-20.44.06-30.66,0-3.63-.02-5.9-2.22-5.85-5.39.05-3.18,2.28-5.12,6.05-5.15,5.06-.04,10.12-.01,15.18,0Z"/>
  </g>
</svg>