<?xml version="1.0" encoding="UTF-8"?>
<svg id="Calque_1" xmlns="http://www.w3.org/2000/svg" version="1.1" viewBox="0 0 503.8 503.8">
  <!-- Generator: Adobe Illustrator 29.1.0, SVG Export Plug-In . SVG Version: 2.1.0 Build 142)  -->
  <defs>
    <style>
      .st0 {
        fill: #864b81;
      }

      .st1 {
        fill: #e1d6e0;
      }
    </style>
  </defs>
  <circle class="st1" cx="251.9" cy="251.9" r="251.9"/>
  <g>
    <path class="st0" d="M134.2,303.3l-43.6-47.5c-1.1-1.2-1.1-3,0-4.2l43.6-47.4c.6-.6,1.4-1,2.3-1h40.8c2.7,0,4.1,3.2,2.3,5.2l-39.9,43.3c-1.1,1.2-1.1,3,0,4.2l40,43.3c1.8,2,.4,5.2-2.3,5.2h-40.8c-.9,0-1.7-.4-2.3-1Z"/>
    <path class="st0" d="M307.3,125.7l-59.8,253.8c-.3,1.4-1.6,2.4-3,2.4h-31.4c-2,0-3.4-1.9-3-3.8l59.8-253.8c.3-1.4,1.6-2.4,3-2.4h31.4c2,0,3.4,1.9,3,3.8Z"/>
    <path class="st0" d="M326.6,203.3h40.8c.9,0,1.7.4,2.3,1l43.6,47.4c1.1,1.2,1.1,3,0,4.2l-43.6,47.5c-.6.6-1.4,1-2.3,1h-40.8c-2.7,0-4.1-3.2-2.3-5.2l40-43.3c1.1-1.2,1.1-3,0-4.2l-39.9-43.3c-1.8-2-.4-5.2,2.3-5.2Z"/>
  </g>
</svg>