<svg xmlns="http://www.w3.org/2000/svg" xmlns:xlink="http://www.w3.org/1999/xlink" viewBox="0 0 384 384"><defs><style>      .cls-1 {        fill: url(#Dégradé_sans_nom_11);      }      .cls-2, .cls-3 {        fill: #fff;      }      .cls-4 {        isolation: isolate;      }      .cls-5 {        fill: #e4e5e6;      }      .cls-3 {        mix-blend-mode: soft-light;        opacity: .5;      }    </style><linearGradient id="D&#xE9;grad&#xE9;_sans_nom_11" data-name="D&#xE9;grad&#xE9; sans nom 11" x1="2.46" y1="45.54" x2="260.85" y2="334.81" gradientUnits="userSpaceOnUse"><stop offset="0" stop-color="#eb215e"></stop><stop offset="1" stop-color="#2e5c9e"></stop></linearGradient></defs><g class="cls-4"><g id="Calque_1" data-name="Calque 1"><path class="cls-5" d="M383.73,194.17c.04,3.14-.39,6.29-1.26,9.16l-52.16,170.19c-2.01,6.59-6.12,10.74-10.6,10.72l-186.15-.61c-6.53-.03-11.81-8.75-11.83-19.5l-.06-169.97-.06-180.88c0-10.19,1.4-12.52,8.51-12.52h189.72c4.51,0,8.63,4.22,10.63,10.89l52.04,174.24c.78,2.62,1.18,5.44,1.21,8.26Z"></path><path class="cls-1" d="M331.84,193.29c.05,2.41-.49,4.83-1.6,7.04l-66.03,130.76c-2.55,5.06-7.75,8.25-13.42,8.24l-235.63-.47c-8.26-.02-14.95-6.72-14.97-14.98l-.07-130.59L.05,54.32c0-7.83,1.77-9.62,10.77-9.62h240.15c5.71,0,10.93,3.24,13.46,8.37l65.88,133.87c.99,2.01,1.5,4.18,1.53,6.35Z"></path><path class="cls-3" d="M331.84,193.29c.05,2.41-.49,4.83-1.6,7.04l-66.03,130.76c-2.55,5.06-7.75,8.25-13.42,8.24l-235.63-.47c-8.26-.02-14.95-6.72-14.97-14.98l-.07-130.59h331.72Z"></path><path class="cls-2" d="M116.95,265.8c-4.41,0-7.61-1-9.61-3-2-2-3-4.92-3-8.78,0-2.34.62-4.61,1.86-6.82,1.24-2.2,3.03-4.54,5.37-7.02l41.53-44.21c6.33-6.61,10.88-12.64,13.63-18.08,2.75-5.44,4.13-10.91,4.13-16.42,0-6.88-2.17-12.12-6.51-15.7-4.34-3.58-10.64-5.37-18.9-5.37-4.68,0-9.37.65-14.05,1.96-4.69,1.31-9.44,3.55-14.26,6.71-2.48,1.65-4.79,2.34-6.92,2.07-2.14-.28-4-1.17-5.58-2.69-1.58-1.51-2.65-3.37-3.2-5.58-.55-2.2-.45-4.44.31-6.72.76-2.27,2.38-4.23,4.85-5.89,5.92-3.99,12.57-7.02,19.94-9.09,7.37-2.07,14.77-3.1,22.21-3.1,10.46,0,19.28,1.59,26.44,4.75,7.16,3.17,12.6,7.78,16.32,13.84,3.72,6.06,5.58,13.43,5.58,22.1,0,5.79-.93,11.44-2.79,16.94-1.86,5.51-4.68,11.09-8.47,16.74-3.79,5.65-8.71,11.64-14.77,17.97l-38.84,40.49v-7.02h60.74c3.72,0,6.54.9,8.47,2.69,1.93,1.79,2.89,4.48,2.89,8.05s-.97,6.34-2.89,8.27c-1.93,1.93-4.75,2.89-8.47,2.89h-76.03Z"></path></g></g></svg>