<svg xmlns="http://www.w3.org/2000/svg" xmlns:xlink="http://www.w3.org/1999/xlink" viewBox="0 0 384 384"><defs><style>      .cls-1 {        fill: url(#Dégradé_sans_nom_11);      }      .cls-2, .cls-3 {        fill: #fff;      }      .cls-4 {        isolation: isolate;      }      .cls-5 {        fill: #e4e5e6;      }      .cls-3 {        mix-blend-mode: soft-light;        opacity: .5;      }    </style><linearGradient id="D&#xE9;grad&#xE9;_sans_nom_11" data-name="D&#xE9;grad&#xE9; sans nom 11" x1="2.46" y1="45.54" x2="260.85" y2="334.81" gradientUnits="userSpaceOnUse"><stop offset="0" stop-color="#eb215e"></stop><stop offset="1" stop-color="#2e5c9e"></stop></linearGradient></defs><g class="cls-4"><g id="Calque_1" data-name="Calque 1"><path class="cls-5" d="M383.73,194.17c.04,3.14-.39,6.29-1.26,9.16l-52.16,170.19c-2.01,6.59-6.12,10.74-10.6,10.72l-186.15-.61c-6.53-.03-11.81-8.75-11.83-19.5l-.06-169.97-.06-180.88c0-10.19,1.4-12.52,8.51-12.52h189.72c4.51,0,8.63,4.22,10.63,10.89l52.04,174.24c.78,2.62,1.18,5.44,1.21,8.26Z"></path><path class="cls-1" d="M331.84,193.29c.05,2.41-.49,4.83-1.6,7.04l-66.03,130.76c-2.55,5.06-7.75,8.25-13.42,8.24l-235.63-.47c-8.26-.02-14.95-6.72-14.97-14.98l-.07-130.59L.05,54.32c0-7.83,1.77-9.62,10.77-9.62h240.15c5.71,0,10.93,3.24,13.46,8.37l65.88,133.87c.99,2.01,1.5,4.18,1.53,6.35Z"></path><path class="cls-3" d="M331.84,193.29c.05,2.41-.49,4.83-1.6,7.04l-66.03,130.76c-2.55,5.06-7.75,8.25-13.42,8.24l-235.63-.47c-8.26-.02-14.95-6.72-14.97-14.98l-.07-130.59h331.72Z"></path><path class="cls-2" d="M199.26,252.5c0,3.61-1,6.37-3.01,8.31-2.01,1.94-4.81,2.92-8.42,2.92h-71.08c-3.61,0-6.41-1-8.42-3.01-2.01-2.01-3.01-4.75-3.01-8.21s1-6.31,3.01-8.11c2-1.8,4.81-2.7,8.42-2.7h23.28v-94.25l-17.67,10.7c-2.64,1.53-5.09,2.12-7.38,1.77-2.29-.35-4.23-1.32-5.82-2.91-1.6-1.6-2.67-3.5-3.22-5.72-.55-2.21-.38-4.47.52-6.76.9-2.28,2.67-4.19,5.3-5.71l28.68-17.25c2.76-1.66,5.54-3.08,8.31-4.26,2.77-1.18,5.33-1.76,7.69-1.76,2.91,0,5.33.8,7.28,2.39,1.94,1.6,2.91,4.2,2.91,7.8v115.97h21.2c3.6,0,6.4.9,8.42,2.7s3.01,4.51,3.01,8.11Z"></path></g></g></svg>