<svg xmlns="http://www.w3.org/2000/svg" xmlns:xlink="http://www.w3.org/1999/xlink" viewBox="0 0 384 384"><defs><style>      .cls-1 {        fill: url(#Dégradé_sans_nom_11);      }      .cls-2, .cls-3 {        fill: #fff;      }      .cls-4 {        isolation: isolate;      }      .cls-5 {        fill: #e4e5e6;      }      .cls-3 {        mix-blend-mode: soft-light;        opacity: .5;      }    </style><linearGradient id="D&#xE9;grad&#xE9;_sans_nom_11" data-name="D&#xE9;grad&#xE9; sans nom 11" x1="2.46" y1="45.54" x2="260.85" y2="334.81" gradientTransform="translate(383.78) rotate(-180) scale(1 -1)" gradientUnits="userSpaceOnUse"><stop offset="0" stop-color="#eb215e"></stop><stop offset="1" stop-color="#2e5c9e"></stop></linearGradient></defs><g class="cls-4"><g id="Calque_1" data-name="Calque 1"><path class="cls-5" d="M.05,194.17c-.04,3.14.39,6.29,1.26,9.16l52.16,170.19c2.01,6.59,6.12,10.74,10.6,10.72l186.15-.61c6.53-.03,11.81-8.75,11.83-19.5l.06-169.97.06-180.88c0-10.19-1.4-12.52-8.51-12.52H63.94c-4.51,0-8.63,4.22-10.63,10.89L1.26,185.91c-.78,2.62-1.18,5.44-1.21,8.26Z"></path><path class="cls-1" d="M51.94,193.29c-.05,2.41.49,4.83,1.6,7.04l66.03,130.76c2.55,5.06,7.75,8.25,13.42,8.24l235.63-.47c8.26-.02,14.95-6.72,14.97-14.98l.07-130.59.07-138.97c0-7.83-1.77-9.62-10.77-9.62h-240.15c-5.71,0-10.93,3.24-13.46,8.37L53.47,186.94c-.99,2.01-1.5,4.18-1.53,6.35Z"></path><path class="cls-3" d="M51.94,193.29c-.05,2.41.49,4.83,1.6,7.04l66.03,130.76c2.55,5.06,7.75,8.25,13.42,8.24l235.63-.47c8.26-.02,14.95-6.72,14.97-14.98l.07-130.59H51.94Z"></path><path class="cls-2" d="M289.53,257c0,3.73-1.04,6.6-3.12,8.61-2.08,2.01-4.98,3.01-8.71,3.01h-73.57c-3.74,0-6.64-1.04-8.72-3.12s-3.12-4.91-3.12-8.5,1.04-6.52,3.12-8.39c2.08-1.86,4.98-2.8,8.72-2.8h24.09v-97.55l-18.29,11.07c-2.72,1.58-5.27,2.19-7.64,1.83-2.36-.36-4.37-1.36-6.02-3.01s-2.76-3.62-3.34-5.92c-.57-2.29-.39-4.62.55-6.99.92-2.37,2.75-4.34,5.48-5.92l29.69-17.85c2.87-1.72,5.74-3.2,8.61-4.41,2.86-1.22,5.51-1.83,7.96-1.83,3.01,0,5.52.82,7.53,2.47,2,1.65,3.01,4.34,3.01,8.07v120.04h21.94c3.73,0,6.63.94,8.71,2.8,2.08,1.87,3.12,4.66,3.12,8.39Z"></path></g></g></svg>