<svg xmlns="http://www.w3.org/2000/svg" xmlns:xlink="http://www.w3.org/1999/xlink" viewBox="0 0 384 384"><defs><style>      .cls-1 {        fill: url(#Dégradé_sans_nom_11);      }      .cls-2, .cls-3 {        fill: #fff;      }      .cls-4 {        isolation: isolate;      }      .cls-5 {        fill: #e4e5e6;      }      .cls-3 {        mix-blend-mode: soft-light;        opacity: .5;      }    </style><linearGradient id="D&#xE9;grad&#xE9;_sans_nom_11" data-name="D&#xE9;grad&#xE9; sans nom 11" x1="2.46" y1="45.54" x2="260.85" y2="334.81" gradientTransform="translate(383.78) rotate(-180) scale(1 -1)" gradientUnits="userSpaceOnUse"><stop offset="0" stop-color="#eb215e"></stop><stop offset="1" stop-color="#2e5c9e"></stop></linearGradient></defs><g class="cls-4"><g id="Calque_1" data-name="Calque 1"><path class="cls-5" d="M.05,194.17c-.04,3.14.39,6.29,1.26,9.16l52.16,170.19c2.01,6.59,6.12,10.74,10.6,10.72l186.15-.61c6.53-.03,11.81-8.75,11.83-19.5l.06-169.97.06-180.88c0-10.19-1.4-12.52-8.51-12.52H63.94c-4.51,0-8.63,4.22-10.63,10.89L1.26,185.91c-.78,2.62-1.18,5.44-1.21,8.26Z"></path><path class="cls-1" d="M51.94,193.29c-.05,2.41.49,4.83,1.6,7.04l66.03,130.76c2.55,5.06,7.75,8.25,13.42,8.24l235.63-.47c8.26-.02,14.95-6.72,14.97-14.98l.07-130.59.07-138.97c0-7.83-1.77-9.62-10.77-9.62h-240.15c-5.71,0-10.93,3.24-13.46,8.37L53.47,186.94c-.99,2.01-1.5,4.18-1.53,6.35Z"></path><path class="cls-3" d="M51.94,193.29c-.05,2.41.49,4.83,1.6,7.04l66.03,130.76c2.55,5.06,7.75,8.25,13.42,8.24l235.63-.47c8.26-.02,14.95-6.72,14.97-14.98l.07-130.59H51.94Z"></path><path class="cls-2" d="M283.27,224.82c0,8.46-2.11,15.82-6.34,22.09-4.23,6.27-10.22,11.08-18,14.42-7.77,3.34-17.04,5.01-27.8,5.01-7.37,0-15-.96-22.91-2.87-7.9-1.9-14.79-4.77-20.65-8.59-2.73-1.77-4.57-3.81-5.52-6.13-.96-2.32-1.2-4.53-.72-6.65.48-2.11,1.5-3.91,3.07-5.41,1.57-1.5,3.54-2.39,5.93-2.66,2.39-.27,5.01.34,7.87,1.84,5.59,3,10.97,5.15,16.16,6.44,5.18,1.3,10.49,1.94,15.95,1.94,6,0,11.04-.82,15.13-2.45,4.09-1.64,7.19-4.09,9.3-7.36,2.12-3.28,3.18-7.23,3.18-11.86,0-6.82-2.29-11.9-6.86-15.24-4.57-3.34-11.21-5.01-19.93-5.01h-13.09c-3.82,0-6.72-.95-8.69-2.86-1.98-1.91-2.97-4.57-2.97-7.98s.99-6.06,2.97-7.97c1.97-1.91,4.87-2.86,8.69-2.86h10.63c5.18,0,9.61-.85,13.29-2.56,3.68-1.7,6.55-4.12,8.59-7.26,2.05-3.13,3.07-6.95,3.07-11.45,0-6.27-2.08-11.04-6.24-14.31-4.16-3.28-10.19-4.91-18.09-4.91-5.05,0-9.79.58-14.22,1.74-4.43,1.16-9.3,3.3-14.62,6.44-2.45,1.5-4.8,2.11-7.05,1.84s-4.13-1.16-5.63-2.66-2.52-3.3-3.06-5.42c-.55-2.11-.41-4.29.41-6.54.81-2.25,2.52-4.2,5.11-5.83,5.86-3.81,12.33-6.71,19.43-8.69,7.08-1.98,14.38-2.97,21.87-2.97,9.96,0,18.48,1.54,25.57,4.6,7.08,3.07,12.5,7.44,16.25,13.09,3.75,5.66,5.63,12.51,5.63,20.55,0,5.73-1.1,10.94-3.28,15.65-2.18,4.7-5.25,8.69-9.2,11.96-2.8,2.32-6.01,4.16-9.63,5.51,7.59,2.03,13.67,5.75,18.22,11.16,5.45,6.47,8.18,14.55,8.18,24.22Z"></path></g></g></svg>