<svg xmlns="http://www.w3.org/2000/svg" xmlns:xlink="http://www.w3.org/1999/xlink" id="Calque_1" data-name="Calque 1" viewBox="0 0 384 384"><defs><style>      .cls-1, .cls-2 {        fill: #fff;      }      .cls-3, .cls-2 {        isolation: isolate;      }      .cls-4 {        fill: url(#Dégradé_sans_nom);      }      .cls-5 {        fill: #e4e5e6;      }      .cls-2 {        mix-blend-mode: soft-light;        opacity: .5;      }    </style><linearGradient id="D&#xE9;grad&#xE9;_sans_nom" data-name="D&#xE9;grad&#xE9; sans nom" x1="2.46" y1="336.19" x2="260.85" y2="46.92" gradientTransform="translate(0 381.73) scale(1 -1)" gradientUnits="userSpaceOnUse"><stop offset="0" stop-color="#eb215e"></stop><stop offset="1" stop-color="#2e5c9e"></stop></linearGradient></defs><g class="cls-3"><g id="Calque_1-2" data-name="Calque 1"><path class="cls-5" d="M383.73,194.17c.04,3.14-.39,6.29-1.26,9.16l-52.16,170.19c-2.01,6.59-6.12,10.74-10.6,10.72l-186.15-.61c-6.53-.03-11.81-8.75-11.83-19.5l-.06-169.97-.06-180.88c0-10.19,1.4-12.52,8.51-12.52h189.72c4.51,0,8.63,4.22,10.63,10.89l52.04,174.24c.78,2.62,1.18,5.44,1.21,8.26v.02Z"></path><path class="cls-4" d="M331.84,193.29c.05,2.41-.49,4.83-1.6,7.04l-66.03,130.76c-2.55,5.06-7.75,8.25-13.42,8.24l-235.63-.47c-8.26-.02-14.95-6.72-14.97-14.98l-.07-130.59L.05,54.32c0-7.83,1.77-9.62,10.77-9.62h240.15c5.71,0,10.93,3.24,13.46,8.37l65.88,133.87c.99,2.01,1.5,4.18,1.53,6.35h0Z"></path><path class="cls-2" d="M331.84,193.29c.05,2.41-.49,4.83-1.6,7.04l-66.03,130.76c-2.55,5.06-7.75,8.25-13.42,8.24l-235.63-.47c-8.26-.02-14.95-6.72-14.97-14.98l-.07-130.59h331.72Z"></path></g></g><path class="cls-1" d="M198.85,218.53c-2.1-1.96-5.26-2.94-9.46-2.94h-10.65v-88.94c0-4.78-1.24-8.3-3.7-10.55-2.47-2.25-5.59-3.37-9.35-3.37-3.19,0-6.02.81-8.48,2.4-2.47,1.59-4.72,3.91-6.74,6.95l-59.59,86.33c-3.19,4.5-5.4,8.12-6.64,10.88-1.23,2.75-1.84,5.29-1.84,7.61,0,4.06,1.33,7.04,4.02,8.91,2.68,1.89,6.27,2.83,10.77,2.83h53.71v16.96c0,4.49,1.23,7.93,3.7,10.32,2.46,2.39,5.86,3.59,10.22,3.59s7.75-1.2,10.22-3.59c2.46-2.39,3.7-5.83,3.7-10.32v-16.96h10.65c4.2,0,7.35-.99,9.46-2.94,2.1-1.95,3.15-4.82,3.15-8.59s-1.05-6.63-3.15-8.58ZM150.9,215.59h-39.97l39.97-58.61v58.61Z"></path></svg>